<svg width="18" height="18" viewBox="0 0 18 18" fill="none" xmlns="http://www.w3.org/2000/svg">
<g clip-path="url(#clip0_1_1524)">
<path d="M1.89844 7.93359H6.76758C7.77832 7.93359 8.3584 7.35352 8.3584 6.35156V1.54395C8.3584 0.999023 7.94531 0.585938 7.3916 0.585938C6.84668 0.585938 6.44238 0.990234 6.44238 1.54395V2.16797L6.62695 4.93652L4.57031 2.76562L2.03906 0.216797C1.86328 0.0322266 1.62598 -0.0556641 1.37109 -0.0556641C0.782227 -0.0556641 0.360352 0.339844 0.360352 0.928711C0.360352 1.19238 0.457031 1.43848 0.641602 1.62305L3.19043 4.16309L5.35254 6.21094L2.5752 6.02637H1.89844C1.35352 6.02637 0.94043 6.42188 0.94043 6.97559C0.94043 7.53809 1.34473 7.93359 1.89844 7.93359ZM10.5557 16.8281C11.1094 16.8281 11.5049 16.4326 11.5049 15.8789V15.167L11.3203 12.4072L13.377 14.5693L15.9609 17.1709C16.1367 17.3555 16.374 17.4521 16.6289 17.4521C17.2178 17.4521 17.6396 17.0479 17.6396 16.459C17.6396 16.1953 17.543 15.9492 17.3584 15.7646L14.7656 13.1807L12.5947 11.124L15.3721 11.3086H16.1367C16.6816 11.3086 17.0947 10.9131 17.0947 10.3594C17.0947 9.80566 16.6904 9.40137 16.1367 9.40137H11.1797C10.1777 9.40137 9.59766 9.99023 9.59766 10.9922V15.8789C9.59766 16.4238 10.002 16.8281 10.5557 16.8281Z" fill="#0AABB8"/>
</g>
<defs>
<clipPath id="clip0_1_1524">
<rect width="18" height="18" fill="white"/>
</clipPath>
</defs>
</svg>
