<svg width="32" height="38" viewBox="0 0 32 38" fill="none" xmlns="http://www.w3.org/2000/svg">
<g clip-path="url(#clip0_115_2539)">
<path d="M31.746 4.52891C31.6686 4.47547 31.5789 4.44243 31.4853 4.43287C31.3918 4.4233 31.2973 4.43752 31.2106 4.4742C30.9293 4.57971 24.2667 7.13924 16.381 0.152307C16.2799 0.0558022 16.1456 0.00195313 16.0059 0.00195312C15.8661 0.00195313 15.7318 0.0558022 15.6307 0.152307C7.7333 7.13924 1.0668 4.57971 0.781536 4.4742C0.69491 4.43752 0.600426 4.4233 0.506841 4.43287C0.413256 4.44243 0.3236 4.47547 0.246184 4.52891C0.170695 4.58265 0.109024 4.65353 0.0662303 4.73572C0.0234362 4.81791 0.000738766 4.90908 0 5.00174V14.7006C0 33.0667 15.6854 37.6465 15.8456 37.6778C15.8951 37.6991 15.9481 37.711 16.002 37.7129C16.0544 37.7098 16.1059 37.6979 16.1544 37.6778C16.3146 37.6465 32 33.0667 32 14.7006V5.00174C32 4.90807 31.9769 4.81586 31.9325 4.73334C31.8882 4.65083 31.8241 4.58059 31.746 4.52891Z" fill="#09ABB6"/>
</g>
<defs>
<clipPath id="clip0_115_2539">
<rect width="32" height="37.713" fill="white"/>
</clipPath>
</defs>
</svg>
