<svg width="32" height="38" viewBox="0 0 32 38" fill="none" xmlns="http://www.w3.org/2000/svg">
<g clip-path="url(#clip0_113_193)">
<path d="M31.7447 4.52695C31.6669 4.47242 31.5762 4.43924 31.4817 4.4307C31.3871 4.42217 31.2919 4.43859 31.2057 4.47831C30.922 4.57963 24.2594 7.13687 16.3728 0.154099C16.2726 0.0546107 16.1372 -0.0012207 15.9959 -0.0012207C15.8547 -0.0012207 15.7193 0.0546107 15.619 0.154099C7.73252 7.13687 1.06991 4.57963 0.810537 4.47831C0.724624 4.44012 0.630369 4.42454 0.536734 4.43305C0.4431 4.44156 0.3532 4.47389 0.275583 4.52695C0.194554 4.57761 0.127105 4.64728 0.0790834 4.72991C0.0310618 4.81253 0.00391629 4.90562 0 5.00111L0 14.7032C0 33.07 15.6879 37.6495 15.846 37.6901C15.8945 37.7115 15.947 37.7226 16 37.7226C16.053 37.7226 16.1055 37.7115 16.154 37.6901C16.3121 37.6495 32.0162 33.07 32.0162 14.7032V5.00111C32.0145 4.90561 31.9888 4.81208 31.9413 4.72919C31.8938 4.6463 31.8262 4.57674 31.7447 4.52695ZM30.8531 14.7032C30.8531 31.4246 17.6859 36.0204 16 36.5432C14.4316 36.0366 1.14286 31.2747 1.14286 14.7032V5.78733C3.2381 6.33039 9.2077 7.12877 16 1.32938C22.7923 7.11256 28.7619 6.31418 30.8531 5.78733V14.7032Z" fill="#595A5B"/>
</g>
<defs>
<clipPath id="clip0_113_193">
<rect width="32" height="37.7143" fill="white"/>
</clipPath>
</defs>
</svg>
