<svg width="32" height="29" viewBox="0 0 32 29" fill="none" xmlns="http://www.w3.org/2000/svg">
<g clip-path="url(#clip0_113_197)">
<path d="M20.1059 2.26386e-08H1.66693C1.60301 -1.96288e-05 1.53972 0.0127548 1.48081 0.0375706C1.4219 0.0623865 1.36854 0.098742 1.3239 0.144495C1.27925 0.190249 1.24421 0.244474 1.22085 0.303978C1.19748 0.363482 1.18626 0.42706 1.18785 0.490968V4.57313H0.490988C0.362875 4.57313 0.24001 4.62402 0.149421 4.71461C0.0588317 4.8052 0.00793916 4.92806 0.00793916 5.05618C0.00793916 5.18429 0.0588317 5.30715 0.149421 5.39774C0.24001 5.48833 0.362875 5.53922 0.490988 5.53922H1.18785V9.15021H0.490988C0.427133 9.14752 0.363398 9.15786 0.303661 9.18058C0.243925 9.2033 0.189436 9.23794 0.143508 9.28238C0.0975813 9.32683 0.0611765 9.38015 0.0365089 9.43911C0.0118413 9.49807 -0.000573304 9.56143 2.03267e-05 9.62534C-0.000507224 9.68996 0.0118318 9.75404 0.0363184 9.81385C0.060805 9.87365 0.0969495 9.92799 0.142645 9.97369C0.188341 10.0194 0.242675 10.0555 0.30248 10.08C0.362286 10.1045 0.426366 10.1168 0.490988 10.1163H1.18785V13.7115H0.490988C0.362875 13.7115 0.24001 13.7624 0.149421 13.8529C0.0588317 13.9435 0.00793916 14.0664 0.00793916 14.1945C0.00793916 14.3226 0.0588317 14.4455 0.149421 14.5361C0.24001 14.6267 0.362875 14.6776 0.490988 14.6776H1.18785V18.2885H0.490988C0.427412 18.287 0.364159 18.2981 0.304916 18.3212C0.245672 18.3443 0.191625 18.379 0.145926 18.4232C0.100226 18.4674 0.0637887 18.5203 0.0387384 18.5788C0.0136882 18.6372 0.000526307 18.7001 2.03267e-05 18.7637C1.8202e-05 18.828 0.012745 18.8916 0.0374667 18.951C0.0621884 19.0103 0.0984156 19.0642 0.144059 19.1094C0.189702 19.1547 0.243857 19.1905 0.303402 19.2148C0.362946 19.239 0.426701 19.2512 0.490988 19.2507H1.18785V22.8458H0.490988C0.360775 22.8458 0.235896 22.8976 0.143821 22.9896C0.0517471 23.0817 2.03267e-05 23.2066 2.03267e-05 23.3368C2.03267e-05 23.467 0.0517471 23.5919 0.143821 23.684C0.235896 23.776 0.360775 23.8278 0.490988 23.8278H1.18785V27.9139C1.18889 28.0403 1.23983 28.1611 1.32956 28.2501C1.41929 28.3391 1.54056 28.389 1.66693 28.389H20.1059C20.1688 28.3895 20.2313 28.3777 20.2896 28.3541C20.3479 28.3305 20.401 28.2956 20.4459 28.2515C20.4907 28.2074 20.5264 28.1549 20.551 28.0969C20.5756 28.039 20.5885 27.9768 20.589 27.9139V0.490968C20.59 0.42687 20.5783 0.363203 20.5545 0.30368C20.5307 0.244157 20.4953 0.189967 20.4503 0.14427C20.4054 0.0985726 20.3518 0.0622817 20.2926 0.0375125C20.2335 0.0127433 20.17 -8.59213e-06 20.1059 2.26386e-08ZM19.6268 27.4229H2.1579V23.8278H2.84684C2.97705 23.8278 3.10193 23.776 3.19401 23.684C3.28608 23.5919 3.33781 23.467 3.33781 23.3368C3.33781 23.2066 3.28608 23.0817 3.19401 22.9896C3.10193 22.8976 2.97705 22.8458 2.84684 22.8458H2.1579V19.2507H2.84684C2.91113 19.2512 2.97488 19.239 3.03443 19.2148C3.09397 19.1905 3.14813 19.1547 3.19377 19.1094C3.23941 19.0642 3.27564 19.0103 3.30036 18.951C3.32508 18.8916 3.33781 18.828 3.33781 18.7637C3.3373 18.7001 3.32414 18.6372 3.29909 18.5788C3.27404 18.5203 3.2376 18.4674 3.1919 18.4232C3.1462 18.379 3.09216 18.3443 3.03291 18.3212C2.97367 18.2981 2.91042 18.287 2.84684 18.2885H2.1579V14.6776H2.84684C2.91028 14.6776 2.97309 14.6651 3.0317 14.6408C3.0903 14.6165 3.14355 14.5809 3.18841 14.5361C3.23326 14.4912 3.26884 14.438 3.29312 14.3794C3.31739 14.3208 3.32989 14.2579 3.32989 14.1945C3.32989 14.1311 3.31739 14.0683 3.29312 14.0097C3.26884 13.951 3.23326 13.8978 3.18841 13.8529C3.14355 13.8081 3.0903 13.7725 3.0317 13.7482C2.97309 13.724 2.91028 13.7115 2.84684 13.7115H2.1579V10.1163H2.84684C2.91146 10.1168 2.97554 10.1045 3.03535 10.08C3.09515 10.0555 3.14949 10.0194 3.19518 9.97369C3.24088 9.92799 3.27702 9.87365 3.30151 9.81385C3.326 9.75404 3.33834 9.68996 3.33781 9.62534C3.3384 9.56143 3.32599 9.49807 3.30132 9.43911C3.27665 9.38015 3.24025 9.32683 3.19432 9.28238C3.14839 9.23794 3.0939 9.2033 3.03417 9.18058C2.97443 9.15786 2.9107 9.14752 2.84684 9.15021H2.1579V5.54318H2.84684C2.91028 5.54318 2.97309 5.53069 3.0317 5.50641C3.0903 5.48214 3.14355 5.44656 3.18841 5.4017C3.23326 5.35685 3.26884 5.3036 3.29312 5.24499C3.31739 5.18638 3.32989 5.12357 3.32989 5.06013C3.32989 4.9967 3.31739 4.93389 3.29312 4.87528C3.26884 4.81667 3.23326 4.76342 3.18841 4.71857C3.14355 4.67371 3.0903 4.63813 3.0317 4.61386C2.97309 4.58958 2.91028 4.57709 2.84684 4.57709H2.1579V0.977976H19.6268V27.4229Z" fill="#595A5B"/>
<path d="M22.4739 2.37573C22.345 2.37677 22.2217 2.42841 22.1306 2.51952C22.0395 2.61063 21.9879 2.7339 21.9868 2.86274V25.5383C21.9807 25.6057 21.9888 25.6736 22.0104 25.7377C22.032 25.8018 22.0667 25.8607 22.1123 25.9107C22.158 25.9606 22.2135 26.0005 22.2754 26.0278C22.3373 26.0551 22.4042 26.0692 22.4719 26.0692C22.5395 26.0692 22.6064 26.0551 22.6683 26.0278C22.7302 26.0005 22.7858 25.9606 22.8314 25.9107C22.877 25.8607 22.9118 25.8018 22.9334 25.7377C22.955 25.6736 22.963 25.6057 22.9569 25.5383V2.8469C22.9509 2.72183 22.8978 2.60367 22.8081 2.51623C22.7185 2.4288 22.599 2.37859 22.4739 2.37573Z" fill="#595A5B"/>
<path d="M29.4938 3.06459L29.0068 2.79139V0.791883C29.0059 0.703123 28.9812 0.616226 28.9353 0.540296C28.8893 0.464367 28.8237 0.402199 28.7455 0.360307L28.4168 0.20193C28.1537 0.0729285 27.8646 0.00585938 27.5715 0.00585938C27.2785 0.00585938 26.9893 0.0729285 26.7262 0.20193L26.3936 0.360307C26.3151 0.401865 26.2493 0.463956 26.2032 0.53996C26.1572 0.615964 26.1327 0.703033 26.1323 0.791883V2.77159L25.5581 3.08834C25.4801 3.13009 25.4149 3.19233 25.3695 3.26838C25.3242 3.34442 25.3004 3.43138 25.3008 3.51992V22.8458C25.3007 22.896 25.3101 22.9457 25.3285 22.9923V23.02L27.1142 28.0723C27.1488 28.1651 27.211 28.2452 27.2924 28.3018C27.3737 28.3584 27.4704 28.3888 27.5695 28.389C27.6691 28.3885 27.7661 28.358 27.8481 28.3015C27.93 28.245 27.993 28.1651 28.0288 28.0723L29.8185 23.02V22.9923C29.8369 22.9457 29.8463 22.896 29.8462 22.8458V4.10195C30.1878 4.20379 30.4876 4.41268 30.7015 4.69782C30.9153 4.98297 31.0319 5.32929 31.034 5.68572V13.8975C31.0335 13.9615 31.0456 14.0249 31.0696 14.0842C31.0936 14.1435 31.129 14.1975 31.1739 14.2431C31.2187 14.2887 31.2721 14.325 31.331 14.3499C31.3899 14.3749 31.4531 14.388 31.5171 14.3885C31.647 14.3875 31.7712 14.3354 31.8631 14.2436C31.9549 14.1517 32.007 14.0274 32.008 13.8975V5.68176C32.0056 5.00599 31.7431 4.3571 31.2749 3.86977C30.8068 3.38244 30.1689 3.0941 29.4938 3.06459ZM28.4604 21.8283C28.3283 21.7444 28.1821 21.6854 28.0288 21.654C27.5717 21.5385 27.0877 21.6007 26.6747 21.8283L26.2788 22.0421V18.0827L27.1498 17.6234C27.2811 17.5457 27.4308 17.5047 27.5834 17.5047C27.7359 17.5047 27.8857 17.5457 28.0169 17.6234L28.888 18.0827V22.0421L28.4604 21.8283ZM28.4604 16.7483C28.1861 16.6004 27.8792 16.5229 27.5675 16.5229C27.2558 16.5229 26.949 16.6004 26.6747 16.7483L26.2788 16.978V3.8248L27.1498 3.35363C27.2853 3.28922 27.4334 3.2558 27.5834 3.2558C27.7334 3.2558 27.8815 3.28922 28.0169 3.35363L28.888 3.8248V16.978L28.4604 16.7483ZM27.1577 1.06508C27.2872 1.00433 27.4285 0.972832 27.5715 0.972832C27.7145 0.972832 27.8558 1.00433 27.9853 1.06508L28.0447 1.0928V2.34397C27.7352 2.25687 27.4078 2.25687 27.0984 2.34397V1.0928L27.1577 1.06508ZM27.5537 26.4449L26.3659 23.0794L27.13 22.6835C27.1991 22.6494 27.2706 22.6203 27.3438 22.5964C27.5106 22.5562 27.6854 22.5658 27.8467 22.6241C27.8985 22.6394 27.9489 22.6593 27.9971 22.6835L28.7534 23.0794L27.5537 26.4449Z" fill="#595A5B"/>
<path d="M9.21763 4.99289H14.056C14.1239 4.99901 14.1924 4.99092 14.257 4.96912C14.3216 4.94733 14.381 4.91231 14.4313 4.86631C14.4816 4.82031 14.5218 4.76433 14.5493 4.70193C14.5768 4.63954 14.591 4.57209 14.591 4.50391C14.591 4.43572 14.5768 4.36828 14.5493 4.30588C14.5218 4.24349 14.4816 4.1875 14.4313 4.1415C14.381 4.0955 14.3216 4.06049 14.257 4.03869C14.1924 4.0169 14.1239 4.0088 14.056 4.01492H9.21763C9.14972 4.0088 9.08127 4.0169 9.01666 4.03869C8.95205 4.06049 8.89269 4.0955 8.84236 4.1415C8.79202 4.1875 8.75183 4.24349 8.72432 4.30588C8.69682 4.36828 8.68262 4.43572 8.68262 4.50391C8.68262 4.57209 8.69682 4.63954 8.72432 4.70193C8.75183 4.76433 8.79202 4.82031 8.84236 4.86631C8.89269 4.91231 8.95205 4.94733 9.01666 4.96912C9.08127 4.99092 9.14972 4.99901 9.21763 4.99289Z" fill="#595A5B"/>
<path d="M6.54506 8.21585H16.7247C16.7882 8.21585 16.851 8.20336 16.9096 8.17908C16.9682 8.15481 17.0214 8.11923 17.0663 8.07437C17.1111 8.02952 17.1467 7.97627 17.171 7.91766C17.1953 7.85905 17.2078 7.79624 17.2078 7.7328C17.2078 7.66937 17.1953 7.60656 17.171 7.54795C17.1467 7.48934 17.1111 7.43609 17.0663 7.39124C17.0214 7.34638 16.9682 7.3108 16.9096 7.28653C16.851 7.26225 16.7882 7.24976 16.7247 7.24976H6.54506C6.41695 7.24976 6.29408 7.30065 6.20349 7.39124C6.1129 7.48183 6.06201 7.60469 6.06201 7.7328C6.06201 7.86092 6.1129 7.98378 6.20349 8.07437C6.29408 8.16496 6.41695 8.21585 6.54506 8.21585Z" fill="#595A5B"/>
<path d="M6.54507 11.4506H11.8784C12.0005 11.4396 12.1141 11.3834 12.1968 11.2929C12.2795 11.2024 12.3253 11.0842 12.3253 10.9616C12.3253 10.8391 12.2795 10.7209 12.1968 10.6304C12.1141 10.5399 12.0005 10.4837 11.8784 10.4727H6.54507C6.42297 10.4837 6.30941 10.5399 6.22671 10.6304C6.144 10.7209 6.09814 10.8391 6.09814 10.9616C6.09814 11.0842 6.144 11.2024 6.22671 11.2929C6.30941 11.3834 6.42297 11.4396 6.54507 11.4506Z" fill="#595A5B"/>
<path d="M16.7246 10.4727H14.3014C14.1793 10.4837 14.0658 10.5399 13.9831 10.6304C13.9004 10.7209 13.8545 10.8391 13.8545 10.9616C13.8545 11.0842 13.9004 11.2024 13.9831 11.2929C14.0658 11.3834 14.1793 11.4396 14.3014 11.4506H16.7246C16.8467 11.4396 16.9602 11.3834 17.0429 11.2929C17.1256 11.2024 17.1715 11.0842 17.1715 10.9616C17.1715 10.8391 17.1256 10.7209 17.0429 10.6304C16.9602 10.5399 16.8467 10.4837 16.7246 10.4727Z" fill="#595A5B"/>
<path d="M6.54506 14.6775H16.7247C16.7882 14.6775 16.851 14.665 16.9096 14.6408C16.9682 14.6165 17.0214 14.5809 17.0663 14.536C17.1111 14.4912 17.1467 14.4379 17.171 14.3793C17.1953 14.3207 17.2078 14.2579 17.2078 14.1945C17.2078 14.131 17.1953 14.0682 17.171 14.0096C17.1467 13.951 17.1111 13.8978 17.0663 13.8529C17.0214 13.8081 16.9682 13.7725 16.9096 13.7482C16.851 13.7239 16.7882 13.7114 16.7247 13.7114H6.54506C6.41695 13.7114 6.29408 13.7623 6.20349 13.8529C6.1129 13.9435 6.06201 14.0664 6.06201 14.1945C6.06201 14.3226 6.1129 14.4455 6.20349 14.536C6.29408 14.6266 6.41695 14.6775 6.54506 14.6775Z" fill="#595A5B"/>
<path d="M16.7248 16.9462H12.3695C12.3056 16.9435 12.2419 16.9539 12.1821 16.9766C12.1224 16.9993 12.0679 17.0339 12.022 17.0784C11.976 17.1228 11.9396 17.1762 11.915 17.2351C11.8903 17.2941 11.8779 17.3574 11.8785 17.4213C11.8774 17.4849 11.889 17.5481 11.9127 17.6071C11.9363 17.6662 11.9714 17.7199 12.016 17.7652C12.0606 17.8106 12.1137 17.8466 12.1724 17.8711C12.231 17.8957 12.294 17.9084 12.3576 17.9084H16.7129C16.7778 17.9105 16.8425 17.8995 16.903 17.8758C16.9635 17.8522 17.0186 17.8166 17.0649 17.771C17.1112 17.7255 17.1477 17.671 17.1723 17.6109C17.1969 17.5508 17.209 17.4863 17.2079 17.4213C17.2084 17.3581 17.1962 17.2954 17.1721 17.237C17.1479 17.1786 17.1122 17.1257 17.0671 17.0813C17.022 17.037 16.9685 17.0022 16.9097 16.979C16.8509 16.9558 16.788 16.9446 16.7248 16.9462Z" fill="#595A5B"/>
<path d="M6.54516 17.9125H9.94233C10.0064 17.9125 10.0699 17.8998 10.129 17.875C10.1882 17.8502 10.2418 17.8139 10.2867 17.7682C10.3317 17.7225 10.3671 17.6683 10.3909 17.6088C10.4147 17.5493 10.4264 17.4856 10.4254 17.4215C10.4259 17.3581 10.4138 17.2953 10.3896 17.2366C10.3655 17.178 10.3299 17.1248 10.2849 17.0802C10.2398 17.0355 10.1863 17.0003 10.1275 16.9767C10.0687 16.953 10.0057 16.9414 9.94233 16.9425H6.54516C6.48194 16.9414 6.41917 16.953 6.36056 16.9767C6.30195 17.0004 6.2487 17.0357 6.204 17.0804C6.1593 17.1251 6.12405 17.1783 6.10035 17.2369C6.07665 17.2955 6.06499 17.3583 6.06607 17.4215C6.06448 17.4854 6.0757 17.549 6.09907 17.6085C6.12243 17.668 6.15747 17.7223 6.20212 17.768C6.24676 17.8138 6.30012 17.8501 6.35903 17.8749C6.41794 17.8998 6.48123 17.9125 6.54516 17.9125Z" fill="#595A5B"/>
<path d="M6.54483 21.1353H16.7245C16.7913 21.1413 16.8587 21.1334 16.9223 21.112C16.9859 21.0906 17.0444 21.0561 17.0939 21.0109C17.1435 20.9656 17.1831 20.9105 17.2102 20.8491C17.2372 20.7877 17.2512 20.7213 17.2512 20.6542C17.2512 20.5871 17.2372 20.5207 17.2102 20.4593C17.1831 20.3979 17.1435 20.3428 17.0939 20.2975C17.0444 20.2522 16.9859 20.2178 16.9223 20.1964C16.8587 20.175 16.7913 20.1671 16.7245 20.1731H6.54483C6.42477 20.184 6.31313 20.2394 6.23184 20.3284C6.15054 20.4174 6.10547 20.5336 6.10547 20.6542C6.10547 20.7747 6.15054 20.8909 6.23184 20.9799C6.31313 21.069 6.42477 21.1244 6.54483 21.1353Z" fill="#595A5B"/>
<path d="M6.54506 24.3741H12.3654C12.4288 24.3741 12.4917 24.3616 12.5503 24.3373C12.6089 24.313 12.6621 24.2774 12.707 24.2326C12.7518 24.1877 12.7874 24.1345 12.8117 24.0759C12.836 24.0173 12.8485 23.9544 12.8485 23.891C12.8485 23.8276 12.836 23.7648 12.8117 23.7062C12.7874 23.6475 12.7518 23.5943 12.707 23.5494C12.6621 23.5046 12.6089 23.469 12.5503 23.4447C12.4917 23.4205 12.4288 23.408 12.3654 23.408H6.54506C6.41695 23.408 6.29408 23.4589 6.20349 23.5494C6.1129 23.64 6.06201 23.7629 6.06201 23.891C6.06201 24.0191 6.1129 24.142 6.20349 24.2326C6.29408 24.3232 6.41695 24.3741 6.54506 24.3741Z" fill="#595A5B"/>
</g>
<defs>
<clipPath id="clip0_113_197">
<rect width="32" height="28.389" fill="white"/>
</clipPath>
</defs>
</svg>
