<svg width="32" height="29" viewBox="0 0 32 29" fill="none" xmlns="http://www.w3.org/2000/svg">
<g clip-path="url(#clip0_115_2452)">
<path d="M2.15796 4.57318H2.8469C2.97501 4.57318 3.09788 4.62407 3.18846 4.71466C3.27905 4.80525 3.32995 4.92811 3.32995 5.05623C3.32995 5.18434 3.27905 5.3072 3.18846 5.39779C3.09788 5.48838 2.97501 5.53927 2.8469 5.53927H2.15796V9.15026H2.8469C2.91075 9.14757 2.97449 9.1579 3.03422 9.18063C3.09396 9.20335 3.14845 9.23799 3.19438 9.28243C3.2403 9.32688 3.27671 9.3802 3.30138 9.43916C3.32604 9.49812 3.33846 9.56148 3.33786 9.62539C3.33839 9.69001 3.32605 9.75409 3.30157 9.8139C3.27708 9.8737 3.24094 9.92804 3.19524 9.97373C3.14954 10.0194 3.09521 10.0556 3.0354 10.0801C2.9756 10.1045 2.91152 10.1169 2.8469 10.1164H2.15796V13.7115H2.8469C2.97501 13.7115 3.09788 13.7624 3.18846 13.853C3.27905 13.9436 3.32995 14.0664 3.32995 14.1946C3.32995 14.3227 3.27905 14.4455 3.18846 14.5361C3.09788 14.6267 2.97501 14.6776 2.8469 14.6776H2.15796V18.2886H2.8469C2.91047 18.287 2.97373 18.2981 3.03297 18.3212C3.09221 18.3444 3.14626 18.379 3.19196 18.4233C3.23766 18.4675 3.2741 18.5204 3.29915 18.5788C3.3242 18.6373 3.33736 18.7001 3.33786 18.7637C3.33787 18.828 3.32514 18.8917 3.30042 18.951C3.2757 19.0104 3.23947 19.0642 3.19383 19.1095C3.14818 19.1548 3.09403 19.1906 3.03448 19.2148C2.97494 19.239 2.91118 19.2513 2.8469 19.2507H2.15796V22.8459H2.8469C2.97711 22.8459 3.10199 22.8976 3.19406 22.9897C3.28614 23.0818 3.33786 23.2066 3.33786 23.3368C3.33786 23.4671 3.28614 23.5919 3.19406 23.684C3.10199 23.7761 2.97711 23.8278 2.8469 23.8278H2.15796V27.423H19.6269V0.978027H2.15796V4.57318ZM9.2176 4.0149H14.056C14.1239 4.00878 14.1924 4.01688 14.257 4.03867C14.3216 4.06047 14.3809 4.09548 14.4313 4.14148C14.4816 4.18748 14.5218 4.24347 14.5493 4.30586C14.5768 4.36826 14.591 4.4357 14.591 4.50389C14.591 4.57207 14.5768 4.63952 14.5493 4.70191C14.5218 4.76431 14.4816 4.82029 14.4313 4.86629C14.3809 4.91229 14.3216 4.94731 14.257 4.9691C14.1924 4.9909 14.1239 4.99899 14.056 4.99287H9.2176C9.14968 4.99899 9.08124 4.9909 9.01663 4.9691C8.95202 4.94731 8.89266 4.91229 8.84232 4.86629C8.79199 4.82029 8.75179 4.76431 8.72429 4.70191C8.69679 4.63952 8.68258 4.57207 8.68258 4.50389C8.68258 4.4357 8.69679 4.36826 8.72429 4.30586C8.75179 4.24347 8.79199 4.18748 8.84232 4.14148C8.89266 4.09548 8.95202 4.06047 9.01663 4.03867C9.08124 4.01688 9.14968 4.00878 9.2176 4.0149ZM6.54499 7.24974H16.7246C16.8528 7.24974 16.9756 7.30063 17.0662 7.39122C17.1568 7.48181 17.2077 7.60468 17.2077 7.73279C17.2077 7.8609 17.1568 7.98377 17.0662 8.07436C16.9756 8.16495 16.8528 8.21584 16.7246 8.21584H6.54499C6.41688 8.21584 6.29401 8.16495 6.20342 8.07436C6.11284 7.98377 6.06194 7.8609 6.06194 7.73279C6.06194 7.60468 6.11284 7.48181 6.20342 7.39122C6.29401 7.30063 6.41688 7.24974 6.54499 7.24974ZM17.2077 10.9637C17.2067 11.0918 17.1556 11.2145 17.0653 11.3055C16.9751 11.3965 16.8528 11.4486 16.7246 11.4507H14.3015C14.1794 11.4397 14.0658 11.3834 13.9831 11.2929C13.9004 11.2024 13.8546 11.0843 13.8546 10.9617C13.8546 10.8391 13.9004 10.721 13.9831 10.6305C14.0658 10.54 14.1794 10.4837 14.3015 10.4727H16.7246C16.8535 10.4748 16.9763 10.5274 17.0667 10.6193C17.1571 10.7111 17.2077 10.8348 17.2077 10.9637ZM6.54499 10.4727H11.8783C12.0004 10.4837 12.114 10.54 12.1967 10.6305C12.2794 10.721 12.3252 10.8391 12.3252 10.9617C12.3252 11.0843 12.2794 11.2024 12.1967 11.2929C12.114 11.3834 12.0004 11.4397 11.8783 11.4507H6.54499C6.4229 11.4397 6.30934 11.3834 6.22663 11.2929C6.14393 11.2024 6.09807 11.0843 6.09807 10.9617C6.09807 10.8391 6.14393 10.721 6.22663 10.6305C6.30934 10.54 6.4229 10.4837 6.54499 10.4727ZM6.54499 13.7115H16.7246C16.8528 13.7115 16.9756 13.7624 17.0662 13.853C17.1568 13.9436 17.2077 14.0664 17.2077 14.1946C17.2077 14.3227 17.1568 14.4455 17.0662 14.5361C16.9756 14.6267 16.8528 14.6776 16.7246 14.6776H6.54499C6.41688 14.6776 6.29401 14.6267 6.20342 14.5361C6.11284 14.4455 6.06194 14.3227 6.06194 14.1946C6.06194 14.0664 6.11284 13.9436 6.20342 13.853C6.29401 13.7624 6.41688 13.7115 6.54499 13.7115ZM17.2077 17.4215C17.2088 17.4854 17.197 17.5489 17.1732 17.6082C17.1493 17.6675 17.1138 17.7214 17.0688 17.7668C17.0238 17.8122 16.9702 17.8481 16.9111 17.8724C16.8519 17.8968 16.7886 17.909 16.7246 17.9085H12.3693C12.3049 17.9095 12.2409 17.8977 12.1811 17.8737C12.1213 17.8496 12.0669 17.8138 12.0212 17.7685C11.9754 17.7231 11.9392 17.669 11.9147 17.6094C11.8901 17.5498 11.8778 17.4859 11.8783 17.4215C11.8778 17.3581 11.8899 17.2952 11.9141 17.2366C11.9382 17.178 11.9738 17.1248 12.0189 17.0801C12.0639 17.0355 12.1174 17.0003 12.1762 16.9766C12.235 16.953 12.298 16.9413 12.3614 16.9424H16.7167C16.7809 16.9397 16.845 16.9501 16.905 16.9731C16.965 16.9961 17.0197 17.031 17.0657 17.0759C17.1116 17.1208 17.148 17.1746 17.1724 17.234C17.1968 17.2934 17.2088 17.3572 17.2077 17.4215ZM6.54499 16.9464H9.94217C10.0052 16.9453 10.0679 16.9568 10.1264 16.9802C10.185 17.0036 10.2383 17.0385 10.2833 17.0827C10.3282 17.1269 10.3639 17.1796 10.3883 17.2378C10.4127 17.296 10.4252 17.3584 10.4252 17.4215C10.4257 17.4852 10.4136 17.5485 10.3896 17.6076C10.3656 17.6666 10.3301 17.7203 10.2851 17.7656C10.2402 17.8109 10.1868 17.8468 10.1279 17.8713C10.0691 17.8959 10.0059 17.9085 9.94217 17.9085H6.54499C6.4814 17.9085 6.41845 17.8958 6.3598 17.8713C6.30116 17.8467 6.24799 17.8107 6.20339 17.7654C6.1588 17.72 6.12368 17.6663 6.10007 17.6073C6.07647 17.5482 6.06485 17.4851 6.0659 17.4215C6.06536 17.3586 6.07742 17.2962 6.10136 17.2381C6.12529 17.18 6.16062 17.1272 6.20527 17.0829C6.24992 17.0386 6.30298 17.0037 6.36133 16.9803C6.41967 16.9568 6.48212 16.9453 6.54499 16.9464ZM6.54499 20.1733H16.7246C16.7915 20.1672 16.8589 20.1751 16.9225 20.1965C16.9861 20.218 17.0445 20.2524 17.0941 20.2977C17.1437 20.3429 17.1832 20.398 17.2103 20.4594C17.2374 20.5208 17.2514 20.5872 17.2514 20.6543C17.2514 20.7215 17.2374 20.7878 17.2103 20.8493C17.1832 20.9107 17.1437 20.9658 17.0941 21.011C17.0445 21.0563 16.9861 21.0907 16.9225 21.1121C16.8589 21.1336 16.7915 21.1415 16.7246 21.1354H6.54499C6.42494 21.1245 6.3133 21.0691 6.232 20.9801C6.15071 20.8911 6.10563 20.7749 6.10563 20.6543C6.10563 20.5338 6.15071 20.4176 6.232 20.3286C6.3133 20.2396 6.42494 20.1842 6.54499 20.1733ZM6.54499 23.4081H12.3653C12.4288 23.4081 12.4916 23.4206 12.5502 23.4449C12.6088 23.4692 12.662 23.5047 12.7069 23.5496C12.7518 23.5945 12.7873 23.6477 12.8116 23.7063C12.8359 23.7649 12.8484 23.8277 12.8484 23.8912C12.8484 23.9546 12.8359 24.0174 12.8116 24.076C12.7873 24.1346 12.7518 24.1879 12.7069 24.2327C12.662 24.2776 12.6088 24.3132 12.5502 24.3374C12.4916 24.3617 12.4288 24.3742 12.3653 24.3742H6.54499C6.41688 24.3742 6.29401 24.3233 6.20342 24.2327C6.11284 24.1421 6.06194 24.0193 6.06194 23.8912C6.06194 23.7631 6.11284 23.6402 6.20342 23.5496C6.29401 23.459 6.41688 23.4081 6.54499 23.4081Z" fill="#09ABB6"/>
<path d="M27.1575 1.06515L27.0981 1.09287V2.34404C27.4076 2.25694 27.735 2.25694 28.0444 2.34404V1.09287L27.9851 1.06515C27.8556 1.0044 27.7143 0.9729 27.5713 0.9729C27.4283 0.9729 27.287 1.0044 27.1575 1.06515Z" fill="#09ABB6"/>
<path d="M28.005 3.35369C27.8696 3.28928 27.7215 3.25586 27.5715 3.25586C27.4215 3.25586 27.2734 3.28928 27.1379 3.35369L26.2668 3.82486V16.978L26.6628 16.7484C26.9371 16.6004 27.2439 16.5229 27.5556 16.5229C27.8673 16.5229 28.1741 16.6004 28.4485 16.7484L28.8642 16.978V15.4893L28.694 3.72587L28.005 3.35369Z" fill="#09ABB6"/>
<path d="M28.8761 21.7769V18.0709L28.005 17.6116C27.8738 17.5339 27.724 17.4929 27.5715 17.4929C27.4189 17.4929 27.2692 17.5339 27.1379 17.6116L26.2668 18.0709V22.0303L26.6628 21.8165C27.0758 21.589 27.5598 21.5267 28.0169 21.6423C28.1702 21.6736 28.3164 21.7327 28.4485 21.8165L28.8642 22.0303L28.8761 21.7769Z" fill="#09ABB6"/>
<path d="M27.8546 22.6161C27.6933 22.5578 27.5185 22.5482 27.3518 22.5884C27.2785 22.6123 27.207 22.6414 27.1379 22.6755L26.3738 23.0714L27.5616 26.4369L28.7494 23.0714L27.9932 22.6755C27.9487 22.6519 27.9024 22.632 27.8546 22.6161Z" fill="#09ABB6"/>
<path d="M20.1059 2.26386e-08H1.66693C1.60301 -1.96288e-05 1.53972 0.0127548 1.48081 0.0375706C1.4219 0.0623865 1.36854 0.098742 1.3239 0.144495C1.27925 0.190249 1.24421 0.244474 1.22085 0.303978C1.19748 0.363482 1.18626 0.42706 1.18785 0.490968V4.57313H0.490988C0.362875 4.57313 0.24001 4.62402 0.149421 4.71461C0.0588317 4.8052 0.00793916 4.92806 0.00793916 5.05618C0.00793916 5.18429 0.0588317 5.30715 0.149421 5.39774C0.24001 5.48833 0.362875 5.53922 0.490988 5.53922H1.18785V9.15021H0.490988C0.427133 9.14752 0.363398 9.15786 0.303661 9.18058C0.243925 9.2033 0.189436 9.23794 0.143508 9.28238C0.0975813 9.32683 0.0611765 9.38015 0.0365089 9.43911C0.0118413 9.49807 -0.000573304 9.56143 2.03267e-05 9.62534C-0.000507224 9.68996 0.0118318 9.75404 0.0363184 9.81385C0.060805 9.87365 0.0969495 9.92799 0.142645 9.97369C0.188341 10.0194 0.242675 10.0555 0.30248 10.08C0.362286 10.1045 0.426366 10.1168 0.490988 10.1163H1.18785V13.7115H0.490988C0.362875 13.7115 0.24001 13.7624 0.149421 13.8529C0.0588317 13.9435 0.00793916 14.0664 0.00793916 14.1945C0.00793916 14.3226 0.0588317 14.4455 0.149421 14.5361C0.24001 14.6267 0.362875 14.6776 0.490988 14.6776H1.18785V18.2885H0.490988C0.427412 18.287 0.364159 18.2981 0.304916 18.3212C0.245672 18.3443 0.191625 18.379 0.145926 18.4232C0.100226 18.4674 0.0637887 18.5203 0.0387384 18.5788C0.0136882 18.6372 0.000526307 18.7001 2.03267e-05 18.7637C1.8202e-05 18.828 0.012745 18.8916 0.0374667 18.951C0.0621884 19.0103 0.0984156 19.0642 0.144059 19.1094C0.189702 19.1547 0.243857 19.1905 0.303402 19.2148C0.362946 19.239 0.426701 19.2512 0.490988 19.2507H1.18785V22.8458H0.490988C0.360775 22.8458 0.235896 22.8976 0.143821 22.9896C0.0517471 23.0817 2.03267e-05 23.2066 2.03267e-05 23.3368C2.03267e-05 23.467 0.0517471 23.5919 0.143821 23.684C0.235896 23.776 0.360775 23.8278 0.490988 23.8278H1.18785V27.9139C1.18889 28.0403 1.23983 28.1611 1.32956 28.2501C1.41929 28.3391 1.54056 28.389 1.66693 28.389H20.1059C20.1688 28.3895 20.2313 28.3777 20.2896 28.3541C20.3479 28.3305 20.401 28.2956 20.4459 28.2515C20.4907 28.2074 20.5264 28.1549 20.551 28.0969C20.5756 28.039 20.5885 27.9768 20.589 27.9139V0.490968C20.59 0.42687 20.5783 0.363203 20.5545 0.30368C20.5307 0.244157 20.4953 0.189967 20.4503 0.14427C20.4054 0.0985726 20.3518 0.0622817 20.2926 0.0375125C20.2335 0.0127433 20.17 -8.59213e-06 20.1059 2.26386e-08ZM19.6268 27.4229H2.1579V23.8278H2.84684C2.97705 23.8278 3.10193 23.776 3.19401 23.684C3.28608 23.5919 3.33781 23.467 3.33781 23.3368C3.33781 23.2066 3.28608 23.0817 3.19401 22.9896C3.10193 22.8976 2.97705 22.8458 2.84684 22.8458H2.1579V19.2507H2.84684C2.91113 19.2512 2.97488 19.239 3.03443 19.2148C3.09397 19.1905 3.14813 19.1547 3.19377 19.1094C3.23941 19.0642 3.27564 19.0103 3.30036 18.951C3.32508 18.8916 3.33781 18.828 3.33781 18.7637C3.3373 18.7001 3.32414 18.6372 3.29909 18.5788C3.27404 18.5203 3.2376 18.4674 3.1919 18.4232C3.1462 18.379 3.09216 18.3443 3.03291 18.3212C2.97367 18.2981 2.91042 18.287 2.84684 18.2885H2.1579V14.6776H2.84684C2.91028 14.6776 2.97309 14.6651 3.0317 14.6408C3.0903 14.6165 3.14355 14.5809 3.18841 14.5361C3.23326 14.4912 3.26884 14.438 3.29312 14.3794C3.31739 14.3208 3.32989 14.2579 3.32989 14.1945C3.32989 14.1311 3.31739 14.0683 3.29312 14.0097C3.26884 13.951 3.23326 13.8978 3.18841 13.8529C3.14355 13.8081 3.0903 13.7725 3.0317 13.7482C2.97309 13.724 2.91028 13.7115 2.84684 13.7115H2.1579V10.1163H2.84684C2.91146 10.1168 2.97554 10.1045 3.03535 10.08C3.09515 10.0555 3.14949 10.0194 3.19518 9.97369C3.24088 9.92799 3.27702 9.87365 3.30151 9.81385C3.326 9.75404 3.33834 9.68996 3.33781 9.62534C3.3384 9.56143 3.32599 9.49807 3.30132 9.43911C3.27665 9.38015 3.24025 9.32683 3.19432 9.28238C3.14839 9.23794 3.0939 9.2033 3.03417 9.18058C2.97443 9.15786 2.9107 9.14752 2.84684 9.15021H2.1579V5.54318H2.84684C2.91028 5.54318 2.97309 5.53069 3.0317 5.50641C3.0903 5.48214 3.14355 5.44656 3.18841 5.4017C3.23326 5.35685 3.26884 5.3036 3.29312 5.24499C3.31739 5.18638 3.32989 5.12357 3.32989 5.06013C3.32989 4.9967 3.31739 4.93389 3.29312 4.87528C3.26884 4.81667 3.23326 4.76342 3.18841 4.71857C3.14355 4.67371 3.0903 4.63813 3.0317 4.61386C2.97309 4.58958 2.91028 4.57709 2.84684 4.57709H2.1579V0.977976H19.6268V27.4229Z" fill="white"/>
<path d="M22.4736 2.37573C22.3448 2.37677 22.2215 2.42841 22.1304 2.51952C22.0393 2.61063 21.9876 2.7339 21.9866 2.86274V25.5383C21.9805 25.6057 21.9885 25.6736 22.0101 25.7377C22.0317 25.8018 22.0665 25.8607 22.1121 25.9107C22.1577 25.9606 22.2133 26.0005 22.2752 26.0278C22.3371 26.0551 22.404 26.0692 22.4716 26.0692C22.5393 26.0692 22.6062 26.0551 22.6681 26.0278C22.73 26.0005 22.7855 25.9606 22.8312 25.9107C22.8768 25.8607 22.9115 25.8018 22.9331 25.7377C22.9547 25.6736 22.9628 25.6057 22.9567 25.5383V2.8469C22.9507 2.72183 22.8975 2.60367 22.8079 2.51623C22.7182 2.4288 22.5988 2.37859 22.4736 2.37573Z" fill="#09ABB6"/>
<path d="M29.4938 3.06459L29.0068 2.79139V0.791883C29.0059 0.703123 28.9812 0.616226 28.9353 0.540296C28.8893 0.464367 28.8237 0.402199 28.7455 0.360307L28.4168 0.20193C28.1537 0.0729285 27.8646 0.00585938 27.5715 0.00585938C27.2785 0.00585938 26.9893 0.0729285 26.7262 0.20193L26.3936 0.360307C26.3151 0.401865 26.2493 0.463956 26.2032 0.53996C26.1572 0.615964 26.1327 0.703033 26.1323 0.791883V2.77159L25.5581 3.08834C25.4801 3.13009 25.4149 3.19233 25.3695 3.26838C25.3242 3.34442 25.3004 3.43138 25.3008 3.51992V22.8458C25.3007 22.896 25.3101 22.9457 25.3285 22.9923V23.02L27.1142 28.0723C27.1488 28.1651 27.211 28.2452 27.2924 28.3018C27.3737 28.3584 27.4704 28.3888 27.5695 28.389C27.6103 28.3931 27.6515 28.3931 27.6923 28.389C27.7651 28.368 27.8322 28.3308 27.8884 28.28C27.9447 28.2292 27.9886 28.1663 28.0169 28.096L29.8066 23.0438V23.0161C29.825 22.9694 29.8344 22.9197 29.8343 22.8696V4.10195C30.1759 4.20379 30.4757 4.41268 30.6896 4.69782C30.9034 4.98297 31.02 5.32929 31.0221 5.68572V13.8975C31.0216 13.9615 31.0337 14.0249 31.0577 14.0842C31.0817 14.1435 31.1171 14.1975 31.162 14.2431C31.2068 14.2887 31.2602 14.325 31.3191 14.3499C31.378 14.3749 31.4412 14.388 31.5052 14.3885C31.6351 14.3875 31.7594 14.3354 31.8512 14.2436C31.9431 14.1517 31.9951 14.0274 31.9962 13.8975V5.68176C31.9939 5.00796 31.733 4.36074 31.2674 3.87372C30.8017 3.3867 30.1668 3.09706 29.4938 3.06459ZM28.8761 3.8248V16.978L28.4604 16.7483C28.1861 16.6004 27.8793 16.5229 27.5676 16.5229C27.2559 16.5229 26.949 16.6004 26.6747 16.7483L26.2788 16.978V3.8248L27.1498 3.35363C27.2853 3.28922 27.4334 3.2558 27.5834 3.2558C27.7334 3.2558 27.8815 3.28922 28.0169 3.35363L28.7059 3.72581L28.8761 3.8248ZM28.4604 21.8283C28.3283 21.7444 28.1821 21.6854 28.0288 21.654C27.5717 21.5385 27.0877 21.6007 26.6747 21.8283L26.2788 22.0421V18.0827L27.1498 17.6234C27.2811 17.5457 27.4308 17.5047 27.5834 17.5047C27.7359 17.5047 27.8857 17.5457 28.0169 17.6234L28.888 18.0827V22.0421L28.4604 21.8283ZM28.7613 23.0794L27.5735 26.4449L26.3857 23.0794L27.1498 22.6835C27.2189 22.6494 27.2904 22.6203 27.3636 22.5964C27.5304 22.5562 27.7052 22.5658 27.8665 22.6241C27.9183 22.6394 27.9687 22.6593 28.0169 22.6835L28.7613 23.0794ZM28.0447 1.0928V2.34397C27.7352 2.25687 27.4078 2.25687 27.0984 2.34397V1.0928L27.1577 1.06508C27.2872 1.00433 27.4285 0.972832 27.5715 0.972832C27.7145 0.972832 27.8558 1.00433 27.9853 1.06508L28.0447 1.0928Z" fill="white"/>
<path d="M9.21763 4.99289H14.056C14.1239 4.99901 14.1924 4.99092 14.257 4.96912C14.3216 4.94733 14.381 4.91231 14.4313 4.86631C14.4816 4.82031 14.5218 4.76433 14.5493 4.70193C14.5768 4.63954 14.591 4.57209 14.591 4.50391C14.591 4.43572 14.5768 4.36828 14.5493 4.30588C14.5218 4.24349 14.4816 4.1875 14.4313 4.1415C14.381 4.0955 14.3216 4.06049 14.257 4.03869C14.1924 4.0169 14.1239 4.0088 14.056 4.01492H9.21763C9.14972 4.0088 9.08127 4.0169 9.01666 4.03869C8.95205 4.06049 8.89269 4.0955 8.84236 4.1415C8.79202 4.1875 8.75183 4.24349 8.72432 4.30588C8.69682 4.36828 8.68262 4.43572 8.68262 4.50391C8.68262 4.57209 8.69682 4.63954 8.72432 4.70193C8.75183 4.76433 8.79202 4.82031 8.84236 4.86631C8.89269 4.91231 8.95205 4.94733 9.01666 4.96912C9.08127 4.99092 9.14972 4.99901 9.21763 4.99289Z" fill="white"/>
<path d="M6.54482 8.21585H16.7245C16.7879 8.21585 16.8507 8.20336 16.9093 8.17908C16.9679 8.15481 17.0212 8.11923 17.066 8.07437C17.1109 8.02952 17.1465 7.97627 17.1708 7.91766C17.195 7.85905 17.2075 7.79624 17.2075 7.7328C17.2075 7.66937 17.195 7.60656 17.1708 7.54795C17.1465 7.48934 17.1109 7.43609 17.066 7.39124C17.0212 7.34638 16.9679 7.3108 16.9093 7.28653C16.8507 7.26225 16.7879 7.24976 16.7245 7.24976H6.54482C6.4167 7.24976 6.29384 7.30065 6.20325 7.39124C6.11266 7.48183 6.06177 7.60469 6.06177 7.7328C6.06177 7.86092 6.11266 7.98378 6.20325 8.07437C6.29384 8.16496 6.4167 8.21585 6.54482 8.21585Z" fill="white"/>
<path d="M6.54482 11.4506H11.8782C12.0002 11.4396 12.1138 11.3834 12.1965 11.2929C12.2792 11.2024 12.3251 11.0842 12.3251 10.9616C12.3251 10.8391 12.2792 10.7209 12.1965 10.6304C12.1138 10.5399 12.0002 10.4837 11.8782 10.4727H6.54482C6.42273 10.4837 6.30917 10.5399 6.22646 10.6304C6.14376 10.7209 6.0979 10.8391 6.0979 10.9616C6.0979 11.0842 6.14376 11.2024 6.22646 11.2929C6.30917 11.3834 6.42273 11.4396 6.54482 11.4506Z" fill="white"/>
<path d="M16.7246 10.4727H14.3014C14.1793 10.4837 14.0658 10.5399 13.9831 10.6304C13.9004 10.7209 13.8545 10.8391 13.8545 10.9616C13.8545 11.0842 13.9004 11.2024 13.9831 11.2929C14.0658 11.3834 14.1793 11.4396 14.3014 11.4506H16.7246C16.8467 11.4396 16.9602 11.3834 17.0429 11.2929C17.1256 11.2024 17.1715 11.0842 17.1715 10.9616C17.1715 10.8391 17.1256 10.7209 17.0429 10.6304C16.9602 10.5399 16.8467 10.4837 16.7246 10.4727Z" fill="white"/>
<path d="M6.54482 14.6775H16.7245C16.7879 14.6775 16.8507 14.665 16.9093 14.6408C16.9679 14.6165 17.0212 14.5809 17.066 14.536C17.1109 14.4912 17.1465 14.4379 17.1708 14.3793C17.195 14.3207 17.2075 14.2579 17.2075 14.1945C17.2075 14.131 17.195 14.0682 17.1708 14.0096C17.1465 13.951 17.1109 13.8978 17.066 13.8529C17.0212 13.8081 16.9679 13.7725 16.9093 13.7482C16.8507 13.7239 16.7879 13.7114 16.7245 13.7114H6.54482C6.4167 13.7114 6.29384 13.7623 6.20325 13.8529C6.11266 13.9435 6.06177 14.0664 6.06177 14.1945C6.06177 14.3226 6.11266 14.4455 6.20325 14.536C6.29384 14.6266 6.4167 14.6775 6.54482 14.6775Z" fill="white"/>
<path d="M16.7245 16.9463H12.3692C12.3054 16.9442 12.242 16.9549 12.1825 16.9778C12.123 17.0008 12.0687 17.0354 12.0229 17.0797C11.9771 17.1241 11.9407 17.1772 11.9158 17.2359C11.8909 17.2946 11.8782 17.3577 11.8782 17.4214C11.8777 17.4852 11.8898 17.5484 11.9138 17.6075C11.9379 17.6666 11.9734 17.7203 12.0183 17.7656C12.0632 17.8108 12.1166 17.8468 12.1755 17.8713C12.2343 17.8958 12.2975 17.9084 12.3612 17.9084H16.7166C16.7812 17.9101 16.8454 17.8986 16.9054 17.8747C16.9655 17.8509 17.0201 17.8151 17.0659 17.7696C17.1118 17.7241 17.148 17.6698 17.1723 17.61C17.1967 17.5502 17.2087 17.486 17.2076 17.4214C17.2081 17.3582 17.1959 17.2955 17.1718 17.2371C17.1476 17.1787 17.1119 17.1258 17.0668 17.0814C17.0217 17.0371 16.9682 17.0023 16.9094 16.9791C16.8506 16.9559 16.7877 16.9447 16.7245 16.9463Z" fill="white"/>
<path d="M6.54491 17.9125H9.94209C10.0062 17.9125 10.0697 17.8998 10.1288 17.875C10.1879 17.8502 10.2415 17.8139 10.2865 17.7682C10.3314 17.7225 10.3669 17.6683 10.3907 17.6088C10.4145 17.5493 10.4262 17.4856 10.4251 17.4215C10.4257 17.3581 10.4135 17.2953 10.3894 17.2366C10.3652 17.178 10.3296 17.1248 10.2846 17.0802C10.2396 17.0355 10.1861 17.0003 10.1273 16.9767C10.0684 16.953 10.0055 16.9414 9.94209 16.9425H6.54491C6.4817 16.9414 6.41892 16.953 6.36031 16.9767C6.3017 17.0004 6.24846 17.0357 6.20376 17.0804C6.15905 17.1251 6.1238 17.1783 6.10011 17.2369C6.07641 17.2955 6.06475 17.3583 6.06582 17.4215C6.06424 17.4854 6.07546 17.549 6.09882 17.6085C6.12219 17.668 6.15723 17.7223 6.20187 17.768C6.24652 17.8138 6.29987 17.8501 6.35879 17.8749C6.4177 17.8998 6.48098 17.9125 6.54491 17.9125Z" fill="white"/>
<path d="M6.54483 21.1353H16.7245C16.7913 21.1413 16.8587 21.1334 16.9223 21.112C16.9859 21.0906 17.0444 21.0561 17.0939 21.0109C17.1435 20.9656 17.1831 20.9105 17.2102 20.8491C17.2372 20.7877 17.2512 20.7213 17.2512 20.6542C17.2512 20.5871 17.2372 20.5207 17.2102 20.4593C17.1831 20.3979 17.1435 20.3428 17.0939 20.2975C17.0444 20.2522 16.9859 20.2178 16.9223 20.1964C16.8587 20.175 16.7913 20.1671 16.7245 20.1731H6.54483C6.42477 20.184 6.31313 20.2394 6.23184 20.3284C6.15054 20.4174 6.10547 20.5336 6.10547 20.6542C6.10547 20.7747 6.15054 20.8909 6.23184 20.9799C6.31313 21.069 6.42477 21.1244 6.54483 21.1353Z" fill="white"/>
<path d="M6.54482 24.3741H12.3652C12.4286 24.3741 12.4914 24.3616 12.55 24.3373C12.6086 24.313 12.6619 24.2774 12.7067 24.2326C12.7516 24.1877 12.7872 24.1345 12.8114 24.0759C12.8357 24.0173 12.8482 23.9544 12.8482 23.891C12.8482 23.8276 12.8357 23.7648 12.8114 23.7062C12.7872 23.6475 12.7516 23.5943 12.7067 23.5494C12.6619 23.5046 12.6086 23.469 12.55 23.4447C12.4914 23.4205 12.4286 23.408 12.3652 23.408H6.54482C6.4167 23.408 6.29384 23.4589 6.20325 23.5494C6.11266 23.64 6.06177 23.7629 6.06177 23.891C6.06177 24.0191 6.11266 24.142 6.20325 24.2326C6.29384 24.3232 6.4167 24.3741 6.54482 24.3741Z" fill="white"/>
</g>
<defs>
<clipPath id="clip0_115_2452">
<rect width="32" height="28.389" fill="white"/>
</clipPath>
</defs>
</svg>
