<svg width="32" height="30" viewBox="0 0 32 30" fill="none" xmlns="http://www.w3.org/2000/svg">
<g clip-path="url(#clip0_115_1513)">
<path d="M28.5626 13.8891C28.4549 13.8185 28.3239 13.7927 28.1974 13.8171C28.071 13.8415 27.959 13.9142 27.8853 14.0198C27.814 14.1266 27.7876 14.2572 27.8121 14.3833C27.8366 14.5094 27.9099 14.6207 28.016 14.693C29.9368 15.9881 31.0299 17.8614 31.0299 19.8416C31.0299 21.6831 30.0952 23.4059 28.4041 24.7089C28.3483 24.7505 28.3026 24.8041 28.2704 24.8659C28.2382 24.9276 28.2203 24.9957 28.218 25.0653L28.0279 27.8376L24.9705 26.4396C24.8747 26.3927 24.7666 26.3774 24.6616 26.396C23.8816 26.5711 23.0847 26.6587 22.2853 26.6574C19.0418 26.6574 16.0834 25.2594 14.5586 23.0138C14.4851 22.9102 14.3743 22.8392 14.2495 22.8155C14.1247 22.7919 13.9956 22.8176 13.8893 22.8871C13.8359 22.9222 13.7901 22.9676 13.7545 23.0207C13.7189 23.0738 13.6943 23.1335 13.6821 23.1962C13.6699 23.2589 13.6704 23.3235 13.6836 23.386C13.6967 23.4485 13.7222 23.5078 13.7586 23.5604C15.4576 26.0673 18.7249 27.6198 22.2853 27.6198C23.0984 27.6254 23.9097 27.5431 24.7051 27.3742L28.2497 29.0178C28.3161 29.0326 28.3837 29.0418 28.4517 29.0455C28.5393 29.047 28.6261 29.028 28.7051 28.9901C28.7723 28.9472 28.8281 28.8888 28.8681 28.8199C28.908 28.751 28.9309 28.6736 28.9348 28.594L29.1645 25.3465C30.9982 23.8812 32.0002 21.9366 32.0002 19.8495C32.0002 17.5445 30.7487 15.3703 28.5626 13.8891Z" fill="#595A5B"/>
<path d="M23.018 19.7188C23.0185 19.8145 23.0002 19.9094 22.9641 19.998C22.9279 20.0866 22.8747 20.1672 22.8074 20.2353C22.7401 20.3033 22.6601 20.3574 22.5718 20.3945C22.4836 20.4316 22.389 20.451 22.2933 20.4515C22.1909 20.4553 22.0894 20.4306 22.0002 20.3802C21.8854 20.3449 21.7617 20.3529 21.6524 20.4026C21.5431 20.4524 21.4558 20.5404 21.4071 20.6501C21.3583 20.7599 21.3514 20.8837 21.3877 20.9981C21.4241 21.1126 21.5011 21.2098 21.6042 21.2713C21.8236 21.3682 22.0613 21.4168 22.3012 21.4139C22.7511 21.4139 23.1827 21.2354 23.5012 20.9176C23.8197 20.5999 23.9992 20.1687 24.0002 19.7188C24.0002 19.5896 23.9489 19.4657 23.8575 19.3744C23.7662 19.283 23.6423 19.2317 23.5131 19.2317C23.3839 19.2317 23.26 19.283 23.1686 19.3744C23.0773 19.4657 23.0259 19.5896 23.0259 19.7188H23.018Z" fill="#595A5B"/>
<path d="M25.8496 19.7188C25.8496 20.055 25.9494 20.3836 26.1362 20.6631C26.3231 20.9426 26.5887 21.1604 26.8994 21.2888C27.21 21.4173 27.5519 21.4507 27.8815 21.3849C28.2112 21.319 28.514 21.1568 28.7514 20.9188C28.9889 20.6808 29.1504 20.3777 29.2155 20.0478C29.2806 19.718 29.2464 19.3762 29.1172 19.0659C28.988 18.7555 28.7696 18.4904 28.4897 18.3042C28.2097 18.118 27.8809 18.019 27.5447 18.0198C27.3217 18.0198 27.101 18.0638 26.8951 18.1492C26.6892 18.2346 26.5021 18.3598 26.3447 18.5176C26.1872 18.6755 26.0625 18.8628 25.9775 19.0689C25.8926 19.275 25.8491 19.4959 25.8496 19.7188ZM27.5447 19.0099C27.6893 19.0091 27.8309 19.0514 27.9514 19.1313C28.0719 19.2113 28.1659 19.3253 28.2215 19.4588C28.277 19.5924 28.2915 19.7394 28.2632 19.8813C28.2349 20.0231 28.165 20.1533 28.0624 20.2553C27.9599 20.3573 27.8293 20.4264 27.6873 20.454C27.5454 20.4815 27.3984 20.4662 27.2651 20.4099C27.1319 20.3537 27.0184 20.259 26.9391 20.1381C26.8598 20.0171 26.8183 19.8753 26.8199 19.7307C26.822 19.5395 26.8991 19.3567 27.0347 19.2219C27.1703 19.0871 27.3535 19.0109 27.5447 19.0099Z" fill="#595A5B"/>
<path d="M27.1842 10.8792C27.1842 4.87921 21.0931 0 13.5921 0C6.09109 0 0 4.87921 0 10.8792C0 13.802 1.42574 16.5386 4.01584 18.6139L4.34059 23.3663C4.346 23.4464 4.37037 23.5241 4.41168 23.593C4.453 23.6618 4.51007 23.7199 4.57822 23.7624C4.6521 23.8079 4.73697 23.8326 4.82376 23.8337C4.89537 23.8288 4.96533 23.8099 5.0297 23.7782L10.1386 21.3861C11.2754 21.616 12.4323 21.7314 13.5921 21.7307C21.0931 21.7465 27.1842 16.8832 27.1842 10.8792ZM13.5921 20.7802C12.4486 20.7765 11.3085 20.6544 10.1901 20.4158C10.0866 20.3899 9.97727 20.4011 9.88119 20.4475L5.25941 22.5743L4.97426 18.3287C4.96899 18.2588 4.9494 18.1907 4.91669 18.1287C4.88399 18.0667 4.83887 18.0121 4.78416 17.9683C2.32475 16.0752 0.970297 13.5564 0.970297 10.8792C0.970297 5.4099 6.63366 0.978218 13.5921 0.978218C20.5505 0.978218 26.2218 5.42574 26.2218 10.8792C26.2218 16.3327 20.5505 20.7842 13.5921 20.7842V20.7802Z" fill="#595A5B"/>
<path d="M13.592 9.25539C13.2072 9.25539 12.8311 9.36953 12.5113 9.58338C12.1914 9.79723 11.9422 10.1012 11.7951 10.4567C11.648 10.8123 11.6098 11.2034 11.6851 11.5808C11.7605 11.9581 11.9461 12.3046 12.2184 12.5763C12.4908 12.8481 12.8376 13.033 13.2151 13.1076C13.5926 13.1822 13.9837 13.1431 14.3389 12.9953C14.6942 12.8476 14.9976 12.5977 15.2108 12.2774C15.424 11.9571 15.5374 11.5807 15.5366 11.196C15.5371 10.9407 15.4871 10.6878 15.3895 10.4518C15.292 10.2159 15.1487 10.0016 14.9679 9.8212C14.7872 9.64084 14.5726 9.49801 14.3365 9.4009C14.1003 9.3038 13.8473 9.25434 13.592 9.25539ZM13.592 12.1623C13.4012 12.1608 13.2152 12.1028 13.0573 11.9956C12.8995 11.8885 12.7768 11.737 12.7049 11.5603C12.633 11.3836 12.615 11.1896 12.6531 11.0026C12.6913 10.8157 12.784 10.6443 12.9194 10.5099C13.0549 10.3756 13.2271 10.2843 13.4143 10.2477C13.6015 10.211 13.7954 10.2306 13.9715 10.304C14.1477 10.3774 14.2981 10.5012 14.4039 10.6599C14.5098 10.8187 14.5663 11.0052 14.5663 11.196C14.5658 11.3234 14.5401 11.4495 14.4909 11.567C14.4417 11.6845 14.3697 11.7912 14.2793 11.8809C14.1888 11.9707 14.0816 12.0417 13.9636 12.09C13.8457 12.1383 13.7194 12.1628 13.592 12.1623Z" fill="#595A5B"/>
<path d="M7.28732 9.25541C6.90256 9.25541 6.52644 9.36955 6.20658 9.5834C5.88671 9.79725 5.63748 10.1012 5.49041 10.4567C5.34335 10.8123 5.30508 11.2035 5.38043 11.5808C5.45578 11.9581 5.64138 12.3046 5.91372 12.5764C6.18607 12.8482 6.53293 13.033 6.91039 13.1076C7.28786 13.1822 7.67897 13.1431 8.03422 12.9954C8.38947 12.8476 8.6929 12.5977 8.90609 12.2774C9.11928 11.9571 9.23266 11.5808 9.23188 11.196C9.23293 10.9405 9.18332 10.6874 9.08592 10.4512C8.98852 10.215 8.84526 10.0005 8.66443 9.82005C8.4836 9.63958 8.26879 9.49676 8.03241 9.39984C7.79604 9.30293 7.54279 9.25384 7.28732 9.25541ZM7.28732 12.1623C7.09655 12.1608 6.9105 12.1028 6.75263 11.9956C6.59476 11.8885 6.47214 11.7371 6.40021 11.5603C6.32829 11.3836 6.31028 11.1896 6.34845 11.0027C6.38663 10.8157 6.47928 10.6443 6.61474 10.5099C6.75019 10.3756 6.92239 10.2843 7.10962 10.2477C7.29685 10.211 7.49074 10.2306 7.66685 10.304C7.84297 10.3774 7.99342 10.5012 8.09926 10.66C8.2051 10.8187 8.26158 11.0052 8.26158 11.196C8.26106 11.3234 8.23545 11.4495 8.18621 11.567C8.13697 11.6845 8.06506 11.7912 7.97459 11.8809C7.88412 11.9707 7.77687 12.0417 7.65894 12.09C7.54102 12.1383 7.41475 12.1629 7.28732 12.1623Z" fill="#595A5B"/>
<path d="M19.8968 9.25539C19.5117 9.25382 19.1348 9.36663 18.8139 9.57952C18.493 9.79241 18.2425 10.0958 18.0943 10.4512C17.946 10.8066 17.9066 11.1981 17.981 11.5759C18.0555 11.9537 18.2405 12.3009 18.5125 12.5735C18.7845 12.8461 19.1314 13.0318 19.509 13.107C19.8867 13.1822 20.2782 13.1436 20.6339 12.9961C20.9897 12.8485 21.2936 12.5987 21.5071 12.2782C21.7206 11.9577 21.8342 11.5811 21.8334 11.196C21.8345 10.9412 21.7851 10.6887 21.6882 10.453C21.5913 10.2174 21.4488 10.0032 21.2688 9.82285C21.0888 9.64249 20.8749 9.4995 20.6395 9.40212C20.404 9.30473 20.1516 9.25486 19.8968 9.25539ZM19.8968 12.1623C19.7059 12.1615 19.5194 12.1042 19.361 11.9975C19.2026 11.8909 19.0794 11.7397 19.0069 11.563C18.9343 11.3864 18.9158 11.1922 18.9535 11.005C18.9912 10.8179 19.0836 10.646 19.2189 10.5113C19.3542 10.3765 19.5264 10.2849 19.7137 10.2479C19.901 10.211 20.0951 10.2303 20.2715 10.3036C20.4478 10.3768 20.5985 10.5007 20.7045 10.6595C20.8105 10.8184 20.8671 11.005 20.8671 11.196C20.8661 11.4526 20.7634 11.6984 20.5815 11.8795C20.3997 12.0606 20.1535 12.1623 19.8968 12.1623Z" fill="#595A5B"/>
</g>
<defs>
<clipPath id="clip0_115_1513">
<rect width="32" height="29.0574" fill="white"/>
</clipPath>
</defs>
</svg>
