<svg width="32" height="31" viewBox="0 0 32 31" fill="none" xmlns="http://www.w3.org/2000/svg">
<g clip-path="url(#clip0_115_2502)">
<path d="M13.0104 7.75498H15.5318V5.23359C15.5282 4.74002 15.3788 4.25852 15.1024 3.84962C14.8259 3.44071 14.4348 3.12264 13.9781 2.93541C13.5214 2.74817 13.0196 2.70011 12.5356 2.79728C12.0517 2.89445 11.6073 3.1325 11.2583 3.48151C10.9093 3.83053 10.6712 4.27493 10.5741 4.75885C10.4769 5.24278 10.525 5.74462 10.7122 6.20131C10.8994 6.658 11.2175 7.04915 11.6264 7.32559C12.0353 7.60203 12.5168 7.75142 13.0104 7.75498Z" fill="#09ABB6"/>
<path d="M17.819 29.1003H29.086C29.1505 29.1008 29.2144 29.0885 29.2741 29.064C29.3337 29.0396 29.3879 29.0035 29.4335 28.9579C29.4791 28.9123 29.5151 28.8582 29.5396 28.7985C29.564 28.7389 29.5764 28.6749 29.5759 28.6105V13.583H17.819V29.1003Z" fill="#09ABB6"/>
<path d="M22.6241 7.75501V7.7334L22.5989 7.75501H22.6241Z" fill="#09ABB6"/>
<path d="M14.1846 13.583H2.42413V28.6105C2.42317 28.6745 2.43495 28.738 2.45878 28.7974C2.48261 28.8568 2.51801 28.9108 2.56292 28.9564C2.60784 29.002 2.66137 29.0382 2.7204 29.0629C2.77944 29.0876 2.8428 29.1003 2.90679 29.1003H14.1846V13.583Z" fill="#09ABB6"/>
<path d="M19.8757 0.979584C18.9765 0.980539 18.1143 1.33844 17.4788 1.97466C16.8433 2.61088 16.4863 3.47338 16.4863 4.37265V7.75491H19.8757C20.3299 7.76972 20.7824 7.69306 21.2064 7.52948C21.6303 7.3659 22.017 7.11874 22.3435 6.80271C22.6701 6.48667 22.9297 6.10821 23.107 5.68982C23.2843 5.27143 23.3757 4.82166 23.3757 4.36725C23.3757 3.91284 23.2843 3.46307 23.107 3.04468C22.9297 2.62629 22.6701 2.24782 22.3435 1.93179C22.017 1.61575 21.6303 1.3686 21.2064 1.20502C20.7824 1.04144 20.3299 0.964773 19.8757 0.979584Z" fill="#09ABB6"/>
<path d="M1.4408 12.607H14.1846V8.73486H1.4408C1.31088 8.73486 1.18628 8.78647 1.09441 8.87834C1.00254 8.97021 0.950928 9.09481 0.950928 9.22473V12.1063L1.15624 12.5205C1.23984 12.5782 1.33928 12.6084 1.4408 12.607Z" fill="#09ABB6"/>
<path d="M16.8465 13.583H15.15V29.0967H16.8465V13.583Z" fill="#09ABB6"/>
<path d="M16.8465 8.73486H15.9964H15.15V12.607H16.8465V8.73486Z" fill="#09ABB6"/>
<path d="M30.5484 12.6069C30.6121 12.6065 30.6751 12.5934 30.7337 12.5685C30.7923 12.5436 30.8454 12.5073 30.89 12.4617C30.9345 12.4162 30.9696 12.3623 30.9932 12.3031C31.0168 12.244 31.0284 12.1807 31.0275 12.1171V9.23547C31.0284 9.17179 31.0168 9.10854 30.9932 9.04939C30.9696 8.99023 30.9345 8.93633 30.89 8.89079C30.8454 8.84525 30.7923 8.80898 30.7337 8.78406C30.6751 8.75914 30.6121 8.74607 30.5484 8.74561H17.819V12.6069H30.5484Z" fill="#09ABB6"/>
<path d="M30.5484 7.75503H22.6241L22.6493 7.73342C23.1741 7.30117 23.5906 6.75223 23.8656 6.1304C24.1405 5.50857 24.2663 4.83108 24.2329 4.152C24.1995 3.47292 24.0078 2.81105 23.6731 2.21922C23.3384 1.62739 22.87 1.122 22.3053 0.743368C21.7406 0.364739 21.0952 0.123362 20.4206 0.0385032C19.746 -0.0463556 19.0609 0.0276535 18.42 0.254623C17.7791 0.481593 17.2001 0.855239 16.7293 1.34574C16.2585 1.83624 15.9088 2.43001 15.7083 3.07965C15.4103 2.71139 15.04 2.40807 14.6203 2.1884C14.2005 1.96872 13.7403 1.83735 13.2678 1.80238C12.7954 1.76742 12.3208 1.8296 11.8733 1.98508C11.4258 2.14057 11.0149 2.38608 10.6659 2.70646C10.317 3.02684 10.0373 3.41531 9.84425 3.84791C9.65118 4.28051 9.54876 4.74808 9.54331 5.22178C9.53787 5.69548 9.62952 6.16528 9.81261 6.6022C9.99569 7.03913 10.2663 7.43392 10.6079 7.76223H1.44081C1.05546 7.76792 0.687941 7.92549 0.418141 8.20069C0.148342 8.47588 -0.00192192 8.84646 1.85632e-05 9.23184V12.1134C-0.0019122 12.4985 0.148466 12.8687 0.418365 13.1433C0.688264 13.4179 1.05579 13.5747 1.44081 13.5794V28.6105C1.44081 28.9926 1.59261 29.3591 1.86281 29.6293C2.13301 29.8995 2.49948 30.0513 2.8816 30.0513H29.086C29.277 30.0542 29.4667 30.019 29.644 29.9479C29.8213 29.8768 29.9827 29.7711 30.1188 29.637C30.2549 29.5029 30.363 29.3431 30.4367 29.1669C30.5105 28.9907 30.5484 28.8015 30.5484 28.6105V13.583C30.9328 13.5764 31.2993 13.4191 31.5688 13.1448C31.8383 12.8706 31.9893 12.5015 31.9892 12.117V9.23544C31.9931 8.84847 31.8438 8.47568 31.5739 8.19835C31.304 7.92102 30.9353 7.76166 30.5484 7.75503ZM29.5759 28.6105C29.5764 28.675 29.564 28.7389 29.5396 28.7985C29.5151 28.8582 29.4791 28.9124 29.4335 28.958C29.3879 29.0035 29.3337 29.0396 29.274 29.0641C29.2144 29.0885 29.1505 29.1008 29.086 29.1004H17.819V13.583H29.5759V28.6105ZM2.42415 28.6105V13.583H14.1846V29.1004H2.90682C2.84282 29.1004 2.77946 29.0877 2.72043 29.063C2.6614 29.0382 2.60786 29.002 2.56295 28.9565C2.51803 28.9109 2.48263 28.8568 2.4588 28.7974C2.43498 28.738 2.4232 28.6745 2.42415 28.6105ZM10.507 5.25165C10.507 4.58771 10.7707 3.95097 11.2402 3.48149C11.7097 3.01202 12.3464 2.74827 13.0104 2.74827C13.6743 2.74827 14.3111 3.01202 14.7805 3.48149C15.25 3.95097 15.5138 4.58771 15.5138 5.25165V7.77304H12.9924C12.3299 7.76357 11.6978 7.49375 11.2327 7.02192C10.7676 6.55009 10.5069 5.91417 10.507 5.25165ZM15.15 12.6069V8.73477H16.8465V12.6069H15.15ZM16.8465 13.583V29.1004H15.15V13.583H16.8465ZM17.819 12.6069V8.73477H30.5484C30.6121 8.73523 30.6751 8.7483 30.7337 8.77322C30.7923 8.79814 30.8454 8.83441 30.8899 8.87995C30.9345 8.92549 30.9696 8.97939 30.9932 9.03855C31.0168 9.0977 31.0284 9.16095 31.0275 9.22464V12.1062C31.0299 12.1708 31.0193 12.2352 30.9964 12.2956C30.9734 12.356 30.9386 12.4112 30.8939 12.4579C30.8492 12.5046 30.7956 12.5419 30.7363 12.5675C30.6769 12.593 30.613 12.6065 30.5484 12.6069H17.819ZM19.8757 7.75503H16.4863V4.37277C16.4841 3.70107 16.6814 3.04385 17.0531 2.48437C17.4248 1.92488 17.9542 1.48831 18.5742 1.22994C19.1942 0.971577 19.877 0.90305 20.536 1.03304C21.195 1.16303 21.8006 1.48569 22.276 1.96015C22.7515 2.43461 23.0755 3.03951 23.2069 3.69823C23.3382 4.35695 23.2712 5.03985 23.0141 5.66042C22.7571 6.28099 22.3216 6.81131 21.7629 7.18419C21.2042 7.55707 20.5474 7.75574 19.8757 7.75503ZM0.965349 12.117V9.23544C0.962441 9.10612 1.0108 8.9809 1.09988 8.8871C1.18895 8.7933 1.31151 8.73854 1.44081 8.73477H14.1846V12.6069H1.44081C1.33851 12.6062 1.239 12.5734 1.15625 12.5132C1.09532 12.467 1.04624 12.407 1.01305 12.3381C0.979859 12.2693 0.96351 12.1935 0.965349 12.117Z" fill="white"/>
</g>
<defs>
<clipPath id="clip0_115_2502">
<rect width="32" height="30.0621" fill="white"/>
</clipPath>
</defs>
</svg>
