<svg width="32" height="31" viewBox="0 0 32 31" fill="none" xmlns="http://www.w3.org/2000/svg">
<g clip-path="url(#clip0_115_1502)">
<path d="M30.5476 7.7545H22.6252C23.1654 7.32754 23.5974 6.77917 23.886 6.15392C24.1746 5.52868 24.3117 4.84418 24.2861 4.15603C24.2605 3.46787 24.073 2.79545 23.7387 2.19336C23.4045 1.59128 22.933 1.07651 22.3625 0.690846C21.792 0.305186 21.1385 0.0595122 20.4553 -0.0262274C19.772 -0.111967 19.0781 -0.0353548 18.43 0.197388C17.7819 0.430131 17.1978 0.812443 16.7252 1.31328C16.2526 1.81412 15.9047 2.41936 15.7099 3.07986C15.2589 2.51919 14.6448 2.11258 13.9525 1.91629C13.2602 1.72 12.5241 1.74374 11.8459 1.98423C11.1677 2.22471 10.5811 2.67005 10.1671 3.25861C9.7532 3.84717 9.53244 4.54984 9.53541 5.26939C9.53319 5.7379 9.62728 6.20187 9.81184 6.6325C9.9964 7.06313 10.2675 7.45125 10.6083 7.77275H1.45969C1.07255 7.77275 0.701277 7.92654 0.427533 8.20028C0.153788 8.47403 0 8.84531 0 9.23244L0 12.1153C0 12.5025 0.153788 12.8737 0.427533 13.1475C0.701277 13.4212 1.07255 13.575 1.45969 13.575V28.6098C1.45969 28.9969 1.61348 29.3682 1.88722 29.6419C2.16096 29.9157 2.53224 30.0695 2.91937 30.0695H29.0879C29.4751 30.0695 29.8463 29.9157 30.1201 29.6419C30.3938 29.3682 30.5476 28.9969 30.5476 28.6098V13.586C30.9347 13.586 31.306 13.4322 31.5798 13.1584C31.8535 12.8847 32.0073 12.5134 32.0073 12.1263V9.22514C32.0087 9.03253 31.9721 8.84154 31.8993 8.66318C31.8266 8.48482 31.7193 8.32261 31.5837 8.1859C31.448 8.04919 31.2866 7.94069 31.1087 7.86665C30.9309 7.79261 30.7402 7.7545 30.5476 7.7545ZM16.4872 4.37898C16.4843 3.70698 16.681 3.04926 17.0523 2.48916C17.4236 1.92906 17.9528 1.4918 18.5729 1.2328C19.193 0.973803 19.876 0.904721 20.5354 1.03431C21.1948 1.16391 21.8008 1.48634 22.2768 1.96075C22.7527 2.43515 23.0771 3.04018 23.2088 3.69914C23.3406 4.3581 23.2737 5.04134 23.0167 5.66226C22.7597 6.28318 22.3242 6.81382 21.7653 7.18695C21.2064 7.56007 20.5493 7.75887 19.8773 7.75815H16.4872V4.37898ZM16.8521 12.6116H15.1479V8.73614H16.8448L16.8521 12.6116ZM10.5061 5.25114C10.5308 4.60327 10.8056 3.99017 11.2727 3.54055C11.7398 3.09093 12.3629 2.83976 13.0113 2.83976C13.6596 2.83976 14.2828 3.09093 14.7499 3.54055C15.217 3.99017 15.4917 4.60327 15.5165 5.25114V7.7545H13.0095C12.3455 7.7545 11.7088 7.49076 11.2393 7.02129C10.7698 6.55182 10.5061 5.91507 10.5061 5.25114V5.25114ZM0.967043 12.1153V9.22514C0.967041 9.16062 0.979809 9.09673 1.00461 9.03716C1.02941 8.9776 1.06576 8.92353 1.11155 8.87807C1.15735 8.83262 1.21169 8.79667 1.27144 8.77232C1.33119 8.74796 1.39517 8.73566 1.45969 8.73614H14.1845V12.608H1.45969C1.39486 12.6085 1.33058 12.596 1.27059 12.5715C1.2106 12.5469 1.1561 12.5106 1.11025 12.4648C1.06441 12.4189 1.02814 12.3644 1.00355 12.3044C0.978968 12.2444 0.966557 12.1802 0.967043 12.1153ZM2.42673 28.6098V13.586H14.1845V29.0988H2.91937C2.85458 29.1003 2.79016 29.0887 2.72996 29.0647C2.66976 29.0406 2.61502 29.0047 2.56903 28.9591C2.52303 28.9134 2.48672 28.859 2.46227 28.7989C2.43782 28.7389 2.42573 28.6746 2.42673 28.6098ZM15.1479 29.0988V13.586H16.8448V29.0988H15.1479ZM29.5769 28.6098C29.5774 28.6741 29.5651 28.7379 29.5407 28.7975C29.5163 28.857 29.4803 28.9111 29.4348 28.9566C29.3893 29.0021 29.3352 29.0381 29.2756 29.0626C29.2161 29.087 29.1523 29.0993 29.0879 29.0988H17.8191V13.586H29.5769V28.6098ZM31.0366 12.1153C31.0376 12.1794 31.0258 12.243 31.0021 12.3025C30.9784 12.3619 30.9431 12.4162 30.8983 12.4619C30.8536 12.5077 30.8002 12.5442 30.7412 12.5693C30.6823 12.5943 30.619 12.6075 30.5549 12.608H17.8191V8.73614H30.5476C30.6747 8.73902 30.7956 8.79204 30.8837 8.88364C30.9719 8.97525 31.0203 9.098 31.0184 9.22514L31.0366 12.1153Z" fill="#595A5B"/>
</g>
<defs>
<clipPath id="clip0_115_1502">
<rect width="32" height="30.0659" fill="white"/>
</clipPath>
</defs>
</svg>
