<svg width="32" height="44" viewBox="0 0 32 44" fill="none" xmlns="http://www.w3.org/2000/svg">
<g clip-path="url(#clip0_115_2474)">
<path d="M12.5471 43.5226L8.38834 37.5984L2.87012 38.9343L6.50959 27.9026L16.6019 31.2305L12.5471 43.5226Z" fill="#09ABB6"/>
<path d="M19.5662 43.5226L23.758 38.9768L29.0496 39.2695L25.6037 27.9026L15.5066 31.2305L19.5662 43.5226Z" fill="#09ABB6"/>
<path d="M6.87297 28.8608L6.82104 29.0119L7.11843 29.2385C7.05728 29.1003 6.97441 28.9728 6.87297 28.8608Z" fill="#09ABB6"/>
<path d="M11.8813 31.528C12.3534 31.646 12.8254 31.7404 13.2975 31.816C13.0957 31.6697 12.8649 31.5683 12.6206 31.5187C12.3763 31.469 12.1243 31.4722 11.8813 31.528Z" fill="#09ABB6"/>
<path d="M26.3449 28.3227C26.3779 28.3227 26.4015 28.2708 26.4346 28.2424H26.3213L26.3449 28.3227Z" fill="#09ABB6"/>
<path d="M28.0961 25.0184L28.0394 24.3765C27.9921 23.8334 28.092 23.2877 28.3288 22.7967C28.5655 22.3057 28.9303 21.8877 29.3848 21.5867L29.9135 21.2421C30.2792 21.0004 30.5374 20.6269 30.6341 20.1993C30.7309 19.7718 30.6587 19.3235 30.4327 18.9479L30.1117 18.4098C29.8292 17.9436 29.6799 17.4089 29.6799 16.8638C29.6799 16.3188 29.8292 15.7841 30.1117 15.3179L30.4327 14.7798C30.6587 14.4042 30.7309 13.9558 30.6341 13.5283C30.5374 13.1008 30.2792 12.7272 29.9135 12.4856L29.3848 12.1457C28.93 11.8439 28.565 11.4251 28.3282 10.9333C28.0915 10.4415 27.9917 9.89496 28.0394 9.35123L28.0961 8.71397C28.1244 8.41159 28.0672 8.10734 27.9309 7.83596C27.8837 7.75571 27.8364 7.67074 27.7892 7.59522C27.6547 7.40393 27.4829 7.24178 27.2842 7.11848C27.0855 6.99519 26.8639 6.9133 26.6327 6.87771L26.0144 6.79746C25.477 6.72476 24.9692 6.50832 24.5447 6.17099C24.1201 5.83367 23.7945 5.38797 23.6022 4.88095L23.3851 4.30506C23.2288 3.8918 22.9173 3.55591 22.517 3.36898C22.1166 3.18204 21.6591 3.15884 21.242 3.30432L20.6425 3.50258C20.1225 3.66743 19.5678 3.68957 19.0363 3.56667C18.5049 3.44377 18.0162 3.18035 17.6214 2.80395L17.1493 2.36495C16.8309 2.06246 16.4084 1.8938 15.9692 1.8938C15.53 1.8938 15.1075 2.06246 14.7891 2.36495L14.3171 2.80395C13.923 3.17045 13.4392 3.42633 12.9144 3.5457C12.3897 3.66507 11.8428 3.64368 11.329 3.4837L10.7531 3.30432C10.3385 3.16747 9.88688 3.19737 9.49391 3.38768C9.10095 3.578 8.79749 3.91378 8.64778 4.32394L8.41648 4.89983C8.2271 5.41222 7.90152 5.86322 7.4748 6.20426C7.04808 6.5453 6.5364 6.76346 5.99488 6.83522L5.3765 6.91547C5.09404 6.96122 4.82682 7.07458 4.59763 7.2459C4.40409 7.47721 4.21999 7.71795 4.04533 7.94925C3.9327 8.2009 3.88561 8.47697 3.90844 8.75173L3.9698 9.38899C4.01652 9.9326 3.9163 10.4788 3.67963 10.9704C3.44296 11.462 3.07854 11.881 2.62447 12.1835L2.09578 12.5234C1.83488 12.6953 1.62594 12.9352 1.49156 13.2173C1.43492 13.4439 1.38299 13.6704 1.33579 13.897C1.32525 14.2192 1.40891 14.5375 1.57653 14.8128L1.88808 15.3368C2.1625 15.8023 2.30723 16.3329 2.30723 16.8733C2.30723 17.4137 2.1625 17.9442 1.88808 18.4098L1.57181 18.9479C1.34505 19.3237 1.27294 19.7729 1.37067 20.2008C1.4684 20.6287 1.72835 21.002 2.09578 21.2421L2.62447 21.5819C3.07816 21.8837 3.44239 22.3019 3.67907 22.7927C3.91574 23.2834 4.01616 23.8288 3.9698 24.3717L3.90844 25.0184C3.87177 25.4537 4.00365 25.8864 4.27685 26.2273C4.55004 26.5681 4.94369 26.791 5.3765 26.85L5.99488 26.9302C6.5364 27.002 7.04808 27.2201 7.4748 27.5612C7.90152 27.9022 8.2271 28.3532 8.41648 28.8656L8.64778 29.4462C8.79675 29.8576 9.09909 30.1955 9.4915 30.3891C9.88391 30.5826 10.336 30.6169 10.7531 30.4847L11.329 30.3006C11.6307 30.1877 11.9511 30.1333 12.2731 30.1401C13.0497 30.1424 13.7961 30.4413 14.3595 30.9757L14.8316 31.4147C15.15 31.7171 15.5725 31.8858 16.0117 31.8858C16.4509 31.8858 16.8734 31.7171 17.1918 31.4147L17.6639 30.9757C18.0583 30.5989 18.5482 30.3369 19.0805 30.218C19.6129 30.099 20.1676 30.1276 20.685 30.3006L21.2845 30.4989C21.703 30.6232 22.1529 30.5854 22.5448 30.3929C22.9367 30.2005 23.2417 29.8676 23.3992 29.4604L23.6022 28.8798C23.7928 28.3673 24.1194 27.9164 24.5468 27.5755C24.9743 27.2345 25.4865 27.0163 26.0285 26.9444L26.6469 26.8641C27.0799 26.8029 27.4725 26.5767 27.7426 26.2327C28.0127 25.8887 28.1394 25.4536 28.0961 25.0184ZM15.9692 5.91945H16.007C17.433 5.91972 18.8454 6.19708 20.1657 6.73609C20.3131 6.79129 20.4362 6.89694 20.513 7.03427C20.5899 7.17161 20.6157 7.33175 20.5857 7.48625C20.5557 7.64076 20.4719 7.77964 20.3492 7.87823C20.2265 7.97682 20.0729 8.02874 19.9155 8.02478C19.8269 8.02472 19.7396 8.00369 19.6606 7.96341C18.5015 7.48719 17.2601 7.2434 16.007 7.2459C15.9182 7.24841 15.8297 7.23324 15.7468 7.20127C15.6639 7.16931 15.5882 7.12117 15.5241 7.05968C15.46 6.99819 15.4087 6.92456 15.3733 6.84307C15.3379 6.76159 15.319 6.67388 15.3178 6.58504C15.3159 6.49831 15.3314 6.41208 15.3633 6.3314C15.3951 6.25072 15.4428 6.17723 15.5035 6.11523C15.5642 6.05323 15.6366 6.00398 15.7166 5.97036C15.7966 5.93674 15.8825 5.91943 15.9692 5.91945ZM8.22766 9.15297C9.24587 8.12203 10.4611 7.30651 11.801 6.75498C11.9639 6.68895 12.1463 6.68956 12.3087 6.75666C12.4712 6.82376 12.6008 6.95199 12.6696 7.11373C12.7025 7.19596 12.7183 7.28403 12.716 7.37255C12.7137 7.46108 12.6933 7.54822 12.6562 7.62862C12.6191 7.70903 12.566 7.78103 12.5001 7.84022C12.4343 7.8994 12.357 7.94453 12.2731 7.97285C11.1043 8.46611 10.044 9.18471 9.15287 10.0876C9.02388 10.205 8.8552 10.2691 8.68082 10.267C8.50602 10.2715 8.33645 10.2071 8.20878 10.0876C8.14805 10.0253 8.10032 9.95159 8.06836 9.87068C8.03639 9.78977 8.02084 9.70332 8.0226 9.61634C8.02435 9.52937 8.04339 9.44361 8.07859 9.36406C8.1138 9.28451 8.16447 9.21276 8.22766 9.15297ZM5.03663 16.9134C5.03599 15.4781 5.31331 14.0562 5.85327 12.7264C5.87764 12.6355 5.92099 12.5509 5.98044 12.4781C6.0399 12.4052 6.11412 12.3458 6.19821 12.3037C6.2823 12.2616 6.37436 12.2378 6.46831 12.2339C6.56227 12.2299 6.65599 12.246 6.7433 12.2809C6.83061 12.3158 6.90953 12.3688 6.97486 12.4365C7.04018 12.5041 7.09044 12.5848 7.12231 12.6733C7.15417 12.7618 7.16693 12.856 7.15974 12.9498C7.15255 13.0435 7.12557 13.1347 7.08059 13.2173C6.60301 14.3809 6.3592 15.6272 6.36308 16.8851C6.3606 17.0612 6.28888 17.2293 6.16344 17.353C6.038 17.4766 5.86893 17.546 5.69277 17.5459C5.52205 17.5485 5.35726 17.4834 5.23434 17.3649C5.11142 17.2464 5.04035 17.0841 5.03663 16.9134ZM9.19535 24.6502C9.06978 24.7758 8.90083 24.8485 8.72331 24.8532C8.5462 24.8466 8.3779 24.7742 8.25126 24.6502C7.23922 23.6333 6.43723 22.4271 5.89103 21.1005C5.82462 20.9362 5.82496 20.7525 5.89197 20.5885C5.95898 20.4245 6.08737 20.2932 6.24979 20.2224C6.40799 20.1665 6.58148 20.1724 6.73554 20.2389C6.88959 20.3054 7.01283 20.4277 7.08059 20.5812C7.56672 21.7534 8.27889 22.8185 9.17647 23.7156C9.23966 23.7754 9.29034 23.8471 9.32554 23.9267C9.36074 24.0062 9.37978 24.092 9.38154 24.179C9.38329 24.2659 9.36774 24.3524 9.33578 24.4333C9.30381 24.5142 9.25608 24.5879 9.19535 24.6502ZM16.0164 27.8507C14.5698 27.8641 13.1356 27.5831 11.801 27.0246C11.7194 26.9911 11.6452 26.9416 11.5829 26.8792C11.5205 26.8167 11.4712 26.7424 11.4379 26.6607C11.4045 26.579 11.3877 26.4915 11.3884 26.4032C11.3892 26.315 11.4075 26.2277 11.4423 26.1466C11.5139 25.9873 11.6438 25.8613 11.8053 25.7946C11.9668 25.7279 12.1476 25.7255 12.3109 25.7879C13.4732 26.2833 14.7246 26.5355 15.9881 26.529C16.1556 26.5431 16.3116 26.6195 16.4253 26.7433C16.5391 26.867 16.6022 27.0289 16.6022 27.1969C16.6022 27.365 16.5391 27.5269 16.4253 27.6506C16.3116 27.7743 16.1556 27.8508 15.9881 27.8649L16.0164 27.8507ZM18.3342 22.7432L16.1297 21.5867C16.0924 21.5627 16.049 21.5499 16.0046 21.5499C15.9603 21.5499 15.9168 21.5627 15.8795 21.5867L13.6892 22.7573C13.4228 22.8982 13.1215 22.9597 12.8212 22.9346C12.5208 22.9095 12.234 22.7988 11.9946 22.6157C11.7464 22.4479 11.5518 22.2123 11.4338 21.9369C11.3158 21.6616 11.2794 21.3581 11.329 21.0627L11.7491 18.608C11.7607 18.5645 11.7592 18.5185 11.745 18.4757C11.7307 18.4329 11.7043 18.3952 11.6689 18.3673L9.91286 16.6302C9.69591 16.4214 9.54328 16.1549 9.47301 15.8621C9.40274 15.5693 9.41778 15.2625 9.51635 14.978C9.6038 14.6935 9.77142 14.4402 9.99914 14.2485C10.2269 14.0567 10.505 13.9347 10.8003 13.897L13.2644 13.543C13.3092 13.5328 13.3511 13.5126 13.387 13.484C13.423 13.4554 13.452 13.4191 13.4721 13.3778L14.5814 11.145C14.7115 10.8755 14.9149 10.6482 15.1683 10.4891C15.4217 10.3301 15.7148 10.2457 16.0141 10.2457C16.3133 10.2457 16.6064 10.3301 16.8598 10.4891C17.1132 10.6482 17.3167 10.8755 17.4467 11.145L18.5513 13.3778C18.5706 13.4179 18.5983 13.4534 18.6325 13.4819C18.6667 13.5104 18.7066 13.5312 18.7496 13.543L21.2231 13.897C21.518 13.9372 21.7956 14.06 22.0236 14.2513C22.2517 14.4426 22.4209 14.6946 22.5118 14.978C22.6069 15.2629 22.6202 15.5688 22.5501 15.8609C22.48 16.1529 22.3293 16.4195 22.1152 16.6302L20.2979 18.3673C20.2634 18.396 20.2376 18.4337 20.2235 18.4762C20.2093 18.5188 20.2073 18.5644 20.2176 18.608L20.6377 21.0627C20.6892 21.3553 20.6566 21.6565 20.5438 21.9314C20.431 22.2063 20.2426 22.4435 20.0005 22.6157C19.7316 22.8272 19.3985 22.9404 19.0564 22.9367C18.8053 22.9315 18.5585 22.8702 18.3342 22.7573V22.7432ZM23.758 24.6314C22.7486 25.6608 21.541 26.4749 20.2082 27.0246C20.1271 27.05 20.0429 27.0643 19.958 27.0671C19.8299 27.063 19.7056 27.0233 19.5988 26.9524C19.4921 26.8815 19.4072 26.7823 19.3538 26.6659C19.3196 26.5847 19.3018 26.4975 19.3014 26.4095C19.3009 26.3214 19.3179 26.2341 19.3512 26.1525C19.3845 26.071 19.4336 25.9968 19.4956 25.9342C19.5576 25.8717 19.6313 25.8219 19.7125 25.7879C20.8836 25.3073 21.945 24.5943 22.8328 23.692C22.8946 23.6298 22.9682 23.5804 23.0492 23.5467C23.1302 23.513 23.2171 23.4956 23.3048 23.4956C23.3925 23.4956 23.4794 23.513 23.5604 23.5467C23.6414 23.5804 23.715 23.6298 23.7769 23.692C23.8395 23.7537 23.8889 23.8275 23.9221 23.909C23.9552 23.9904 23.9714 24.0778 23.9696 24.1657C23.9679 24.2537 23.9482 24.3403 23.9118 24.4204C23.8754 24.5004 23.8231 24.5722 23.758 24.6314ZM22.8139 10.031C22.7524 9.97115 22.7035 9.89959 22.6701 9.82054C22.6367 9.74149 22.6195 9.65655 22.6195 9.57073C22.6195 9.48491 22.6367 9.39997 22.6701 9.32092C22.7035 9.24187 22.7524 9.17031 22.8139 9.11048C22.9406 8.98819 23.1098 8.91985 23.2859 8.91985C23.462 8.91985 23.6313 8.98819 23.758 9.11048C24.7793 10.1266 25.5923 11.3324 26.1512 12.6603C26.2189 12.8244 26.2192 13.0086 26.1521 13.1729C26.0849 13.3372 25.9557 13.4685 25.7925 13.5383C25.7093 13.5709 25.6219 13.5916 25.5329 13.5996C25.4013 13.5971 25.2735 13.5559 25.1652 13.4812C25.0569 13.4065 24.973 13.3016 24.9239 13.1795C24.4292 11.9985 23.7038 10.9281 22.7903 10.031H22.8139ZM25.5234 21.4781C25.4383 21.484 25.3528 21.4712 25.2732 21.4403C25.1091 21.3713 24.9786 21.2407 24.9097 21.0765C24.8409 20.9124 24.8392 20.7277 24.905 20.5623C25.3973 19.4007 25.6494 18.1514 25.6462 16.8898C25.6423 16.7106 25.7089 16.5371 25.8315 16.4065C25.9542 16.2759 26.1232 16.1985 26.3023 16.1912C26.3899 16.1899 26.4768 16.2061 26.5581 16.2387C26.6394 16.2714 26.7133 16.3199 26.7757 16.3814C26.8381 16.4429 26.8876 16.5161 26.9214 16.5969C26.9552 16.6777 26.9726 16.7645 26.9726 16.852V16.8898C26.974 18.3281 26.6917 19.7525 26.1418 21.0816C26.09 21.2018 26.0035 21.3038 25.8933 21.3745C25.7831 21.4451 25.6543 21.4812 25.5234 21.4781Z" fill="#09ABB6"/>
<path d="M30.1118 22.7197C30.1334 22.7356 30.1539 22.7529 30.1732 22.7716C30.1924 22.7262 30.2144 22.682 30.2393 22.6394L30.1118 22.7197Z" fill="#09ABB6"/>
<path d="M18.6458 31.8583C19.1392 31.7728 19.6277 31.661 20.1091 31.5231C19.8557 31.4656 19.5925 31.4659 19.3392 31.5239C19.0859 31.582 18.8489 31.6962 18.6458 31.8583Z" fill="#09ABB6"/>
<path d="M21.1759 15.6766C21.2116 15.6398 21.2362 15.5938 21.2471 15.5437C21.2579 15.4937 21.2545 15.4416 21.2372 15.3933C21.2208 15.3457 21.1913 15.3036 21.152 15.2718C21.1128 15.2401 21.0654 15.2201 21.0154 15.214L18.5513 14.8552C18.2945 14.8175 18.0507 14.7178 17.841 14.5648C17.6313 14.4119 17.462 14.2102 17.3476 13.9772L16.2477 11.7444C16.228 11.6968 16.1946 11.6561 16.1518 11.6275C16.1089 11.599 16.0585 11.5838 16.007 11.5839C15.9538 11.5819 15.9014 11.5961 15.8566 11.6248C15.8119 11.6535 15.777 11.6953 15.7568 11.7444L14.6333 13.9772C14.5207 14.2106 14.3524 14.4127 14.1434 14.5658C13.9343 14.7189 13.6908 14.8183 13.4343 14.8552L10.9608 15.214C10.9117 15.2214 10.8656 15.242 10.8274 15.2736C10.7891 15.3052 10.7602 15.3466 10.7437 15.3933C10.7263 15.4423 10.7238 15.4953 10.7364 15.5456C10.749 15.596 10.7761 15.6415 10.8145 15.6766L12.5988 17.409C12.7873 17.5884 12.9289 17.8113 13.0112 18.0582C13.0935 18.3052 13.114 18.5685 13.0708 18.8251L12.6507 21.2798C12.6416 21.3317 12.6469 21.3851 12.666 21.4342C12.6852 21.4833 12.7174 21.5262 12.7593 21.5583C12.8031 21.586 12.8538 21.6007 12.9056 21.6007C12.9574 21.6007 13.0082 21.586 13.052 21.5583L15.2564 20.3829C15.4871 20.2644 15.7429 20.2029 16.0022 20.2035C16.2599 20.2045 16.5137 20.2659 16.7434 20.3829L18.9478 21.5583C18.9937 21.5827 19.0456 21.5935 19.0975 21.5894C19.1493 21.5854 19.1989 21.5667 19.2405 21.5355C19.2821 21.5043 19.314 21.4619 19.3323 21.4133C19.3507 21.3647 19.3549 21.3118 19.3443 21.2609L18.9148 18.8062C18.8728 18.5496 18.8939 18.2866 18.9761 18.04C19.0584 17.7933 19.1993 17.5703 19.3868 17.3901L21.1759 15.6766Z" fill="#09ABB6"/>
<path d="M24.825 29.3423L24.7966 29.4226C24.943 29.3329 25.0846 29.2385 25.2262 29.1441L25.1271 28.8608C25.0015 29.0044 24.8996 29.1669 24.825 29.3423Z" fill="#09ABB6"/>
<path d="M30.2392 22.6582L30.6405 22.3986C31.2942 21.9689 31.7571 21.3038 31.933 20.5415C32.1088 19.7793 31.984 18.9786 31.5846 18.3059L31.2494 17.7489C31.0941 17.4867 31.0121 17.1875 31.0121 16.8827C31.0121 16.5779 31.0941 16.2787 31.2494 16.0165L31.5704 15.4737C31.9697 14.805 32.0945 14.0076 31.9184 13.2489C31.7424 12.4902 31.2793 11.8292 30.6263 11.4046L30.0976 11.0459C29.8436 10.8784 29.64 10.6449 29.5086 10.3705C29.3772 10.0961 29.323 9.79102 29.3518 9.48812L29.399 8.85086C29.4739 8.07688 29.2441 7.3042 28.7584 6.69691C28.2728 6.08963 27.5695 5.69558 26.798 5.59847L26.1796 5.49934C25.5613 5.41909 27.1757 4.05015 26.9585 3.47426L24.5983 3.84717C24.3298 3.11119 23.7858 2.50829 23.0813 2.16569C22.3767 1.8231 21.5666 1.7676 20.8219 2.01092L20.3499 0.552294C19.7598 0.750553 18.9904 2.24694 18.5419 1.82682L18.0699 1.38782C17.5065 0.851861 16.7587 0.552968 15.9811 0.552968C15.2035 0.552968 14.4557 0.851861 13.8923 1.38782L13.4202 1.82682C13.0048 2.24694 12.7452 0.198259 12.1504 0L11.1591 2.01092C10.4145 1.76512 9.60336 1.81945 8.89815 2.16236C8.19294 2.50526 7.64929 3.1097 7.38277 3.84717L7.16563 4.42307C7.05569 4.70835 6.87103 4.95879 6.63101 5.14815C6.39099 5.33751 6.10444 5.45881 5.80141 5.49934L5.19247 5.59847C4.4204 5.69674 3.7165 6.09056 3.2288 6.69711C2.74109 7.30366 2.50757 8.07569 2.57734 8.85086L2.64342 9.48812C2.67339 9.79217 2.61871 10.0986 2.48542 10.3735C2.35213 10.6484 2.14542 10.8811 1.88815 11.0459L1.3689 11.4046C0.716853 11.83 0.254503 12.4909 0.0785489 13.2493C-0.0974051 14.0076 0.026664 14.8047 0.424808 15.4737L0.75524 16.0165C0.912562 16.2781 0.995684 16.5775 0.995684 16.8827C0.995684 17.1879 0.912562 17.4874 0.75524 17.7489L0.424808 18.2871C0.0277009 18.9603 -0.0957546 19.7602 0.0799301 20.5218C0.255615 21.2834 0.717026 21.9485 1.3689 22.3797L1.88815 22.7196C0.273753 24.2962 0.566422 24.8957 2.64815 24.2726L2.58678 24.9099C2.51874 25.6858 2.75112 26.4582 3.23597 27.0678C3.72082 27.6774 4.42115 28.0776 5.19247 28.1859L5.66452 28.2425L1.83623 38.9957C1.7966 39.1052 1.78577 39.2231 1.80479 39.338C1.8238 39.4529 1.87201 39.561 1.9448 39.6519C2.01886 39.7403 2.11538 39.8071 2.22419 39.8453C2.333 39.8835 2.4501 39.8917 2.56318 39.869L8.22773 38.9721L12.0371 43.3008C12.1017 43.3687 12.1793 43.4229 12.2653 43.4602C12.3512 43.4975 12.4438 43.5171 12.5375 43.5179C12.5796 43.5264 12.6229 43.5264 12.665 43.5179C12.7783 43.4991 12.8846 43.4502 12.9726 43.3763C13.0606 43.3024 13.1272 43.2062 13.1653 43.0978L15.9976 35.2005L18.8299 43.0978C18.868 43.2062 18.9346 43.3024 19.0226 43.3763C19.1106 43.4502 19.2169 43.4991 19.3303 43.5179C19.3738 43.5271 19.4188 43.5271 19.4624 43.5179C19.5553 43.5162 19.6469 43.4962 19.732 43.4589C19.817 43.4217 19.8939 43.3679 19.9581 43.3008L23.7344 38.9721L29.4226 39.869C29.5371 39.8963 29.6569 39.8904 29.7681 39.8519C29.8794 39.8134 29.9773 39.744 30.0504 39.6519C30.1281 39.5628 30.1805 39.4544 30.2021 39.3382C30.2237 39.222 30.2137 39.1021 30.1732 38.991L26.3449 28.3228L26.3213 28.2567H26.4345L26.8122 28.2142C27.5846 28.1092 28.2866 27.7097 28.7713 27.0991C29.2561 26.4886 29.486 25.7143 29.4132 24.9382L29.366 24.3009C29.3046 23.6873 32.9629 25.2875 30.1732 22.7998C30.1539 22.7812 30.1334 22.7638 30.1118 22.7479L30.2392 22.6582ZM12.3015 41.5873L8.99717 37.8392C8.93521 37.7663 8.85867 37.7073 8.77249 37.6658C8.68631 37.6244 8.59239 37.6014 8.4968 37.5985H8.38823L3.46006 38.3962L6.82103 29.0119L6.87296 28.8609C6.9744 28.9729 7.05727 29.1004 7.11842 29.2385C7.13853 29.2717 7.15589 29.3064 7.17035 29.3424L7.39693 29.9372C7.66913 30.6697 8.21458 31.2682 8.91875 31.6071C9.62292 31.946 10.431 31.9988 11.1733 31.7545L11.7728 31.5563L11.8955 31.528C12.1385 31.4721 12.3905 31.4689 12.6348 31.5186C12.879 31.5683 13.1098 31.6696 13.3117 31.8159C13.361 31.8527 13.4082 31.892 13.4533 31.9339L13.9253 32.3729C14.2988 32.7357 14.7638 32.9902 15.2707 33.1093L15.3084 33.2132L12.3015 41.5873ZM28.5399 38.4151L23.6023 37.5985C23.4918 37.5826 23.3791 37.5946 23.2744 37.6333C23.1697 37.6721 23.0763 37.7364 23.0028 37.8203L19.6985 41.5684L16.7057 33.2132L16.7482 33.1093C17.2542 32.988 17.7186 32.7338 18.0935 32.3729L18.5655 31.9339C18.5949 31.9062 18.6265 31.8809 18.6599 31.8584C18.8631 31.6963 19.1001 31.5821 19.3534 31.5241C19.6067 31.4661 19.8699 31.4658 20.1233 31.5232L20.2507 31.5563L20.8502 31.7545C21.5926 31.9976 22.4001 31.9442 23.104 31.6055C23.8078 31.2668 24.3534 30.6689 24.6266 29.9372L24.8154 29.4226L24.8438 29.3424C24.9192 29.1702 25.0212 29.011 25.1459 28.8703L25.245 29.1536L28.5399 38.4151ZM26.0144 26.9444C25.4749 27.0188 24.9657 27.238 24.541 27.5788C24.1162 27.9196 23.7918 28.3692 23.6023 28.8798L23.3851 29.4604C23.2274 29.8739 22.9178 30.2117 22.5195 30.4047C22.1213 30.5977 21.6643 30.6314 21.242 30.4989L20.6425 30.3006C20.1252 30.1276 19.5705 30.099 19.0381 30.218C18.5057 30.3369 18.0159 30.5989 17.6214 30.9757L17.1494 31.4147C16.831 31.7172 16.4085 31.8858 15.9693 31.8858C15.5301 31.8858 15.1076 31.7172 14.7892 31.4147L14.3171 30.9757C13.7644 30.4512 13.035 30.1531 12.2732 30.1401C11.9511 30.1333 11.6307 30.1877 11.3291 30.3006L10.7343 30.4989C10.3172 30.6311 9.8651 30.5968 9.47269 30.4032C9.08028 30.2097 8.77794 29.8718 8.62897 29.4604L8.39767 28.8798C8.20829 28.3674 7.88271 27.9164 7.45599 27.5753C7.02927 27.2343 6.51759 27.0162 5.97607 26.9444L5.35769 26.8641C4.92566 26.8007 4.53445 26.5739 4.26479 26.2305C3.99513 25.887 3.86759 25.4532 3.90851 25.0184L3.96987 24.3765C4.01623 23.8336 3.91581 23.2882 3.67914 22.7974C3.44246 22.3066 3.07822 21.8884 2.62454 21.5867L2.09585 21.2421C1.7292 21.0012 1.47023 20.6276 1.37339 20.1998C1.27655 19.7719 1.34939 19.3232 1.5766 18.9479L1.88815 18.4098C2.16616 17.942 2.31289 17.408 2.31289 16.8638C2.31289 16.3197 2.16616 15.7856 1.88815 15.3179L1.57188 14.7798C1.40426 14.5044 1.32059 14.1862 1.33114 13.864C1.33567 13.5897 1.4073 13.3206 1.53978 13.0803C1.67226 12.8401 1.86155 12.6359 2.09113 12.4856L2.61982 12.1457C3.07389 11.8432 3.43831 11.4242 3.67498 10.9326C3.91165 10.441 4.01187 9.89484 3.96515 9.35123L3.90851 8.73285C3.88568 8.45809 3.93277 8.18202 4.0454 7.93037C4.1638 7.65105 4.35443 7.40829 4.5977 7.22702C4.82689 7.05571 5.09411 6.94234 5.37657 6.89659L5.99495 6.81634C6.53647 6.74458 7.04815 6.52642 7.47487 6.18538C7.90159 5.84434 8.22717 5.39334 8.41655 4.88096L8.64785 4.30506C8.80123 3.89836 9.10623 3.56691 9.49879 3.38031C9.89136 3.19371 10.341 3.16648 10.7532 3.30432L11.3291 3.4837C11.8525 3.65209 12.4116 3.67607 12.9475 3.55311C13.4834 3.43014 13.9761 3.1648 14.3738 2.78507L14.8458 2.34607C15.1643 2.04358 15.5867 1.87492 16.0259 1.87492C16.4651 1.87492 16.8876 2.04358 17.206 2.34607L17.6781 2.78507C18.0729 3.16147 18.5616 3.42489 19.093 3.54779C19.6245 3.67069 20.1792 3.64855 20.6992 3.4837L21.242 3.30432C21.658 3.16835 22.1104 3.19855 22.5046 3.3886C22.8988 3.57865 23.2042 3.91382 23.3568 4.32394L23.6023 4.88096C23.7929 5.39342 24.1195 5.84431 24.5469 6.18527C24.9744 6.52623 25.4866 6.74439 26.0286 6.81634L26.647 6.89659C26.8781 6.93218 27.0997 7.01408 27.2984 7.13737C27.4971 7.26066 27.6689 7.42281 27.8035 7.6141C27.8579 7.68988 27.9053 7.77046 27.9451 7.85485C28.0814 8.12623 28.1387 8.43048 28.1103 8.73285L28.0537 9.37011C28.0059 9.91384 28.1057 10.4604 28.3425 10.9522C28.5792 11.444 28.9442 11.8628 29.399 12.1646L29.9277 12.5045C30.2934 12.7461 30.5516 13.1197 30.6484 13.5472C30.7451 13.9747 30.673 14.4231 30.4469 14.7986L30.1259 15.3368C29.8435 15.803 29.6941 16.3376 29.6941 16.8827C29.6941 17.4278 29.8435 17.9625 30.1259 18.4287L30.4469 18.9668C30.6659 19.3423 30.7326 19.7875 30.6334 20.2107C30.5342 20.6339 30.2766 21.003 29.9135 21.2421L29.3848 21.5819C28.9304 21.883 28.5656 22.301 28.3289 22.792C28.0921 23.283 27.9921 23.8287 28.0395 24.3717L28.0962 25.0184C28.1353 25.4535 28.0049 25.8868 27.7323 26.2281C27.4596 26.5693 27.0658 26.7921 26.6328 26.85L26.0144 26.9444Z" fill="white"/>
<path d="M8.69515 10.2669C8.86953 10.269 9.03821 10.2049 9.1672 10.0876C10.0542 9.18618 11.1095 8.46768 12.2733 7.9728C12.3538 7.9407 12.4272 7.89285 12.489 7.83203C12.5508 7.77122 12.5998 7.69868 12.6333 7.61866C12.6667 7.53864 12.6838 7.45276 12.6836 7.36604C12.6833 7.27933 12.6658 7.19353 12.632 7.11368C12.5634 6.96089 12.4401 6.83934 12.2863 6.77294C12.1325 6.70654 11.9595 6.70012 11.8012 6.75492C10.4697 7.30922 9.26271 8.12459 8.25143 9.15292C8.18804 9.21411 8.13763 9.28745 8.1032 9.36855C8.06877 9.44965 8.05103 9.53685 8.05103 9.62496C8.05103 9.71307 8.06877 9.80027 8.1032 9.88137C8.13763 9.96248 8.18804 10.0358 8.25143 10.097C8.37339 10.2063 8.53138 10.2668 8.69515 10.2669Z" fill="white"/>
<path d="M6.36307 16.8897C6.35858 15.6303 6.60239 14.3823 7.08058 13.2172C7.14944 13.0545 7.15082 12.871 7.08443 12.7072C7.01803 12.5435 6.8893 12.4128 6.72655 12.3439C6.56379 12.2751 6.38035 12.2737 6.21658 12.3401C6.05281 12.4065 5.92212 12.5352 5.85326 12.698C5.3133 14.0278 5.03598 15.4497 5.03662 16.885C5.03785 16.9699 5.0558 17.0538 5.08944 17.1318C5.12309 17.2098 5.17176 17.2804 5.23269 17.3395C5.29362 17.3987 5.36561 17.4453 5.44455 17.4767C5.52349 17.508 5.60784 17.5235 5.69277 17.5223C5.86419 17.5225 6.0292 17.4571 6.15388 17.3395C6.27855 17.2218 6.35341 17.0609 6.36307 16.8897Z" fill="white"/>
<path d="M16.0071 7.23644C17.2602 7.23393 18.5016 7.47772 19.6607 7.95395C19.7397 7.99423 19.827 8.01526 19.9156 8.01532C20.0687 8.0136 20.2165 7.95918 20.3341 7.86122C20.4517 7.76326 20.532 7.62775 20.5614 7.47752C20.5908 7.32729 20.5675 7.17153 20.4954 7.03647C20.4234 6.90142 20.3069 6.79533 20.1658 6.73607C18.8455 6.19706 17.4331 5.9197 16.0071 5.91943H15.9693C15.8834 5.91943 15.7983 5.93644 15.7189 5.96947C15.6396 6.0025 15.5676 6.05091 15.507 6.1119C15.4465 6.17289 15.3986 6.24526 15.3661 6.32484C15.3337 6.40442 15.3173 6.48964 15.3179 6.57558C15.3191 6.66442 15.338 6.75213 15.3734 6.83361C15.4088 6.9151 15.4601 6.98873 15.5242 7.05022C15.5883 7.11171 15.664 7.15984 15.7469 7.19181C15.8298 7.22378 15.9183 7.23895 16.0071 7.23644Z" fill="white"/>
<path d="M22.8187 23.6921C21.931 24.5944 20.8695 25.3073 19.6985 25.7879C19.537 25.8594 19.4102 25.9917 19.3457 26.1561C19.2811 26.3205 19.2841 26.5037 19.3539 26.6659C19.4084 26.7845 19.4955 26.8852 19.605 26.9562C19.7144 27.0272 19.8418 27.0657 19.9723 27.0672C20.0572 27.0643 20.1414 27.0501 20.2225 27.0247C21.5553 26.475 22.7629 25.6608 23.7723 24.6314C23.8369 24.5709 23.8884 24.4978 23.9236 24.4166C23.9588 24.3354 23.9769 24.2479 23.9769 24.1594C23.9769 24.0709 23.9588 23.9833 23.9236 23.9021C23.8884 23.8209 23.8369 23.7478 23.7723 23.6873C23.7099 23.624 23.6355 23.5737 23.5535 23.5396C23.4714 23.5055 23.3834 23.4881 23.2945 23.4885C23.2056 23.489 23.1177 23.5072 23.036 23.5422C22.9543 23.5771 22.8804 23.6281 22.8187 23.6921Z" fill="white"/>
<path d="M25.4905 13.5807C25.5796 13.5726 25.667 13.5519 25.7502 13.5193C25.9134 13.4495 26.0426 13.3183 26.1097 13.1539C26.1769 12.9896 26.1766 12.8054 26.1089 12.6413C25.55 11.3135 24.737 10.1076 23.7157 9.09152C23.5889 8.96922 23.4197 8.90088 23.2436 8.90088C23.0675 8.90088 22.8983 8.96922 22.7716 9.09152C22.71 9.15134 22.6611 9.2229 22.6277 9.30195C22.5944 9.381 22.5771 9.46595 22.5771 9.55176C22.5771 9.63758 22.5944 9.72252 22.6277 9.80157C22.6611 9.88062 22.71 9.95218 22.7716 10.012C23.6729 10.9062 24.3884 11.9698 24.8769 13.1417C24.9233 13.268 25.0066 13.3774 25.1161 13.4557C25.2255 13.534 25.356 13.5776 25.4905 13.5807Z" fill="white"/>
<path d="M7.08059 20.5811C7.01276 20.4186 6.88325 20.2895 6.72044 20.2223C6.55763 20.155 6.37481 20.1551 6.21203 20.2224C6.04961 20.2931 5.92122 20.4245 5.85421 20.5885C5.7872 20.7525 5.78687 20.9361 5.85327 21.1004C6.39947 22.4271 7.20146 23.6332 8.2135 24.6502C8.34014 24.7742 8.50844 24.8465 8.68555 24.8532C8.86308 24.8484 9.03202 24.7757 9.1576 24.6502C9.22098 24.589 9.27139 24.5156 9.30583 24.4345C9.34026 24.3534 9.358 24.2662 9.358 24.1781C9.358 24.09 9.34026 24.0028 9.30583 23.9217C9.27139 23.8406 9.22098 23.7673 9.1576 23.7061C8.26782 22.8101 7.5622 21.7484 7.08059 20.5811Z" fill="white"/>
<path d="M16.0069 26.5291C14.7435 26.5356 13.492 26.2834 12.3297 25.788C12.1665 25.7256 11.9856 25.7281 11.8241 25.7948C11.6626 25.8615 11.5328 25.9874 11.4611 26.1467C11.4258 26.2267 11.4065 26.3129 11.4045 26.4003C11.4024 26.4877 11.4176 26.5746 11.4492 26.6562C11.4807 26.7377 11.5281 26.8122 11.5884 26.8755C11.6488 26.9387 11.721 26.9894 11.801 27.0248C13.1326 27.5819 14.5635 27.863 16.0069 27.8508C16.1744 27.8367 16.3305 27.7603 16.4442 27.6366C16.5579 27.5129 16.621 27.3509 16.621 27.1829C16.621 27.0148 16.5579 26.8529 16.4442 26.7292C16.3305 26.6055 16.1744 26.529 16.0069 26.5149V26.5291Z" fill="white"/>
<path d="M26.9727 16.8521C26.9727 16.7645 26.9553 16.6778 26.9215 16.597C26.8877 16.5162 26.8382 16.4429 26.7758 16.3814C26.7134 16.3199 26.6394 16.2714 26.5582 16.2388C26.4769 16.2061 26.3899 16.19 26.3024 16.1912C26.1233 16.1986 25.9543 16.2759 25.8316 16.4065C25.7089 16.5372 25.6424 16.7107 25.6462 16.8899C25.6495 18.1515 25.3974 19.4007 24.9051 20.5624C24.8393 20.7278 24.841 20.9124 24.9098 21.0766C24.9787 21.2408 25.1092 21.3714 25.2733 21.4404C25.3529 21.4712 25.4383 21.4841 25.5235 21.4781C25.6544 21.4813 25.7832 21.4452 25.8934 21.3745C26.0036 21.3039 26.0901 21.2019 26.1419 21.0816C26.6917 19.7526 26.9741 18.3281 26.9727 16.8899V16.8521Z" fill="white"/>
<path d="M20.6568 21.0626L20.2366 18.608C20.2263 18.5644 20.2283 18.5187 20.2425 18.4762C20.2566 18.4336 20.2824 18.3959 20.3169 18.3672L22.1059 16.6301C22.32 16.4194 22.4707 16.1529 22.5408 15.8608C22.6109 15.5687 22.5976 15.2629 22.5025 14.978C22.4116 14.6945 22.2424 14.4426 22.0143 14.2513C21.7863 14.06 21.5087 13.9371 21.2138 13.897L18.7403 13.5429C18.6973 13.5312 18.6574 13.5103 18.6232 13.4818C18.589 13.4533 18.5613 13.4178 18.542 13.3777L17.4374 11.1449C17.3074 10.8755 17.1039 10.6481 16.8505 10.4891C16.5971 10.33 16.304 10.2456 16.0047 10.2456C15.7055 10.2456 15.4124 10.33 15.159 10.4891C14.9056 10.6481 14.7021 10.8755 14.5721 11.1449L13.4628 13.3777C13.4427 13.419 13.4137 13.4553 13.3777 13.4839C13.3418 13.5125 13.2999 13.5327 13.2551 13.5429L10.791 13.897C10.4957 13.9347 10.2176 14.0567 9.98984 14.2484C9.76212 14.4401 9.59449 14.6934 9.50704 14.978C9.40847 15.2625 9.39343 15.5692 9.4637 15.862C9.53397 16.1548 9.6866 16.4213 9.90356 16.6301L11.6879 18.3672C11.7233 18.3952 11.7497 18.4329 11.764 18.4756C11.7782 18.5184 11.7797 18.5644 11.7681 18.608L11.3291 21.0626C11.2761 21.3548 11.3074 21.6561 11.4194 21.9312C11.5314 22.2062 11.7195 22.4437 11.9617 22.6157C12.2011 22.7988 12.4879 22.9094 12.7883 22.9345C13.0886 22.9596 13.3899 22.8981 13.6563 22.7573L15.8608 21.5772C15.8981 21.5532 15.9415 21.5404 15.9859 21.5404C16.0302 21.5404 16.0736 21.5532 16.111 21.5772L18.3154 22.7337C18.5469 22.85 18.8022 22.9114 19.0612 22.913C19.4033 22.9168 19.7364 22.8035 20.0053 22.5921C20.246 22.4235 20.4346 22.1908 20.5498 21.9205C20.6649 21.6502 20.702 21.353 20.6568 21.0626ZM18.9196 18.8251L19.3492 21.2798C19.3598 21.3307 19.3556 21.3835 19.3372 21.4322C19.3188 21.4808 19.287 21.5232 19.2454 21.5544C19.2038 21.5856 19.1542 21.6043 19.1023 21.6083C19.0505 21.6124 18.9986 21.6015 18.9527 21.5772L16.7482 20.4018C16.5186 20.2848 16.2648 20.2234 16.0071 20.2224C15.7477 20.2218 15.492 20.2833 15.2613 20.4018L13.0568 21.5772C13.013 21.6048 12.9623 21.6195 12.9105 21.6195C12.8587 21.6195 12.8079 21.6048 12.7642 21.5772C12.7223 21.5451 12.69 21.5022 12.6709 21.4531C12.6518 21.404 12.6465 21.3506 12.6556 21.2986L13.0757 18.844C13.1189 18.5874 13.0984 18.324 13.0161 18.0771C12.9338 17.8302 12.7922 17.6073 12.6037 17.4279L10.8571 15.6766C10.8188 15.6415 10.7916 15.596 10.779 15.5456C10.7664 15.4953 10.769 15.4423 10.7863 15.3934C10.8028 15.3466 10.8318 15.3052 10.87 15.2736C10.9083 15.242 10.9544 15.2214 11.0034 15.214L13.4769 14.8552C13.7258 14.8119 13.9607 14.7096 14.1619 14.5568C14.3631 14.404 14.5248 14.2053 14.6335 13.9772L15.738 11.7444C15.7583 11.6953 15.7932 11.6535 15.8379 11.6248C15.8826 11.5961 15.9351 11.5819 15.9882 11.5839C16.0398 11.5838 16.0902 11.599 16.133 11.6275C16.1759 11.6561 16.2093 11.6968 16.229 11.7444L17.3288 13.9772C17.4432 14.2102 17.6126 14.4119 17.8223 14.5649C18.032 14.7178 18.2758 14.8175 18.5326 14.8552L20.9966 15.214C21.0467 15.2201 21.0941 15.2401 21.1333 15.2718C21.1725 15.3036 21.2021 15.3457 21.2185 15.3934C21.2358 15.4416 21.2392 15.4937 21.2284 15.5438C21.2175 15.5938 21.1928 15.6398 21.1571 15.6766L19.3634 17.409C19.1809 17.5919 19.0452 17.8161 18.968 18.0627C18.8907 18.3092 18.8741 18.5708 18.9196 18.8251Z" fill="white"/>
</g>
<defs>
<clipPath id="clip0_115_2474">
<rect width="32" height="43.5226" fill="white"/>
</clipPath>
</defs>
</svg>
