<svg width="32" height="43" viewBox="0 0 32 43" fill="none" xmlns="http://www.w3.org/2000/svg">
<g clip-path="url(#clip0_113_276)">
<path d="M31.2493 17.1966C31.0939 16.9344 31.0119 16.6352 31.0119 16.3304C31.0119 16.0256 31.0939 15.7265 31.2493 15.4642L31.5702 14.9214C31.9696 14.2527 32.0943 13.4553 31.9183 12.6966C31.7423 11.9379 31.2791 11.2769 30.6262 10.8523L30.0975 10.4936C29.8431 10.3265 29.6391 10.0931 29.5077 9.81854C29.3763 9.54401 29.3223 9.23879 29.3516 8.93583L29.3988 8.29857C29.4737 7.52459 29.2439 6.75191 28.7583 6.14462C28.2726 5.53734 27.5694 5.14329 26.7979 5.04618L26.1795 4.94705C25.8756 4.90732 25.5881 4.78638 25.3472 4.59697C25.1062 4.40756 24.9209 4.15669 24.8105 3.87078L24.6076 3.30433C24.3391 2.56834 23.7951 1.96544 23.0906 1.62284C22.386 1.28025 21.5759 1.22475 20.8312 1.46807L20.2317 1.66633C19.9427 1.75972 19.6339 1.77395 19.3375 1.70754C19.0412 1.64112 18.768 1.49649 18.5465 1.28869L18.0744 0.849686C17.5122 0.311582 16.7639 0.0112305 15.9856 0.0112305C15.2074 0.0112305 14.4591 0.311582 13.8968 0.849686L13.4248 1.28869C13.2018 1.4973 12.927 1.64235 12.629 1.70877C12.331 1.77518 12.0206 1.76053 11.7301 1.66633L11.1306 1.46807C10.386 1.22227 9.57487 1.2766 8.86966 1.61951C8.16446 1.96241 7.62081 2.56685 7.35428 3.30433L7.17962 3.87078C7.06969 4.15605 6.88503 4.4065 6.64501 4.59586C6.40498 4.78522 6.11844 4.90652 5.81541 4.94705L5.19231 5.04618C4.42023 5.14445 3.71634 5.53827 3.22864 6.14482C2.74093 6.75137 2.50741 7.5234 2.57718 8.29857L2.63854 8.93583C2.66953 9.23948 2.61581 9.54577 2.48332 9.82074C2.35084 10.0957 2.14478 10.3286 1.88799 10.4936L1.36402 10.8571C0.71197 11.2824 0.24962 11.9434 0.0736661 12.7017C-0.102288 13.4601 0.0217812 14.2571 0.419925 14.9261L0.750358 15.469C0.907679 15.7305 0.990801 16.0299 0.990801 16.3352C0.990801 16.6404 0.907679 16.9398 0.750358 17.2014L0.424646 17.7348C0.0275386 18.408 -0.095917 19.2079 0.0797677 19.9695C0.255452 20.7311 0.716864 21.3962 1.36874 21.8274L1.88799 22.1862C2.14222 22.3483 2.34708 22.5771 2.48026 22.8476C2.61344 23.1181 2.66982 23.42 2.64326 23.7203L2.5819 24.3576C2.51396 25.1342 2.74699 25.9072 3.23281 26.5169C3.71864 27.1266 4.42013 27.5264 5.19231 27.6336L5.66436 27.6902L1.83606 38.4434C1.79557 38.5536 1.78429 38.6723 1.80331 38.7882C1.82234 38.904 1.87103 39.0129 1.94463 39.1043C2.0187 39.1927 2.11521 39.2595 2.22403 39.2977C2.33284 39.3359 2.44994 39.3441 2.56301 39.3214L8.22757 38.4245L12.037 42.7532C12.1009 42.822 12.1783 42.8768 12.2644 42.9142C12.3505 42.9515 12.4435 42.9707 12.5373 42.9704C12.5796 42.9768 12.6226 42.9768 12.6648 42.9704C12.7782 42.9497 12.8841 42.8996 12.9719 42.825C13.0598 42.7504 13.1264 42.654 13.1652 42.5455L15.9974 34.6482L18.8297 42.5455C18.8725 42.6545 18.9436 42.75 19.0358 42.8222C19.1279 42.8945 19.2377 42.9407 19.3537 42.9562C19.3975 42.9632 19.4421 42.9632 19.4859 42.9562C19.5789 42.9556 19.6708 42.936 19.7561 42.8987C19.8413 42.8613 19.918 42.807 19.9815 42.739L23.7579 38.4104L29.446 39.3073C29.557 39.3299 29.672 39.3216 29.7785 39.2833C29.8851 39.245 29.9791 39.1782 30.0503 39.0901C30.128 39.001 30.1803 38.8927 30.2019 38.7765C30.2235 38.6602 30.2135 38.5403 30.173 38.4293L26.3211 27.6902L26.7931 27.6336C27.5656 27.5286 28.2676 27.1291 28.7523 26.5185C29.237 25.908 29.467 25.1337 29.3941 24.3576L29.3469 23.7203C29.3234 23.4193 29.3822 23.1176 29.5169 22.8474C29.6516 22.5772 29.8571 22.3486 30.1116 22.1862L30.6403 21.8463C31.294 21.4166 31.757 20.7515 31.9328 19.9892C32.1086 19.227 31.9839 18.4263 31.5844 17.7537L31.2493 17.1966ZM12.2966 41.0161L8.99228 37.268C8.92917 37.1992 8.85264 37.144 8.7674 37.1058C8.68216 37.0677 8.59001 37.0474 8.49663 37.0462H8.38806L3.4599 37.8487L6.8728 28.3228C7.00225 28.4588 7.10334 28.6193 7.17018 28.7948L7.39677 29.3943C7.66988 30.126 8.21572 30.7234 8.91978 31.0614C9.62385 31.3994 10.4314 31.4515 11.1731 31.207L11.7726 31.0087C12.0635 30.918 12.373 30.9051 12.6704 30.9713C12.9677 31.0376 13.2425 31.1807 13.4673 31.3863L13.9393 31.8253C14.3067 32.1858 14.7626 32.4431 15.2611 32.5712L15.2988 32.6703L12.2966 41.0161ZM23.6257 37.0462C23.5152 37.0303 23.4025 37.0423 23.2978 37.081C23.1931 37.1198 23.0998 37.1841 23.0262 37.268L19.7219 41.0161L16.7291 32.6609L16.7716 32.5617C17.2772 32.4368 17.7411 32.1812 18.1169 31.8206L18.589 31.3816C18.8123 31.1768 19.0855 31.0341 19.3812 30.9678C19.6769 30.9016 19.9848 30.914 20.2742 31.004L20.8737 31.2022C21.6154 31.4456 22.4225 31.3928 23.1262 31.055C23.83 30.7172 24.376 30.1205 24.65 29.3896L24.8247 28.7948C24.9002 28.6227 25.0021 28.4634 25.1268 28.3228L28.535 37.8628L23.6257 37.0462ZM30.1116 17.8764L30.4326 18.4098C30.6598 18.785 30.7327 19.2338 30.6358 19.6616C30.539 20.0895 30.28 20.4631 29.9134 20.7039L29.3847 21.0438C28.9299 21.3456 28.5649 21.7645 28.3281 22.2563C28.0914 22.7481 27.9916 23.2946 28.0393 23.8383L28.096 24.4756C28.1352 24.9112 28.005 25.3451 27.7324 25.6871C27.4599 26.0291 27.066 26.2529 26.6326 26.3118L26.0143 26.3921C25.4751 26.4656 24.966 26.6839 24.5413 27.0239C24.1165 27.3639 23.7919 27.8128 23.6021 28.3228L23.385 28.9034C23.2301 29.3192 22.9211 29.6595 22.5221 29.8537C22.1231 30.048 21.6647 30.0812 21.2419 29.9466L20.6565 29.7389C20.1391 29.5669 19.5846 29.5389 19.0525 29.6578C18.5203 29.7767 18.0305 30.0381 17.6354 30.4139L17.1634 30.8529C16.8449 31.1554 16.4225 31.3241 15.9833 31.3241C15.5441 31.3241 15.1216 31.1554 14.8032 30.8529L14.3311 30.4139C13.7733 29.8896 13.0385 29.5947 12.273 29.5878C11.9516 29.578 11.6312 29.6292 11.3289 29.7389L10.7341 29.9372C10.317 30.0706 9.86444 30.0369 9.47172 29.8431C9.07899 29.6494 8.77679 29.3108 8.62881 28.8987L8.41638 28.3228C8.22676 27.811 7.901 27.3607 7.47425 27.0205C7.0475 26.6802 6.53595 26.463 5.99479 26.3921L5.37641 26.3118C4.94369 26.2507 4.5507 26.0265 4.2778 25.6852C4.00491 25.3439 3.87274 24.9111 3.90835 24.4756L3.96971 23.8383C4.01643 23.2947 3.91621 22.7485 3.67954 22.2569C3.44287 21.7653 3.07844 21.3463 2.62438 21.0438L2.09569 20.7039C1.72809 20.4639 1.46834 20.0902 1.37143 19.662C1.27451 19.2338 1.34804 18.7847 1.57644 18.4098L1.88799 17.8764C2.166 17.4086 2.31273 16.8746 2.31273 16.3304C2.31273 15.7863 2.166 15.2522 1.88799 14.7845L1.57172 14.2464C1.34451 13.8711 1.27167 13.4224 1.3685 12.9945C1.46534 12.5667 1.72432 12.193 2.09097 11.9522L2.61966 11.6123C3.07372 11.3098 3.43815 10.8908 3.67482 10.3992C3.91149 9.90761 4.01171 9.36143 3.96499 8.81782L3.90363 8.18056C3.87032 7.74548 4.00334 7.31397 4.27582 6.97315C4.5483 6.63232 4.93995 6.40759 5.37169 6.3443L5.99007 6.26405C6.53177 6.19279 7.04368 5.97482 7.47048 5.63371C7.89729 5.2926 8.22274 4.84133 8.41166 4.32867L8.64769 3.77637C8.79739 3.36622 9.10086 3.03043 9.49382 2.84011C9.88678 2.6498 10.3384 2.6199 10.753 2.75675L11.3289 2.93613C11.8499 3.09837 12.4047 3.11918 12.9364 2.99642C13.4681 2.87365 13.9576 2.61174 14.3547 2.2375L14.8268 1.7985C15.1441 1.49385 15.567 1.32374 16.0069 1.32374C16.4468 1.32374 16.8697 1.49385 17.187 1.7985L17.659 2.2375C18.0549 2.61218 18.5436 2.87446 19.0747 2.99726C19.6057 3.12007 20.16 3.09897 20.6801 2.93613L21.2419 2.73315C21.6627 2.59414 22.1212 2.6255 22.5191 2.82051C22.9171 3.01551 23.2228 3.35865 23.3708 3.77637L23.6021 4.32867C23.7919 4.84169 24.1182 5.29312 24.5458 5.63422C24.9734 5.97531 25.4861 6.19309 26.0284 6.26405L26.6468 6.3443C27.0787 6.40654 27.4705 6.63118 27.7424 6.9724C28.0143 7.31361 28.1459 7.74571 28.1101 8.18056L28.0535 8.81782C28.0058 9.36155 28.1055 9.90809 28.3423 10.3999C28.579 10.8917 28.944 11.3105 29.3988 11.6123L29.9275 11.9522C30.2932 12.1938 30.5514 12.5674 30.6482 12.9949C30.745 13.4224 30.6728 13.8708 30.4468 14.2464L30.1258 14.7845C29.8412 15.2494 29.6894 15.7834 29.6869 16.3285C29.6844 16.8735 29.8313 17.4089 30.1116 17.8764Z" fill="#595A5B"/>
<path d="M8.69491 9.7148C8.86929 9.71688 9.03797 9.65278 9.16696 9.53542C10.054 8.63404 11.1093 7.91554 12.273 7.42066C12.3534 7.38906 12.4266 7.34167 12.4884 7.2813C12.5502 7.22093 12.5992 7.1488 12.6327 7.06916C12.6661 6.98952 12.6833 6.90399 12.6831 6.81761C12.683 6.73124 12.6655 6.64577 12.6318 6.56626C12.564 6.41262 12.441 6.29001 12.2872 6.2227C12.1333 6.1554 11.9598 6.14829 11.801 6.20278C10.4695 6.75708 9.26247 7.57244 8.25119 8.60077C8.1878 8.66197 8.13739 8.7353 8.10296 8.81641C8.06853 8.89751 8.05078 8.98471 8.05078 9.07282C8.05078 9.16093 8.06853 9.24813 8.10296 9.32923C8.13739 9.41033 8.1878 9.48367 8.25119 9.54486C8.37315 9.65417 8.53113 9.71468 8.69491 9.7148Z" fill="#595A5B"/>
<path d="M6.36314 16.3374C6.35927 15.0796 6.60307 13.8333 7.08065 12.6696C7.14951 12.5068 7.15089 12.3234 7.0845 12.1596C7.0181 11.9959 6.88937 11.8652 6.72662 11.7963C6.56386 11.7275 6.38042 11.7261 6.21665 11.7925C6.05288 11.8589 5.92219 11.9876 5.85333 12.1503C5.31337 13.4802 5.03605 14.9021 5.03669 16.3374C5.03542 16.4239 5.05152 16.5098 5.08404 16.59C5.11657 16.6702 5.16485 16.743 5.22604 16.8042C5.28722 16.8654 5.36006 16.9137 5.44024 16.9462C5.52042 16.9787 5.60632 16.9948 5.69284 16.9935C5.86855 16.9948 6.03764 16.9265 6.16321 16.8036C6.28878 16.6807 6.36065 16.5131 6.36314 16.3374Z" fill="#595A5B"/>
<path d="M16.0071 6.6842C17.2602 6.68169 18.5016 6.92548 19.6607 7.40171C19.7397 7.44198 19.827 7.46301 19.9156 7.46307C20.0476 7.46241 20.1763 7.42196 20.2849 7.34702C20.3936 7.27207 20.4771 7.1661 20.5246 7.04295C20.5583 6.96343 20.5757 6.87797 20.5759 6.79159C20.5761 6.70522 20.5589 6.61969 20.5255 6.54005C20.492 6.46041 20.443 6.38827 20.3812 6.3279C20.3194 6.26753 20.2462 6.22015 20.1658 6.18855C18.8465 5.64582 17.4337 5.36678 16.0071 5.36719H15.9693C15.8834 5.36719 15.7983 5.38419 15.7189 5.41722C15.6396 5.45025 15.5676 5.49866 15.507 5.55965C15.4465 5.62064 15.3986 5.69301 15.3661 5.77259C15.3337 5.85217 15.3173 5.93739 15.3179 6.02333C15.3191 6.11217 15.338 6.19988 15.3734 6.28137C15.4088 6.36285 15.4601 6.43648 15.5242 6.49797C15.5883 6.55947 15.664 6.6076 15.7469 6.63957C15.8298 6.67154 15.9183 6.68671 16.0071 6.6842Z" fill="#595A5B"/>
<path d="M22.8184 23.1303C21.9281 24.0295 20.8673 24.742 19.6982 25.2262C19.6166 25.261 19.5428 25.3118 19.4811 25.3755C19.4195 25.4393 19.3712 25.5147 19.3391 25.5974C19.307 25.68 19.2917 25.7683 19.2942 25.8569C19.2967 25.9456 19.3169 26.0329 19.3536 26.1136C19.4081 26.2322 19.4951 26.3328 19.6046 26.4038C19.7141 26.4749 19.8415 26.5134 19.9719 26.5148C20.0569 26.512 20.141 26.4977 20.2221 26.4724C21.5503 25.9196 22.753 25.1039 23.7578 24.0744C23.823 24.0142 23.875 23.9413 23.9106 23.86C23.9463 23.7788 23.9646 23.691 23.9646 23.6023C23.9646 23.5136 23.9463 23.4259 23.9106 23.3446C23.875 23.2634 23.823 23.1904 23.7578 23.1303C23.633 23.006 23.4641 22.9363 23.2881 22.9363C23.112 22.9363 22.9431 23.006 22.8184 23.1303Z" fill="#595A5B"/>
<path d="M25.4901 13.0284C25.5791 13.0204 25.6665 12.9997 25.7497 12.9671C25.9129 12.8973 26.0421 12.766 26.1092 12.6017C26.1764 12.4374 26.1761 12.2532 26.1084 12.0891C25.5495 10.7612 24.7365 9.55536 23.7152 8.53927C23.5885 8.41698 23.4192 8.34863 23.2431 8.34863C23.067 8.34863 22.8978 8.41698 22.7711 8.53927C22.7096 8.5991 22.6606 8.67065 22.6273 8.7497C22.5939 8.82876 22.5767 8.9137 22.5767 8.99952C22.5767 9.08533 22.5939 9.17027 22.6273 9.24933C22.6606 9.32838 22.7096 9.39993 22.7711 9.45976C23.6724 10.3539 24.3879 11.4176 24.8764 12.5894C24.9228 12.7157 25.0061 12.8252 25.1156 12.9035C25.225 12.9818 25.3555 13.0253 25.4901 13.0284Z" fill="#595A5B"/>
<path d="M7.0807 20.0289C7.01187 19.8672 6.88227 19.739 6.71981 19.6719C6.55735 19.6048 6.37504 19.6042 6.21214 19.6702C6.05052 19.7419 5.9229 19.8733 5.85603 20.037C5.78915 20.2006 5.7882 20.3838 5.85338 20.5482C6.40067 21.8757 7.20248 23.0832 8.21361 24.1027C8.34195 24.2235 8.50957 24.2939 8.68566 24.301C8.86223 24.2961 9.03059 24.2253 9.1577 24.1027C9.21993 24.0408 9.26931 23.9673 9.30301 23.8863C9.33671 23.8053 9.35406 23.7184 9.35406 23.6306C9.35406 23.5429 9.33671 23.456 9.30301 23.375C9.26931 23.294 9.21993 23.2205 9.1577 23.1586C8.26741 22.2612 7.56176 21.1979 7.0807 20.0289Z" fill="#595A5B"/>
<path d="M16.0069 25.9624C14.744 25.9682 13.493 25.7177 12.3297 25.226C12.1672 25.1622 11.9863 25.1633 11.8246 25.2292C11.6629 25.2952 11.5327 25.4208 11.4611 25.5801C11.4236 25.6608 11.4026 25.7482 11.3994 25.8371C11.3962 25.9261 11.4108 26.0148 11.4425 26.098C11.4742 26.1812 11.5223 26.2571 11.5838 26.3214C11.6454 26.3857 11.7193 26.437 11.801 26.4722C13.1258 27.0318 14.55 27.3176 15.9881 27.3125C16.1555 27.2984 16.3116 27.2219 16.4253 27.0982C16.539 26.9745 16.6022 26.8126 16.6022 26.6445C16.6022 26.4765 16.539 26.3146 16.4253 26.1909C16.3116 26.0671 16.1555 25.9907 15.9881 25.9766L16.0069 25.9624Z" fill="#595A5B"/>
<path d="M26.3024 15.639C26.1233 15.6464 25.9543 15.7237 25.8316 15.8543C25.7089 15.9849 25.6424 16.1584 25.6462 16.3376C25.6495 17.5992 25.3974 18.8485 24.9051 20.0101C24.8393 20.1755 24.841 20.3602 24.9098 20.5244C24.9787 20.6885 25.1092 20.8192 25.2733 20.8881C25.3529 20.919 25.4383 20.9319 25.5235 20.9259C25.6544 20.929 25.7832 20.8929 25.8934 20.8223C26.0036 20.7516 26.0901 20.6496 26.1419 20.5294C26.6917 19.2003 26.974 17.7759 26.9727 16.3376V16.2998C26.9727 16.2123 26.9553 16.1255 26.9215 16.0447C26.8877 15.9639 26.8382 15.8907 26.7758 15.8292C26.7134 15.7677 26.6394 15.7192 26.5582 15.6866C26.4769 15.6539 26.3899 15.6377 26.3024 15.639Z" fill="#595A5B"/>
<path d="M20.6565 20.5104L20.2364 18.0557C20.226 18.0121 20.228 17.9665 20.2422 17.9239C20.2564 17.8814 20.2822 17.8437 20.3166 17.815L22.1057 16.0779C22.3198 15.8672 22.4704 15.6006 22.5405 15.3086C22.6106 15.0165 22.5973 14.7106 22.5022 14.4257C22.4114 14.1423 22.2421 13.8903 22.0141 13.699C21.786 13.5077 21.5085 13.3849 21.2135 13.3447L18.74 12.9907C18.6971 12.9789 18.6572 12.9581 18.623 12.9296C18.5888 12.9011 18.5611 12.8656 18.5418 12.8255L17.4372 10.5927C17.3071 10.3232 17.1037 10.0959 16.8503 9.93682C16.5969 9.77774 16.3037 9.69336 16.0045 9.69336C15.7053 9.69336 15.4122 9.77774 15.1587 9.93682C14.9053 10.0959 14.7019 10.3232 14.5718 10.5927L13.4625 12.8255C13.4425 12.8668 13.4134 12.9031 13.3775 12.9317C13.3415 12.9603 13.2996 12.9805 13.2548 12.9907L10.7908 13.3447C10.4955 13.3824 10.2173 13.5044 9.98959 13.6961C9.76187 13.8879 9.59425 14.1412 9.50679 14.4257C9.40823 14.7102 9.39319 15.017 9.46346 15.3098C9.53372 15.6026 9.68636 15.8691 9.90331 16.0779L11.6876 17.815C11.723 17.8429 11.7495 17.8806 11.7637 17.9234C11.778 17.9662 11.7794 18.0122 11.7679 18.0557L11.3289 20.5104C11.2752 20.8026 11.3063 21.1041 11.4184 21.3793C11.5304 21.6544 11.7189 21.8918 11.9614 22.0634C12.206 22.2503 12.4999 22.3615 12.8069 22.3833C13.1139 22.4051 13.4206 22.3366 13.6891 22.1861L15.8936 21.0107C15.9304 20.9856 15.974 20.9721 16.0187 20.9721C16.0633 20.9721 16.1069 20.9856 16.1438 21.0107L18.3341 22.1861C18.5656 22.3025 18.8208 22.3639 19.0799 22.3655C19.422 22.3692 19.755 22.256 20.024 22.0445C20.2624 21.8736 20.4481 21.6393 20.56 21.368C20.6718 21.0968 20.7052 20.7997 20.6565 20.5104ZM18.9194 18.2729L19.349 20.7275C19.3604 20.7795 19.3562 20.8337 19.3369 20.8832C19.3176 20.9328 19.284 20.9755 19.2404 21.006C19.1969 21.0323 19.1472 21.0461 19.0964 21.0461C19.0457 21.0461 18.9959 21.0323 18.9524 21.006L16.748 19.8259C16.5184 19.709 16.2645 19.6475 16.0069 19.6465C15.7475 19.6459 15.4918 19.7074 15.261 19.8259L13.0566 21.006C13.0124 21.0327 12.9618 21.0468 12.9102 21.0468C12.8587 21.0468 12.8081 21.0327 12.7639 21.006C12.7221 20.974 12.6898 20.9311 12.6707 20.882C12.6515 20.8329 12.6462 20.7794 12.6553 20.7275L13.0755 18.2729C13.1186 18.0162 13.0982 17.7529 13.0159 17.506C12.9336 17.2591 12.7919 17.0362 12.6034 16.8567L10.8568 15.1055C10.8146 15.0724 10.7834 15.0273 10.7674 14.9762C10.7514 14.925 10.7513 14.8702 10.7672 14.819C10.7831 14.7678 10.8142 14.7226 10.8563 14.6894C10.8984 14.6563 10.9497 14.6368 11.0032 14.6334L13.4767 14.2699C13.7224 14.23 13.9551 14.1327 14.1561 13.9859C14.3571 13.8391 14.5205 13.6469 14.6332 13.425L15.7378 11.1922C15.7582 11.1435 15.7933 11.1024 15.8381 11.0745C15.8829 11.0466 15.9353 11.0333 15.988 11.0364C16.0392 11.0346 16.0898 11.0485 16.1329 11.0764C16.1759 11.1043 16.2094 11.1447 16.2287 11.1922L17.3286 13.425C17.4447 13.6604 17.617 13.8636 17.8302 14.0167C18.0434 14.1698 18.291 14.2681 18.5512 14.303L21.0153 14.6665C21.0659 14.6708 21.1141 14.6902 21.1537 14.7222C21.1932 14.7542 21.2223 14.7972 21.2371 14.8458C21.254 14.8933 21.2572 14.9446 21.2464 14.9939C21.2355 15.0431 21.2111 15.0883 21.1758 15.1243L19.382 16.8567C19.1962 17.0378 19.057 17.2612 18.9764 17.5079C18.8959 17.7545 18.8763 18.017 18.9194 18.2729Z" fill="#595A5B"/>
</g>
<defs>
<clipPath id="clip0_113_276">
<rect width="32" height="42.9703" fill="white"/>
</clipPath>
</defs>
</svg>
