<svg width="32" height="42" viewBox="0 0 32 42" fill="none" xmlns="http://www.w3.org/2000/svg">
<g clip-path="url(#clip0_115_1529)">
<path d="M29.5038 16.4357H29.3023V13.3132C29.3344 11.5455 29.0139 9.78902 28.3596 8.14648C27.7053 6.50395 26.7302 5.00826 25.4914 3.74676C24.2526 2.48527 22.7748 1.48325 21.1444 0.799242C19.514 0.115232 17.7637 -0.237061 15.9956 -0.237061C14.2276 -0.237061 12.4772 0.115232 10.8468 0.799242C9.21643 1.48325 7.73867 2.48527 6.49985 3.74676C5.26103 5.00826 4.28599 6.50395 3.63167 8.14648C2.97734 9.78902 2.65686 11.5455 2.68893 13.3132V16.4357H2.4831C1.82409 16.4392 1.1932 16.7031 0.728022 17.1699C0.262849 17.6367 0.00114704 18.2686 0 18.9276L0 25.0587C0.0152804 29.2577 1.67369 33.2839 4.62026 36.2755C7.56683 39.267 11.5674 40.9863 15.7657 41.0653H15.9759C20.1361 41.0551 24.1223 39.395 27.0601 36.4494C28.6141 34.9126 29.8503 33.0848 30.6979 31.0702C31.5455 29.0557 31.9879 26.8939 32 24.7083V18.9276C31.9977 18.2666 31.7338 17.6335 31.266 17.1666C30.7983 16.6996 30.1647 16.4369 29.5038 16.4357ZM3.94143 13.3132C4.00163 10.1537 5.299 7.14398 7.55469 4.93086C9.81038 2.71774 12.8443 1.47794 16.0044 1.47794C19.1644 1.47794 22.1984 2.71774 24.4541 4.93086C26.7098 7.14398 28.0071 10.1537 28.0673 13.3132V16.4357H25.2514V13.3132C25.1988 10.8945 24.201 8.59249 22.4717 6.90047C20.7425 5.20844 18.4193 4.26094 16 4.26094C13.5807 4.26094 11.2575 5.20844 9.52828 6.90047C7.79904 8.59249 6.80123 10.8945 6.7486 13.3132V16.4357H3.94143V13.3132ZM8.00109 16.4357V13.3132C8.00109 12.2619 8.20816 11.2209 8.61047 10.2497C9.01279 9.2784 9.60247 8.39589 10.3458 7.65251C11.0892 6.90913 11.9717 6.31945 12.943 5.91714C13.9143 5.51483 14.9553 5.30776 16.0066 5.30776C17.0579 5.30776 18.0989 5.51483 19.0701 5.91714C20.0414 6.31945 20.9239 6.90913 21.6673 7.65251C22.4107 8.39589 23.0003 9.2784 23.4027 10.2497C23.805 11.2209 24.012 12.2619 24.012 13.3132V16.4357H8.00109ZM30.7738 24.7083C30.763 26.7313 30.352 28.7321 29.5642 30.5953C28.7765 32.4586 27.6278 34.1476 26.1842 35.5648C24.8283 36.9362 23.2091 38.0195 21.424 38.7495C19.639 39.4795 17.7247 39.8411 15.7964 39.8128C11.9238 39.7441 8.2322 38.1611 5.51275 35.4032C2.79331 32.6453 1.2624 28.9318 1.24812 25.0587V18.9276C1.24812 18.5996 1.37809 18.2851 1.60957 18.0528C1.84105 17.8205 2.15516 17.6894 2.4831 17.6882H29.5038C29.6673 17.6871 29.8294 17.7183 29.9807 17.78C30.1321 17.8418 30.2698 17.9329 30.3858 18.0481C30.5018 18.1633 30.5939 18.3003 30.6567 18.4513C30.7195 18.6022 30.7519 18.7641 30.7519 18.9276L30.7738 24.7083Z" fill="#595A5B"/>
<path d="M15.9976 22.2339C15.3807 22.2319 14.7771 22.4136 14.264 22.756C13.7508 23.0984 13.3512 23.586 13.1163 24.1564C12.8814 24.7268 12.8217 25.3543 12.9449 25.9588C13.068 26.5633 13.3685 27.1174 13.8079 27.5504L12.897 32.648C12.8808 32.7382 12.8846 32.8308 12.908 32.9193C12.9315 33.0078 12.9741 33.0901 13.0328 33.1604C13.0921 33.228 13.1647 33.2828 13.2461 33.3212C13.3274 33.3596 13.4158 33.3809 13.5057 33.3838H18.4807C18.5721 33.3818 18.6621 33.361 18.745 33.3226C18.8279 33.2841 18.9019 33.2289 18.9624 33.1604C19.0209 33.0899 19.0636 33.0077 19.0878 32.9193C19.112 32.831 19.117 32.7385 19.1026 32.648L18.1873 27.5504C18.6267 27.1174 18.9272 26.5633 19.0503 25.9588C19.1735 25.3543 19.1138 24.7268 18.8789 24.1564C18.644 23.586 18.2444 23.0984 17.7312 22.756C17.2181 22.4136 16.6145 22.2319 15.9976 22.2339ZM16.8735 27.4191L17.7231 32.1488H14.2196L15.0604 27.4191C15.0816 27.3093 15.0711 27.1958 15.03 27.0918C14.9888 26.9878 14.9189 26.8978 14.8283 26.8322C14.6032 26.6562 14.4205 26.4317 14.2939 26.1755C14.1673 25.9192 14.1 25.6378 14.097 25.352C14.0957 25.034 14.1757 24.721 14.3294 24.4426C14.4831 24.1642 14.7054 23.9297 14.9752 23.7614C15.2451 23.5931 15.5534 23.4966 15.871 23.481C16.1887 23.4654 16.505 23.5313 16.79 23.6723C17.075 23.8134 17.3193 24.0249 17.4995 24.2869C17.6798 24.5489 17.7901 24.8526 17.8199 25.1692C17.8498 25.4858 17.7982 25.8048 17.6701 26.0958C17.542 26.3869 17.3417 26.6404 17.0881 26.8322C17.0072 26.9045 16.9469 26.9968 16.9131 27.0998C16.8792 27.2028 16.8731 27.3129 16.8954 27.4191H16.8735Z" fill="#595A5B"/>
</g>
<defs>
<clipPath id="clip0_115_1529">
<rect width="32" height="41.0653" fill="white"/>
</clipPath>
</defs>
</svg>
