<svg width="32" height="33" viewBox="0 0 32 33" fill="none" xmlns="http://www.w3.org/2000/svg">
<g clip-path="url(#clip0_115_2543)">
<path d="M14.1986 13.1357L7.93174 6.87744L6.87305 7.9276L13.1399 14.2029L14.1986 13.1357Z" fill="#09ABB6"/>
<path d="M24.9561 10.6469C25.7473 10.8402 26.5741 10.8328 27.3617 10.6256C28.1492 10.4184 28.8726 10.0178 29.4662 9.46029C30.0598 8.90274 30.5048 8.20583 30.7609 7.43277C31.017 6.6597 31.076 5.83494 30.9327 5.03328L27.4833 8.47405C27.4231 8.53585 27.3473 8.58033 27.2639 8.60286C27.1806 8.62538 27.0927 8.62513 27.0095 8.60212C26.135 8.3856 25.336 7.93502 24.6982 7.29876C24.0605 6.66249 23.608 5.86455 23.3894 4.99059C23.3679 4.9066 23.3693 4.81839 23.3933 4.73508C23.4173 4.65177 23.4631 4.57639 23.526 4.51674L26.9668 1.07597C26.1923 0.939703 25.3964 0.991499 24.646 1.227C23.8957 1.4625 23.2129 1.87481 22.6552 2.42922C22.0591 3.02173 21.6276 3.7592 21.403 4.56909C21.1785 5.37898 21.1686 6.23338 21.3745 7.04822C21.392 7.13037 21.3886 7.21558 21.3648 7.2961C21.3409 7.37662 21.2973 7.4499 21.2379 7.50927L7.51323 21.2254C7.45765 21.2912 7.38346 21.3386 7.30041 21.3615C7.21736 21.3843 7.12934 21.3815 7.04792 21.3535C6.25693 21.1614 5.43053 21.1695 4.64349 21.3772C3.85644 21.5848 3.13358 21.9854 2.54028 22.5427C1.94698 23.1 1.50197 23.7964 1.2455 24.5689C0.989031 25.3414 0.929193 26.1657 1.0714 26.9671L4.51644 23.5263C4.57764 23.4646 4.65417 23.4201 4.73817 23.3976C4.82218 23.3751 4.91066 23.3754 4.99456 23.3983C5.87099 23.6156 6.67124 24.0686 7.30861 24.7082C7.94598 25.3478 8.39615 26.1497 8.61035 27.0269C8.63148 27.1075 8.63075 27.1923 8.60824 27.2726C8.58573 27.3529 8.54226 27.4257 8.48228 27.4837L5.03725 30.9372C5.81139 31.0684 6.60557 31.0145 7.35492 30.7801C8.10427 30.5456 8.78753 30.1372 9.34888 29.5882C9.94214 28.9903 10.3716 28.2497 10.5959 27.4378C10.8201 26.6259 10.8318 25.7699 10.6296 24.9522C10.6072 24.8709 10.6072 24.7851 10.6298 24.7039C10.6523 24.6227 10.6965 24.5492 10.7576 24.4911L24.4866 10.775C24.5464 10.7139 24.6215 10.6699 24.704 10.6474C24.7865 10.6249 24.8735 10.6247 24.9561 10.6469Z" fill="#09ABB6"/>
<path d="M7.8077 5.57967L5.06704 1.68213L1.68604 5.06313L5.59212 7.81233L5.82264 7.58181L7.57718 5.82727L7.8077 5.57967Z" fill="#09ABB6"/>
<path d="M20.0637 20.9179L19.5984 21.379L18.8898 22.0833C18.7997 22.1785 18.7495 22.3045 18.7495 22.4355C18.7495 22.5665 18.7997 22.6926 18.8898 22.7877L25.9207 29.7888C26.3732 30.2398 26.9692 30.5183 27.6054 30.576C28.2416 30.6336 28.878 30.4669 29.4042 30.1047L20.1406 20.8496L20.0637 20.9179Z" fill="#09ABB6"/>
<path d="M22.7747 18.9074C22.6803 18.8167 22.5554 18.7649 22.4246 18.7622C22.2927 18.7655 22.1666 18.8171 22.0703 18.9074L20.8408 20.1453L30.1087 29.4132C30.4238 28.9564 30.5921 28.4143 30.5911 27.8593C30.5941 27.5006 30.525 27.145 30.3879 26.8135C30.2507 26.482 30.0484 26.1815 29.7928 25.9298L22.7747 18.9074Z" fill="#09ABB6"/>
<path d="M20.1064 19.4708L20.3156 19.2531L18.8641 17.8145L17.9463 18.7237L19.402 20.1752L19.7905 19.7867L20.1064 19.4708Z" fill="#09ABB6"/>
<path d="M23.479 18.2029C23.195 17.9332 22.8184 17.7829 22.4267 17.7829C22.0351 17.7829 21.6584 17.9332 21.3744 18.2029L21.0201 18.5615L19.5644 17.11L24.9988 11.6671C25.9441 11.8559 26.9214 11.8077 27.8436 11.5269C28.7658 11.2461 29.6041 10.7413 30.2837 10.0577C31.0711 9.26547 31.6177 8.26626 31.8602 7.17597C32.1028 6.08568 32.0313 4.94896 31.6541 3.89765C31.6273 3.81964 31.5811 3.74973 31.5198 3.69447C31.4586 3.63921 31.3843 3.60042 31.304 3.58174C31.2202 3.56488 31.1335 3.5689 31.0516 3.59347C30.9697 3.61804 30.8951 3.6624 30.8344 3.72262L26.9924 7.56467C26.3917 7.37372 25.8456 7.04145 25.3999 6.59577C24.9542 6.15008 24.622 5.60398 24.431 5.0033L28.2731 1.16125C28.3304 1.10149 28.3724 1.02871 28.3954 0.949153C28.4185 0.869598 28.4219 0.785641 28.4054 0.704477C28.3877 0.624096 28.351 0.549152 28.2982 0.485989C28.2454 0.422827 28.1782 0.373306 28.1023 0.341617C27.0519 -0.0347519 25.9164 -0.106198 24.8271 0.135535C23.7378 0.377269 22.7391 0.922314 21.9465 1.70768C21.2632 2.38668 20.7587 3.22426 20.4779 4.14568C20.197 5.0671 20.1487 6.0437 20.3371 6.98836L14.8985 12.4313L8.63591 6.16872L8.80667 5.99797C8.8898 5.91676 8.94142 5.80871 8.95237 5.69302C8.96331 5.57733 8.93286 5.46151 8.86644 5.36616L5.54947 0.631905C5.50638 0.57161 5.4502 0.521853 5.38513 0.486366C5.32007 0.450878 5.24782 0.430581 5.1738 0.426996C5.10178 0.421891 5.0295 0.432196 4.96178 0.457223C4.89406 0.482251 4.83245 0.521427 4.78106 0.57214L0.563342 4.77705C0.511011 4.82906 0.470854 4.89202 0.445758 4.96141C0.420662 5.03079 0.41125 5.10487 0.418198 5.17833C0.423869 5.24998 0.445622 5.31943 0.481837 5.38151C0.518052 5.4436 0.567799 5.49672 0.627376 5.53692L5.36163 8.86243C5.44472 8.91879 5.54298 8.94857 5.64338 8.94781C5.7083 8.94981 5.77293 8.93832 5.83318 8.91408C5.89344 8.88983 5.948 8.85334 5.99344 8.80693L6.177 8.6319L12.4353 14.9072L7.00518 20.3331C5.98417 20.135 4.92892 20.2108 3.94668 20.5527C2.96444 20.8946 2.09022 21.4904 1.41287 22.2797C0.735519 23.0689 0.279179 24.0234 0.0902271 25.0461C-0.0987246 26.0689 -0.0135524 27.1234 0.337088 28.1026C0.368319 28.1801 0.417484 28.2492 0.480556 28.3041C0.543628 28.359 0.618812 28.3982 0.699948 28.4185C0.781438 28.4355 0.86583 28.4328 0.94605 28.4105C1.02627 28.3882 1.09998 28.347 1.16099 28.2904L5.00304 24.4483C5.60172 24.643 6.14586 24.9766 6.59101 25.4217C7.03617 25.8669 7.36971 26.411 7.56441 27.0097L3.72236 30.8517C3.66263 30.9109 3.6188 30.9842 3.59492 31.0648C3.57104 31.1453 3.56789 31.2307 3.58575 31.3128C3.6035 31.3945 3.64184 31.4704 3.69713 31.5331C3.75241 31.5959 3.82281 31.6435 3.90166 31.6714C4.95258 32.0484 6.08909 32.1185 7.17839 31.8736C8.26769 31.6287 9.26479 31.0788 10.0532 30.2882C10.7364 29.6127 11.2414 28.7783 11.5231 27.8597C11.8047 26.9411 11.8541 25.967 11.6669 25.0246L17.1055 19.5689L18.5612 21.0246L18.2069 21.3704C18.0676 21.5089 17.9571 21.6735 17.8817 21.8548C17.8063 22.0362 17.7674 22.2306 17.7674 22.427C17.7674 22.6234 17.8063 22.8178 17.8817 22.9991C17.9571 23.1805 18.0676 23.3451 18.2069 23.4836L25.2208 30.4932C25.9193 31.1929 26.8672 31.5864 27.8559 31.5872C28.8447 31.588 29.7932 31.196 30.4929 30.4974C31.1926 29.7989 31.5861 28.851 31.5869 27.8622C31.5877 26.8735 31.1957 25.925 30.4972 25.2253L23.479 18.2029ZM20.8109 19.0567L20.5633 19.3128L20.1834 19.6927L19.5431 20.3288L19.4022 20.1879L17.9294 18.7237L17.7885 18.5785L19.0692 17.2979L20.8109 19.0567ZM5.82268 7.58174L5.59216 7.81227L1.70742 5.06307L5.08842 1.68207L7.82908 5.57961L7.59856 5.82721L5.82268 7.58174ZM6.87284 7.92753L7.93154 6.87737L14.1983 13.1356L13.1396 14.2029L6.87284 7.92753ZM10.7747 24.491C10.7136 24.5491 10.6694 24.6226 10.6468 24.7038C10.6243 24.785 10.6242 24.8708 10.6466 24.9521C10.8488 25.7698 10.8372 26.6258 10.6129 27.4377C10.3886 28.2496 9.95917 28.9902 9.3659 29.5881C8.8041 30.1378 8.12013 30.5465 7.36997 30.781C6.61982 31.0155 5.82481 31.069 5.05 30.9371L8.49504 27.4836C8.55501 27.4256 8.59849 27.3528 8.62099 27.2725C8.6435 27.1923 8.64423 27.1074 8.62311 27.0268C8.4089 26.1496 7.95873 25.3477 7.32136 24.7081C6.684 24.0685 5.88374 23.6155 5.00731 23.3982C4.92342 23.3753 4.83494 23.375 4.75093 23.3975C4.66692 23.42 4.5904 23.4645 4.52919 23.5262L1.06708 26.967C0.922962 26.1645 0.981536 25.3387 1.23748 24.5645C1.49343 23.7904 1.93865 23.0924 2.53274 22.5339C3.12682 21.9755 3.85096 21.5742 4.63944 21.3665C5.42792 21.1589 6.25577 21.1514 7.04787 21.3448C7.12929 21.3729 7.21731 21.3757 7.30036 21.3528C7.38341 21.33 7.4576 21.2825 7.51318 21.2167L21.2293 7.50917C21.2887 7.4498 21.3323 7.37652 21.3562 7.296C21.38 7.21548 21.3834 7.13027 21.3659 7.04813C21.1601 6.23328 21.1699 5.37889 21.3944 4.569C21.619 3.75911 22.0505 3.02163 22.6466 2.42913C23.2057 1.87276 23.8906 1.4593 24.6433 1.22374C25.3961 0.988177 26.1945 0.937458 26.971 1.07588L23.5303 4.51664C23.4673 4.5763 23.4215 4.65168 23.3975 4.73498C23.3735 4.81829 23.3721 4.9065 23.3937 4.9905C23.6122 5.86446 24.0647 6.66239 24.7025 7.29866C25.3402 7.93493 26.1392 8.3855 27.0137 8.60202C27.0969 8.62503 27.1848 8.62529 27.2681 8.60276C27.3515 8.58024 27.4273 8.53575 27.4876 8.47395L30.9369 5.03319C31.0802 5.83484 31.0212 6.65961 30.7651 7.43267C30.509 8.20573 30.064 8.90264 29.4704 9.46019C28.8768 10.0177 28.1535 10.4183 27.3659 10.6255C26.5783 10.8327 25.7515 10.8401 24.9604 10.6468C24.8778 10.6246 24.7907 10.6248 24.7082 10.6473C24.6257 10.6698 24.5507 10.7139 24.4908 10.7749L10.7747 24.491ZM25.9209 29.7888L18.9113 22.7792C18.8212 22.684 18.771 22.558 18.771 22.427C18.771 22.296 18.8212 22.1699 18.9113 22.0748L19.6199 21.3704L20.0639 20.9179L20.1279 20.8582L29.3915 30.1132C28.8655 30.471 28.2313 30.6343 27.5978 30.5751C26.9644 30.5159 26.3715 30.2379 25.9209 29.7888ZM30.1087 29.4131L20.8408 20.1452L22.0703 18.9072C22.1666 18.817 22.2927 18.7654 22.4246 18.7621C22.5554 18.7648 22.6803 18.8166 22.7747 18.9072L29.7928 25.9297C30.0484 26.1814 30.2507 26.4819 30.3879 26.8134C30.525 27.1449 30.5941 27.5005 30.5911 27.8592C30.5921 28.4142 30.4238 28.9563 30.1087 29.4131Z" fill="white"/>
</g>
<defs>
<clipPath id="clip0_115_2543">
<rect width="32" height="32.0043" fill="white"/>
</clipPath>
</defs>
</svg>
