<svg width="32" height="33" viewBox="0 0 32 33" fill="none" xmlns="http://www.w3.org/2000/svg">
<g clip-path="url(#clip0_115_1525)">
<path d="M23.479 18.2029C23.195 17.9332 22.8184 17.7829 22.4267 17.7829C22.0351 17.7829 21.6584 17.9332 21.3744 18.2029L21.0201 18.5615L19.5644 17.11L24.9988 11.6671C25.9441 11.8559 26.9214 11.8077 27.8436 11.5269C28.7658 11.2461 29.6041 10.7413 30.2837 10.0577C31.0711 9.26547 31.6177 8.26626 31.8602 7.17597C32.1028 6.08568 32.0313 4.94896 31.6541 3.89765C31.6273 3.81964 31.5811 3.74973 31.5198 3.69447C31.4586 3.63921 31.3843 3.60042 31.304 3.58174C31.2202 3.56488 31.1335 3.5689 31.0516 3.59347C30.9697 3.61804 30.8951 3.6624 30.8344 3.72262L26.9924 7.56467C26.3917 7.37372 25.8456 7.04145 25.3999 6.59577C24.9542 6.15008 24.622 5.60398 24.431 5.0033L28.2731 1.16125C28.3304 1.10149 28.3724 1.02871 28.3954 0.949153C28.4185 0.869598 28.4219 0.785641 28.4054 0.704477C28.3877 0.624096 28.351 0.549152 28.2982 0.485989C28.2454 0.422827 28.1782 0.373306 28.1023 0.341617C27.0519 -0.0347519 25.9164 -0.106198 24.8271 0.135535C23.7378 0.377269 22.7391 0.922314 21.9465 1.70768C21.2632 2.38668 20.7587 3.22426 20.4779 4.14568C20.197 5.0671 20.1487 6.0437 20.3371 6.98836L14.8942 12.4313L8.63591 6.16872L8.80667 5.99797C8.8898 5.91676 8.94142 5.80871 8.95237 5.69302C8.96331 5.57733 8.93286 5.46151 8.86644 5.36616L5.54947 0.631905C5.50638 0.57161 5.4502 0.521853 5.38513 0.486366C5.32007 0.450878 5.24782 0.430581 5.1738 0.426996C5.10178 0.421891 5.0295 0.432196 4.96178 0.457223C4.89406 0.482251 4.83245 0.521427 4.78106 0.57214L0.563342 4.77705C0.511011 4.82906 0.470854 4.89202 0.445758 4.96141C0.420662 5.03079 0.41125 5.10487 0.418198 5.17833C0.422926 5.25021 0.444281 5.32002 0.48058 5.38225C0.516879 5.44447 0.56713 5.49742 0.627376 5.53692L5.36163 8.86243C5.44472 8.91879 5.54298 8.94857 5.64338 8.94781C5.7083 8.94981 5.77293 8.93832 5.83318 8.91408C5.89344 8.88983 5.948 8.85334 5.99344 8.80693L6.177 8.6319L12.4353 14.9072L7.00518 20.3331C5.98417 20.135 4.92892 20.2108 3.94668 20.5527C2.96444 20.8946 2.09022 21.4904 1.41287 22.2797C0.735519 23.0689 0.279179 24.0234 0.0902271 25.0461C-0.0987246 26.0689 -0.0135524 27.1234 0.337088 28.1026C0.368319 28.1801 0.417484 28.2492 0.480556 28.3041C0.543628 28.359 0.618812 28.3982 0.699948 28.4185C0.781438 28.4355 0.86583 28.4328 0.94605 28.4105C1.02627 28.3882 1.09998 28.347 1.16099 28.2904L5.00304 24.4483C5.60172 24.643 6.14586 24.9766 6.59101 25.4217C7.03617 25.8669 7.36971 26.411 7.56441 27.0097L3.72236 30.8517C3.66263 30.9109 3.6188 30.9842 3.59492 31.0648C3.57104 31.1453 3.56789 31.2307 3.58575 31.3128C3.6035 31.3945 3.64184 31.4704 3.69713 31.5331C3.75241 31.5959 3.82281 31.6435 3.90166 31.6714C4.95258 32.0484 6.08909 32.1185 7.17839 31.8736C8.26769 31.6287 9.26479 31.0788 10.0532 30.2882C10.7364 29.6127 11.2414 28.7783 11.5231 27.8597C11.8047 26.9411 11.8541 25.967 11.6669 25.0246L17.1055 19.5689L18.5612 21.0246L18.2069 21.3704C18.0676 21.5089 17.9571 21.6735 17.8817 21.8548C17.8063 22.0362 17.7674 22.2306 17.7674 22.427C17.7674 22.6234 17.8063 22.8178 17.8817 22.9991C17.9571 23.1805 18.0676 23.3451 18.2069 23.4836L25.2208 30.4932C25.9193 31.1929 26.8672 31.5864 27.8559 31.5872C28.8447 31.588 29.7932 31.196 30.4929 30.4974C31.1926 29.7989 31.5861 28.851 31.5869 27.8622C31.5877 26.8735 31.1957 25.925 30.4972 25.2253L23.479 18.2029ZM5.59216 7.81227L1.70742 5.06307L5.08842 1.68207L7.82908 5.57961L7.59856 5.82721L5.84402 7.58174L5.59216 7.81227ZM6.87284 7.92753L7.93154 6.87737L14.1983 13.1356L13.1396 14.2029L6.87284 7.92753ZM10.6466 24.9521C10.8488 25.7698 10.8372 26.6258 10.6129 27.4377C10.3886 28.2496 9.95917 28.9902 9.3659 29.5881C8.8041 30.1378 8.12013 30.5465 7.36997 30.781C6.61982 31.0155 5.82481 31.069 5.05 30.9371L8.49504 27.4836C8.55501 27.4256 8.59849 27.3528 8.62099 27.2725C8.6435 27.1923 8.64423 27.1074 8.62311 27.0268C8.4089 26.1496 7.95873 25.3477 7.32136 24.7081C6.684 24.0685 5.88374 23.6155 5.00731 23.3982C4.92342 23.3753 4.83494 23.375 4.75093 23.3975C4.66692 23.42 4.5904 23.4645 4.52919 23.5262L1.06708 26.967C0.922962 26.1645 0.981536 25.3387 1.23748 24.5645C1.49343 23.7904 1.93865 23.0924 2.53274 22.5339C3.12682 21.9755 3.85096 21.5742 4.63944 21.3665C5.42792 21.1589 6.25577 21.1514 7.04787 21.3448C7.12929 21.3729 7.21731 21.3757 7.30036 21.3528C7.38341 21.33 7.4576 21.2825 7.51318 21.2167L21.2293 7.50917C21.2887 7.4498 21.3323 7.37652 21.3562 7.296C21.38 7.21548 21.3834 7.13027 21.3659 7.04813C21.1601 6.23328 21.1699 5.37889 21.3944 4.569C21.619 3.75911 22.0505 3.02163 22.6466 2.42913C23.2057 1.87276 23.8906 1.4593 24.6433 1.22374C25.3961 0.988177 26.1945 0.937458 26.971 1.07588L23.5303 4.51664C23.4673 4.5763 23.4215 4.65168 23.3975 4.73498C23.3735 4.81829 23.3721 4.9065 23.3937 4.9905C23.6122 5.86446 24.0647 6.66239 24.7025 7.29866C25.3402 7.93493 26.1392 8.3855 27.0137 8.60202C27.0969 8.62503 27.1848 8.62529 27.2681 8.60276C27.3515 8.58024 27.4273 8.53575 27.4876 8.47395L30.9369 5.03319C31.0802 5.83484 31.0212 6.65961 30.7651 7.43267C30.509 8.20573 30.064 8.90264 29.4704 9.46019C28.8768 10.0177 28.1535 10.4183 27.3659 10.6255C26.5783 10.8327 25.7515 10.8401 24.9604 10.6468C24.8778 10.6246 24.7907 10.6248 24.7082 10.6473C24.6257 10.6698 24.5507 10.7139 24.4908 10.7749L10.7747 24.491C10.7136 24.5491 10.6694 24.6226 10.6468 24.7038C10.6243 24.785 10.6242 24.8708 10.6466 24.9521ZM17.8056 18.8646L18.86 17.8144L20.3157 19.253L20.1066 19.4708L19.7907 19.7867L19.257 20.316L17.8056 18.8646ZM25.9166 29.7888L18.9113 22.7792C18.8212 22.684 18.771 22.558 18.771 22.427C18.771 22.296 18.8212 22.1699 18.9113 22.0748L19.6199 21.3704L20.0639 20.9179L20.1279 20.8582L29.3915 30.1132C28.8655 30.471 28.2313 30.6343 27.5978 30.5751C26.9644 30.5159 26.3715 30.2379 25.9209 29.7888H25.9166ZM30.1044 29.4131L20.8408 20.1452L22.0703 18.9072C22.1666 18.817 22.2927 18.7654 22.4246 18.7621C22.5554 18.7648 22.6803 18.8166 22.7747 18.9072L29.7928 25.9297C30.0484 26.1814 30.2507 26.4819 30.3879 26.8134C30.525 27.1449 30.5941 27.5005 30.5911 27.8592C30.5921 28.4142 30.4238 28.9563 30.1087 29.4131H30.1044Z" fill="#595A5B"/>
</g>
<defs>
<clipPath id="clip0_115_1525">
<rect width="32" height="32.0043" fill="white"/>
</clipPath>
</defs>
</svg>
