<svg width="32" height="32" viewBox="0 0 32 32" fill="none" xmlns="http://www.w3.org/2000/svg">
<g clip-path="url(#clip0_115_2516)">
<path d="M0.467285 0.602051V0.68918C0.495008 0.661457 0.51481 0.629774 0.542533 0.602051H0.467285Z" fill="#09ABB6"/>
<path d="M31.0297 1.94062C31.0277 1.6825 30.9245 1.43547 30.7423 1.25258C30.5602 1.06969 30.3136 0.965504 30.0555 0.962402H1.93666C1.67855 0.965504 1.43195 1.06969 1.24979 1.25258C1.06764 1.43547 0.964457 1.6825 0.962402 1.94062V17.6436C0.962617 17.776 0.990163 17.907 1.04332 18.0283C1.09647 18.1496 1.17409 18.2586 1.27131 18.3485H8.08319L10.8 15.6277C10.8917 15.5385 11.0146 15.4885 11.1426 15.4885C11.2706 15.4885 11.3935 15.5385 11.4852 15.6277C11.531 15.6731 11.5674 15.727 11.5923 15.7865C11.6172 15.846 11.6299 15.9098 11.6299 15.9743C11.6299 16.0388 11.6172 16.1026 11.5923 16.1621C11.5674 16.2215 11.531 16.2755 11.4852 16.3208L9.45349 18.3485H13.0178L15.7347 15.6277C15.771 15.5956 15.8109 15.5677 15.8535 15.5446C15.9375 15.5005 16.0323 15.4813 16.1268 15.4891C16.176 15.4949 16.2241 15.5082 16.2693 15.5287C16.3116 15.5478 16.3515 15.5717 16.3881 15.6C16.4465 15.6475 16.4927 15.7082 16.523 15.7771C16.5533 15.8459 16.5668 15.921 16.5624 15.9961V18.3723H30.7248C30.8207 18.2816 30.8972 18.1723 30.9497 18.0511C31.0021 17.93 31.0293 17.7994 31.0297 17.6674V1.94062ZM29.5961 16.6654C29.7023 16.7344 29.7772 16.8424 29.8047 16.9661C29.8321 17.0898 29.8098 17.2193 29.7426 17.3268C29.6986 17.3919 29.6398 17.4456 29.5709 17.4835C29.502 17.5214 29.4251 17.5423 29.3466 17.5446C29.2536 17.5486 29.1618 17.5222 29.0852 17.4693L18.6139 10.7525L16.2773 12.404C16.1973 12.4676 16.0982 12.5022 15.9961 12.5022C15.8939 12.5022 15.7948 12.4676 15.7149 12.404L13.3862 10.7525L2.92676 17.4852C2.87364 17.5204 2.81404 17.5446 2.75144 17.5565C2.68884 17.5684 2.62449 17.5677 2.56217 17.5544C2.49984 17.5412 2.44079 17.5156 2.38847 17.4792C2.33615 17.4428 2.29161 17.3964 2.25745 17.3426C2.22261 17.2899 2.19873 17.2307 2.18723 17.1685C2.17574 17.1064 2.17686 17.0426 2.19053 16.9808C2.2042 16.9191 2.23014 16.8608 2.26681 16.8093C2.30348 16.7579 2.35013 16.7143 2.40399 16.6812L12.5347 10.1466L2.37626 2.9228C2.27322 2.8467 2.20369 2.73363 2.18227 2.60734C2.16086 2.48106 2.18922 2.35138 2.26141 2.24557C2.29812 2.19329 2.34483 2.14881 2.39884 2.1147C2.45284 2.08058 2.51308 2.05752 2.57606 2.04684C2.63904 2.03616 2.70352 2.03807 2.76575 2.05247C2.82799 2.06687 2.88675 2.09346 2.93864 2.13072L13.6753 9.77428L15.9921 11.4139L18.3169 9.77428L29.0495 2.13072C29.1548 2.06749 29.28 2.04632 29.4001 2.07145C29.5203 2.09658 29.6266 2.16616 29.6976 2.26626C29.7687 2.36636 29.7993 2.4896 29.7835 2.61133C29.7676 2.73306 29.7063 2.8443 29.6119 2.9228L19.4654 10.1466L29.5961 16.6654Z" fill="#09ABB6"/>
<path d="M15.5723 17.1406L14.3644 18.3486H15.5723V17.1406Z" fill="#09ABB6"/>
<path d="M24.8039 18.6139C24.6757 18.6139 24.5528 18.6648 24.4622 18.7554C24.3716 18.846 24.3207 18.9689 24.3207 19.097C24.3207 19.2252 24.3716 19.3481 24.4622 19.4387C24.5528 19.5293 24.6757 19.5802 24.8039 19.5802H30.0554C30.3109 19.5807 30.564 19.5308 30.8001 19.4332C31.0363 19.3357 31.2509 19.1925 31.4315 19.0118C31.6122 18.8311 31.7554 18.6166 31.853 18.3804C31.9505 18.1443 32.0004 17.8912 31.9999 17.6356V1.94059C31.9978 1.42587 31.7922 0.932892 31.4278 0.569299C31.0635 0.205706 30.5701 0.00104194 30.0554 0L1.93655 0C1.67547 0.000330237 1.4172 0.0538818 1.17751 0.157384C0.937818 0.260885 0.721746 0.412165 0.542489 0.60198C0.514766 0.629703 0.494964 0.661386 0.467241 0.689109C0.16916 1.03835 0.00369297 1.48146 -8.55214e-05 1.94059V17.6436C-0.00165454 17.8987 0.0473088 18.1516 0.14398 18.3877C0.240651 18.6238 0.383117 18.8385 0.563159 19.0193C0.7432 19.2 0.957255 19.3434 1.19297 19.441C1.42869 19.5387 1.68141 19.5886 1.93655 19.5881H4.43952C4.56766 19.5881 4.69056 19.5372 4.78117 19.4466C4.87178 19.356 4.92269 19.2331 4.92269 19.105C4.92269 18.9768 4.87178 18.8539 4.78117 18.7633C4.69056 18.6727 4.56766 18.6218 4.43952 18.6218H1.93655C1.67907 18.6167 1.43362 18.5119 1.2519 18.3294C1.07017 18.1469 0.966344 17.9011 0.962291 17.6436V1.94059C0.964346 1.68247 1.06753 1.43545 1.24968 1.25255C1.43183 1.06966 1.67844 0.965478 1.93655 0.962376H30.0554C30.3135 0.965478 30.5601 1.06966 30.7422 1.25255C30.9244 1.43545 31.0276 1.68247 31.0296 1.94059V17.6436C31.0255 17.9003 30.9214 18.1453 30.7395 18.3265C30.5576 18.5077 30.3121 18.6108 30.0554 18.6139H24.8039Z" fill="white"/>
<path d="M29.7267 2.24557C29.69 2.19329 29.6433 2.14881 29.5893 2.1147C29.5353 2.08059 29.475 2.05752 29.412 2.04684C29.3491 2.03616 29.2846 2.03807 29.2224 2.05247C29.1601 2.06687 29.1014 2.09347 29.0495 2.13072L18.3207 9.77428L15.996 11.4139L13.6792 9.77428L2.94253 2.13072C2.89064 2.09347 2.83188 2.06687 2.76964 2.05247C2.70741 2.03807 2.64293 2.03616 2.57995 2.04684C2.51697 2.05752 2.45674 2.08059 2.40273 2.1147C2.34872 2.14881 2.30201 2.19329 2.2653 2.24557C2.1927 2.35091 2.16369 2.48026 2.18436 2.60652C2.20504 2.73277 2.27379 2.84612 2.3762 2.9228L12.5346 10.1466L2.40392 16.6654C2.35006 16.6985 2.30342 16.742 2.26674 16.7935C2.23007 16.845 2.20413 16.9033 2.19046 16.965C2.17679 17.0267 2.17567 17.0905 2.18717 17.1527C2.19866 17.2148 2.22254 17.274 2.25738 17.3268C2.29154 17.3806 2.33608 17.427 2.3884 17.4634C2.44072 17.4997 2.49977 17.5253 2.5621 17.5386C2.62442 17.5519 2.68877 17.5526 2.75137 17.5407C2.81397 17.5288 2.87358 17.5045 2.92669 17.4693L13.3861 10.7367L15.7148 12.3881C15.7947 12.4518 15.8939 12.4864 15.996 12.4864C16.0981 12.4864 16.1973 12.4518 16.2772 12.3881L18.6138 10.7525L29.0732 17.4852C29.1498 17.538 29.2416 17.5644 29.3346 17.5604C29.4132 17.5582 29.4901 17.5372 29.5589 17.4993C29.6278 17.4615 29.6867 17.4077 29.7307 17.3426C29.7978 17.2352 29.8201 17.1056 29.7927 16.9819C29.7653 16.8582 29.6904 16.7502 29.5841 16.6812L19.4653 10.1466L29.6118 2.9228C29.6641 2.88609 29.7086 2.83939 29.7427 2.78538C29.7768 2.73137 29.7999 2.67113 29.8106 2.60815C29.8213 2.54517 29.8193 2.4807 29.8049 2.41846C29.7905 2.35623 29.7639 2.29746 29.7267 2.24557Z" fill="white"/>
<path d="M10.8 15.6277L8.08314 18.3485L4.62175 21.8178C4.57734 21.8626 4.54114 21.9149 4.51482 21.9722C4.49042 22.0286 4.47698 22.0891 4.47522 22.1505C4.47574 22.2171 4.48919 22.283 4.51482 22.3445C4.54218 22.4001 4.57828 22.4509 4.62175 22.495L10.8 28.6851C10.8946 28.7716 11.0165 28.822 11.1445 28.8277C11.2072 28.8263 11.2691 28.8129 11.3267 28.7881C11.3832 28.7599 11.4364 28.7253 11.4851 28.6851C11.531 28.6398 11.5674 28.5858 11.5922 28.5264C11.6171 28.4669 11.6299 28.403 11.6299 28.3386C11.6299 28.2741 11.6171 28.2103 11.5922 28.1508C11.5674 28.0913 11.531 28.0373 11.4851 27.992L5.6475 22.1505L8.8871 18.9148H7.52472L10.8 15.6277Z" fill="#09ABB6"/>
<path d="M15.5723 19.4059C15.5764 19.5358 15.6303 19.6591 15.7228 19.7504C15.7682 19.7931 15.8222 19.8255 15.8812 19.8455C15.9406 19.8678 16.0038 19.8786 16.0673 19.8772C17.7066 19.8973 19.3343 20.1562 20.899 20.6455C21.4792 20.8238 22.049 21.034 22.6059 21.2752C23.002 21.4415 23.398 21.6316 23.794 21.8415C26.8672 23.4834 29.2203 26.2092 30.396 29.4891C30.1307 29.2395 29.8297 28.9702 29.4931 28.697C28.0148 27.4963 26.3596 26.5317 24.5861 25.8376C23.9578 25.5894 23.3167 25.3752 22.6653 25.196C22.3247 25.1009 21.9762 25.0138 21.6158 24.9346C20.8649 24.7596 20.1046 24.6274 19.3386 24.5386C18.5007 24.448 17.6586 24.4031 16.8158 24.4039H16.0475C15.921 24.409 15.8013 24.4623 15.7129 24.5529C15.6245 24.6435 15.5742 24.7645 15.5723 24.891V27.1524L10.5624 22.1504L13.798 18.9148H12.4356L9.53662 21.8178C9.49121 21.8606 9.45485 21.9121 9.42968 21.9693C9.40451 22.0264 9.39105 22.088 9.39009 22.1504C9.38818 22.215 9.40029 22.2793 9.42559 22.3388C9.45089 22.3983 9.48876 22.4516 9.53662 22.495L15.7148 28.6851C15.749 28.7199 15.7893 28.7481 15.8337 28.7683C15.918 28.811 16.0128 28.8288 16.1069 28.8197C16.1553 28.8116 16.203 28.7997 16.2495 28.7841C16.2918 28.7651 16.3316 28.7412 16.3683 28.7128C16.4264 28.6651 16.4724 28.6044 16.5027 28.5356C16.5329 28.4668 16.5466 28.3918 16.5426 28.3168V25.3861H16.796C26.5188 25.3861 31.0733 31.6475 31.1168 31.7227C31.1378 31.7563 31.1646 31.7858 31.196 31.8098C31.2858 31.8852 31.3996 31.9259 31.5168 31.9247C31.5863 31.9231 31.6549 31.9084 31.7188 31.8811C31.7955 31.845 31.8614 31.7894 31.91 31.7199C31.9586 31.6505 31.9883 31.5695 31.996 31.4851C32.0059 31.4288 32.0059 31.3711 31.996 31.3148C31.8315 30.6443 31.6306 29.9832 31.394 29.3346C31.1738 28.7372 30.9199 28.1528 30.6337 27.5841C30.1177 26.5504 29.4852 25.579 28.7485 24.6891C28.5742 24.4792 28.396 24.293 28.2178 24.0831C27.8603 23.7061 27.4836 23.3479 27.0891 23.0098C26.899 22.8435 26.6931 22.6851 26.5109 22.5306C26.1201 22.2244 25.7241 21.9432 25.3228 21.6871C24.7429 21.3147 24.1397 20.98 23.5168 20.6851C22.94 20.4122 22.3491 20.1703 21.7465 19.9603C20.0686 19.3748 18.3169 19.0268 16.5426 18.9267H15.5723V19.4059Z" fill="#09ABB6"/>
<path d="M11.4852 15.6277C11.3935 15.5385 11.2706 15.4885 11.1426 15.4885C11.0146 15.4885 10.8917 15.5385 10.8 15.6277L7.52478 18.9149H8.89112L9.45745 18.3485L11.4852 16.3208C11.531 16.2755 11.5674 16.2215 11.5923 16.1621C11.6172 16.1026 11.6299 16.0387 11.6299 15.9743C11.6299 15.9098 11.6172 15.846 11.5923 15.7865C11.5674 15.727 11.531 15.6731 11.4852 15.6277Z" fill="white"/>
<path d="M16.3683 15.5999C16.3317 15.5716 16.2918 15.5476 16.2495 15.5286C16.2043 15.5081 16.1562 15.4948 16.107 15.489C16.0124 15.4812 15.9177 15.5004 15.8337 15.5445C15.7911 15.5676 15.7512 15.5955 15.7149 15.6276L12.998 18.3484L12.4357 18.9148H13.798L14.3644 18.3484L15.5525 17.1603V18.9346H16.5228V15.9762C16.5265 15.9059 16.5146 15.8357 16.4878 15.7707C16.4611 15.7056 16.4203 15.6473 16.3683 15.5999Z" fill="white"/>
</g>
<defs>
<clipPath id="clip0_115_2516">
<rect width="32" height="31.9208" fill="white"/>
</clipPath>
</defs>
</svg>
