<svg width="32" height="32" viewBox="0 0 32 32" fill="none" xmlns="http://www.w3.org/2000/svg">
<g clip-path="url(#clip0_115_1506)">
<path d="M30.0555 0H1.93667C1.42268 0.00104896 0.930098 0.205967 0.567023 0.569785C0.203947 0.933604 3.54786e-05 1.4266 3.65489e-05 1.94059V17.6436C-0.00153247 17.8987 0.0474309 18.1516 0.144102 18.3877C0.240773 18.6239 0.383239 18.8385 0.563281 19.0193C0.743323 19.2 0.957377 19.3434 1.1931 19.441C1.42881 19.5387 1.68153 19.5886 1.93667 19.5881H4.43964C4.56779 19.5881 4.69068 19.5372 4.78129 19.4466C4.8719 19.356 4.92281 19.2331 4.92281 19.105C4.92281 18.9768 4.8719 18.8539 4.78129 18.7633C4.69068 18.6727 4.56779 18.6218 4.43964 18.6218H1.93667C1.67824 18.6197 1.43104 18.5158 1.24867 18.3327C1.0663 18.1496 0.963447 17.902 0.962413 17.6436V1.94059C0.964468 1.68247 1.06765 1.43545 1.2498 1.25255C1.43196 1.06966 1.67856 0.965478 1.93667 0.962376H30.0555C30.3136 0.965478 30.5602 1.06966 30.7424 1.25255C30.9245 1.43545 31.0277 1.68247 31.0297 1.94059V17.6436C31.0266 17.9006 30.9229 18.1462 30.7407 18.3276C30.5586 18.509 30.3126 18.6118 30.0555 18.6139H24.804C24.6759 18.6139 24.553 18.6648 24.4623 18.7554C24.3717 18.846 24.3208 18.9689 24.3208 19.097C24.3208 19.2252 24.3717 19.3481 24.4623 19.4387C24.553 19.5293 24.6759 19.5802 24.804 19.5802H30.0555C30.311 19.5807 30.5641 19.5308 30.8002 19.4332C31.0364 19.3357 31.251 19.1925 31.4317 19.0118C31.6123 18.8311 31.7555 18.6166 31.8531 18.3804C31.9506 18.1443 32.0006 17.8912 32 17.6356V1.94059C31.9979 1.42587 31.7923 0.932892 31.4279 0.569299C31.0636 0.205706 30.5702 0.00104194 30.0555 0V0Z" fill="#595A5B"/>
<path d="M2.25726 17.3268C2.29142 17.3806 2.33596 17.427 2.38828 17.4634C2.4406 17.4997 2.49965 17.5253 2.56198 17.5386C2.6243 17.5519 2.68865 17.5526 2.75125 17.5407C2.81385 17.5288 2.87345 17.5045 2.92657 17.4693L13.386 10.7367L15.7147 12.3881C15.7946 12.4518 15.8937 12.4864 15.9959 12.4864C16.098 12.4864 16.1971 12.4518 16.2771 12.3881L18.6137 10.7525L29.0731 17.4852C29.1497 17.538 29.2415 17.5644 29.3345 17.5604C29.4131 17.5582 29.49 17.5372 29.5588 17.4993C29.6277 17.4615 29.6866 17.4077 29.7305 17.3426C29.7977 17.2352 29.82 17.1056 29.7926 16.9819C29.7652 16.8582 29.6903 16.7502 29.584 16.6812L19.4652 10.1466L29.6117 2.9228C29.7061 2.8443 29.7674 2.73306 29.7833 2.61133C29.7992 2.4896 29.7685 2.36636 29.6974 2.26626C29.6264 2.16616 29.5201 2.09659 29.4 2.07146C29.2798 2.04633 29.1546 2.06749 29.0493 2.13072L18.3206 9.77428L15.9959 11.4139L13.679 9.77428L2.94241 2.13072C2.89052 2.09347 2.83176 2.06687 2.76952 2.05247C2.70728 2.03807 2.64281 2.03616 2.57983 2.04684C2.51685 2.05752 2.45661 2.08059 2.40261 2.1147C2.3486 2.14881 2.30189 2.19329 2.26518 2.24557C2.19258 2.35091 2.16357 2.48026 2.18424 2.60652C2.20492 2.73277 2.27366 2.84612 2.37607 2.9228L12.5345 10.1466L2.4038 16.6654C2.34994 16.6985 2.30329 16.742 2.26662 16.7935C2.22995 16.845 2.20401 16.9033 2.19034 16.965C2.17667 17.0267 2.17555 17.0905 2.18704 17.1527C2.19854 17.2148 2.22242 17.274 2.25726 17.3268V17.3268Z" fill="#595A5B"/>
<path d="M5.64737 22.1506L11.485 16.3209C11.5769 16.23 11.629 16.1064 11.6297 15.9771C11.6304 15.8479 11.5798 15.7237 11.489 15.6318C11.3981 15.5399 11.2745 15.4878 11.1452 15.4871C11.016 15.4863 10.8918 15.537 10.7998 15.6278L4.62163 21.8179C4.53302 21.9067 4.48076 22.0253 4.4751 22.1506C4.47515 22.2149 4.48815 22.2786 4.51332 22.3378C4.5385 22.397 4.57533 22.4505 4.62163 22.4951L10.7998 28.6852C10.8944 28.7717 11.0164 28.8221 11.1444 28.8278C11.2713 28.8222 11.392 28.7717 11.485 28.6852C11.5309 28.6399 11.5673 28.586 11.5921 28.5265C11.617 28.467 11.6298 28.4032 11.6298 28.3387C11.6298 28.2742 11.617 28.2104 11.5921 28.1509C11.5673 28.0914 11.5309 28.0375 11.485 27.9922L5.64737 22.1506Z" fill="#595A5B"/>
<path d="M16.5428 18.9267V15.9762C16.5436 15.8795 16.5148 15.7848 16.4603 15.7048C16.4058 15.6248 16.3282 15.5634 16.2379 15.5287C16.1489 15.4907 16.0507 15.4799 15.9556 15.4975C15.8605 15.5151 15.7727 15.5604 15.7032 15.6277L9.53687 21.8178C9.49146 21.8607 9.45509 21.9122 9.42993 21.9693C9.40476 22.0265 9.39129 22.0881 9.39033 22.1505C9.38843 22.2151 9.40054 22.2794 9.42583 22.3388C9.45113 22.3983 9.48901 22.4516 9.53687 22.495L15.7151 28.6851C15.7845 28.7525 15.8723 28.7978 15.9675 28.8154C16.0626 28.833 16.1608 28.8221 16.2497 28.7842C16.3379 28.7476 16.4129 28.6854 16.4652 28.6055C16.5175 28.5257 16.5445 28.432 16.5428 28.3366V25.3861H16.7963C26.519 25.3861 31.0735 31.6475 31.1171 31.7228C31.1621 31.7857 31.2216 31.8369 31.2905 31.872C31.3594 31.9072 31.4357 31.9252 31.5131 31.9247C31.5826 31.9232 31.6511 31.9084 31.7151 31.8812C31.8166 31.8326 31.8984 31.7506 31.9467 31.649C31.995 31.5473 32.0069 31.4322 31.9804 31.3228C29.2082 20.198 18.9349 19.0416 16.5428 18.9267ZM16.8161 24.4238H16.0478C15.9213 24.4288 15.8015 24.4821 15.7132 24.5727C15.6248 24.6633 15.5744 24.7843 15.5725 24.9109V27.1723L10.5626 22.1505L15.5725 17.1406V19.4059C15.5767 19.5358 15.6305 19.6592 15.723 19.7505C15.8174 19.8353 15.9407 19.8807 16.0676 19.8772C16.5388 19.8772 26.7131 19.7624 30.3963 29.4931C28.2814 27.4891 23.8695 24.4238 16.8161 24.4238Z" fill="#595A5B"/>
</g>
<defs>
<clipPath id="clip0_115_1506">
<rect width="32" height="31.9208" fill="white"/>
</clipPath>
</defs>
</svg>
