<svg width="32" height="32" viewBox="0 0 32 32" fill="none" xmlns="http://www.w3.org/2000/svg">
<g clip-path="url(#clip0_115_2438)">
<path d="M23.7914 21.1201C32.6193 12.2839 26.4835 5.64444 26.4257 5.57838C25.0515 4.415 23.3572 3.69522 21.5658 3.51386C19.0884 3.23721 15.2649 3.83179 10.884 8.2127C5.10339 13.9933 0.994999 11.7224 0.825709 11.6233C0.723564 11.5599 0.603203 11.5323 0.483639 11.5449C0.364075 11.5575 0.252124 11.6096 0.165468 11.693C0.0788132 11.7763 0.0223939 11.8861 0.00512275 12.0051C-0.0121484 12.1241 0.010713 12.2454 0.0700958 12.35C1.49714 14.7661 3.14034 17.0478 4.97952 19.167C4.62815 20.2588 4.58472 21.4263 4.85401 22.5411C5.12331 23.6559 5.69488 24.6749 6.50585 25.4858C7.31683 26.2968 8.33578 26.8684 9.4506 27.1377C10.5654 27.407 11.7329 27.3635 12.8247 27.0122C14.9415 28.8501 17.222 30.4907 19.6376 31.9133C19.7193 31.9604 19.8117 31.986 19.906 31.9877C20.0021 31.9868 20.0962 31.9606 20.1789 31.9117C20.2616 31.8627 20.3299 31.7928 20.3768 31.709C20.4238 31.6251 20.4477 31.5304 20.4463 31.4343C20.4448 31.3382 20.4179 31.2442 20.3684 31.1619C20.356 31.133 17.9571 26.9585 23.7914 21.1201ZM10.9171 26.2483C10.1601 26.2488 9.41238 26.0827 8.72688 25.7617C8.04138 25.4407 7.43493 24.9728 6.95059 24.3911C6.46625 23.8094 6.11589 23.1283 5.92439 22.396C5.73288 21.6637 5.70491 20.8982 5.84248 20.1539C7.72217 22.273 9.72695 24.2778 11.8461 26.1575C11.54 26.2171 11.2289 26.2475 10.9171 26.2483ZM18.915 30.2204C12.8329 26.3639 5.6319 19.1629 1.77539 13.0808C3.69952 13.4937 7.28352 13.3286 11.6396 8.97244C14.914 5.69812 18.2089 4.21992 21.4337 4.57915C22.9847 4.73589 24.4538 5.35113 25.6536 6.34638C25.7114 6.40418 31.1204 12.2633 23.0275 20.3562C18.6673 24.7123 18.5227 28.3004 18.915 30.2204Z" fill="#595A5B"/>
<path d="M4.80176 9.67847C4.80176 9.82192 4.85875 9.9595 4.96018 10.0609C5.06162 10.1624 5.1992 10.2194 5.34266 10.2194C5.48612 10.2194 5.6237 10.1624 5.72514 10.0609C5.82658 9.9595 5.88356 9.82192 5.88356 9.67847C5.88575 8.16354 6.48852 6.71128 7.55974 5.64006C8.63096 4.56884 10.0832 3.96607 11.5981 3.96389C11.7416 3.96389 11.8792 3.9069 11.9806 3.80546C12.0821 3.70402 12.139 3.56644 12.139 3.42298C12.139 3.27953 12.0821 3.14195 11.9806 3.04051C11.8792 2.93907 11.7416 2.88208 11.5981 2.88208C9.79597 2.88317 8.06791 3.59957 6.79358 4.8739C5.51925 6.14824 4.80285 7.87629 4.80176 9.67847Z" fill="#595A5B"/>
<path d="M2.47734 8.90219C2.6208 8.90219 2.75838 8.8452 2.85982 8.74376C2.96126 8.64233 3.01824 8.50475 3.01824 8.36129C3.01933 6.43456 3.78378 4.58674 5.14426 3.2224C6.50473 1.85806 8.35036 1.08836 10.2771 1.08181C10.4205 1.08181 10.5581 1.02482 10.6596 0.923379C10.761 0.82194 10.818 0.68436 10.818 0.540903C10.818 0.397447 10.761 0.259866 10.6596 0.158427C10.5581 0.0569878 10.4205 0 10.2771 0C8.06092 0.0032789 5.93652 0.885382 4.36984 2.45284C2.80316 4.02029 1.92211 6.14512 1.91992 8.36129C1.91989 8.43373 1.93441 8.50544 1.96262 8.57217C1.99083 8.6389 2.03215 8.69928 2.08414 8.74973C2.13613 8.80017 2.19773 8.83967 2.26527 8.86586C2.33281 8.89205 2.40493 8.9044 2.47734 8.90219Z" fill="#595A5B"/>
<path d="M29.1137 20.3973C29.1137 20.2539 29.0567 20.1163 28.9552 20.0149C28.8538 19.9134 28.7162 19.8564 28.5728 19.8564C28.4293 19.8564 28.2917 19.9134 28.1903 20.0149C28.0888 20.1163 28.0319 20.2539 28.0319 20.3973C28.0297 21.9123 27.4269 23.3645 26.3557 24.4358C25.2845 25.507 23.8322 26.1097 22.3173 26.1119C22.1738 26.1119 22.0362 26.1689 21.9348 26.2704C21.8334 26.3718 21.7764 26.5094 21.7764 26.6528C21.7764 26.7963 21.8334 26.9339 21.9348 27.0353C22.0362 27.1367 22.1738 27.1937 22.3173 27.1937C24.1194 27.1926 25.8475 26.4762 27.1218 25.2019C28.3962 23.9276 29.1126 22.1995 29.1137 20.3973Z" fill="#595A5B"/>
<path d="M31.455 21.1778C31.3116 21.1778 31.174 21.2347 31.0725 21.3362C30.9711 21.4376 30.9141 21.5752 30.9141 21.7187C30.9119 23.6475 30.1447 25.4968 28.7808 26.8607C27.4169 28.2246 25.5676 28.9918 23.6388 28.994C23.5029 29.0059 23.3765 29.0682 23.2843 29.1687C23.1922 29.2692 23.1411 29.4006 23.1411 29.537C23.1411 29.6733 23.1922 29.8047 23.2843 29.9052C23.3765 30.0058 23.5029 30.0681 23.6388 30.0799C25.8553 30.0767 27.9801 29.1947 29.5475 27.6274C31.1148 26.06 31.9968 23.9352 32 21.7187C32 21.6473 31.9859 21.5766 31.9585 21.5107C31.931 21.4448 31.8908 21.385 31.8402 21.3347C31.7895 21.2844 31.7294 21.2447 31.6633 21.2177C31.5972 21.1908 31.5264 21.1772 31.455 21.1778Z" fill="#595A5B"/>
</g>
<defs>
<clipPath id="clip0_115_2438">
<rect width="32" height="32" fill="white"/>
</clipPath>
</defs>
</svg>
