<svg width="32" height="32" viewBox="0 0 32 32" fill="none" xmlns="http://www.w3.org/2000/svg">
<g clip-path="url(#clip0_115_2445)">
<path d="M5.98586 18.7905C5.82064 19.6852 5.85443 20.6054 6.08483 21.4855C6.31522 22.3657 6.73658 23.1844 7.31897 23.8834C7.90137 24.5825 8.63052 25.1447 9.45465 25.5302C10.2788 25.9157 11.1777 26.115 12.0875 26.1141C12.464 26.1133 12.8395 26.0771 13.2092 26.0061C10.6592 23.7476 8.24708 21.3381 5.98586 18.7905Z" fill="#09ABB6"/>
<path d="M29.8068 2.18538C28.3672 0.987945 26.6017 0.249513 24.7382 0.0654116C20.8606 -0.385564 16.8981 1.40678 12.9589 5.34221C7.70904 10.5843 3.40742 10.7616 1.09473 10.2875C5.72012 17.6111 14.3927 26.2567 21.7086 30.8975C21.2344 28.5848 21.4118 24.2755 26.6539 19.0334C36.3826 9.30463 29.8801 2.25476 29.8068 2.18538Z" fill="#09ABB6"/>
<path d="M0 8.55298C0.30073 8.7076 0.617373 8.82909 0.944351 8.9153C0.720571 8.84092 0.503863 8.74676 0.296796 8.63392C0.205979 8.58306 0.104065 8.55527 0 8.55298H0Z" fill="#09ABB6"/>
<path d="M23.127 31.1711C23.2045 31.4536 23.3078 31.7284 23.4353 31.9922C23.433 31.8893 23.4052 31.7886 23.3544 31.6992C23.2647 31.5295 23.1886 31.3529 23.127 31.1711Z" fill="#09ABB6"/>
</g>
<defs>
<clipPath id="clip0_115_2445">
<rect width="32" height="31.9846" fill="white"/>
</clipPath>
</defs>
</svg>
