<svg width="32" height="39" viewBox="0 0 32 39" fill="none" xmlns="http://www.w3.org/2000/svg">
<g clip-path="url(#clip0_115_2529)">
<path d="M27.9911 26.0555C26.942 25.5373 25.8557 25.098 24.7412 24.7413C24.134 24.5516 23.6358 24.395 23.1519 24.2669C22.6415 24.1184 22.1236 23.9965 21.6006 23.9016C20.8937 25.6617 17.7292 27.7682 16.5669 28.4893V37.1713C23.2753 37.0669 27.4455 35.4112 29.3527 34.3959C29.801 34.1634 30.1767 33.812 30.4386 33.3802C30.7005 32.9484 30.8386 32.4529 30.8376 31.9479V30.3633C30.8366 30.2046 30.8255 30.0461 30.8044 29.8889C30.3378 28.3244 29.3436 26.9698 27.9911 26.0555Z" fill="#09ABB6"/>
<path d="M1.16241 31.9477C1.15911 32.4509 1.29408 32.9453 1.5526 33.377C1.81112 33.8087 2.18325 34.1611 2.62839 34.3958C4.52609 35.411 8.70578 37.0668 15.4379 37.1711V28.4986C14.2803 27.7775 11.168 25.7043 10.409 23.9631C9.46012 24.1387 8.85759 24.2763 8.84336 24.2905C8.30399 24.4145 7.77313 24.573 7.25404 24.7649C6.04643 25.1371 4.87337 25.6133 3.74803 26.1882C2.97243 26.576 2.3199 27.1719 1.86332 27.9091C1.40674 28.6463 1.16407 29.496 1.16241 30.3631V31.9477Z" fill="#09ABB6"/>
<path d="M15.9928 21.9848C14.8515 21.972 13.7314 21.6753 12.7335 21.1213C12.4813 21.9865 12.0332 22.7819 11.4241 23.446C11.723 24.3949 13.8863 26.174 16.0023 27.4976C18.1135 26.174 20.2721 24.3949 20.5757 23.446C19.9638 22.7824 19.5126 21.987 19.2568 21.1213C18.2575 21.676 17.1357 21.9728 15.9928 21.9848Z" fill="#09ABB6"/>
<path d="M8.82908 9.65456C8.91447 9.294 9.06155 8.74367 9.3035 7.91342C9.31661 7.88579 9.32771 7.85725 9.33671 7.82803C9.33671 7.82803 9.36518 7.75686 9.3889 7.72365C9.41262 7.69044 9.4316 7.67147 9.46006 7.65723C9.48853 7.643 9.48853 7.59081 9.52648 7.59081C9.56444 7.59081 9.5929 7.59081 9.63086 7.5576C9.66069 7.53822 9.69499 7.52679 9.73049 7.52439C9.76844 7.52439 9.81114 7.52439 9.84435 7.52439C9.87756 7.52439 9.89654 7.52439 9.92974 7.52439C9.96295 7.52439 14.7072 8.17436 17.3687 5.29459C17.3942 5.27506 17.4211 5.25761 17.4494 5.24241C17.4826 5.24241 17.4968 5.19022 17.5348 5.17124C17.5784 5.15242 17.625 5.14119 17.6724 5.13803C17.6972 5.13116 17.7234 5.13116 17.7483 5.13803H17.8669C17.9014 5.14469 17.9368 5.14469 17.9713 5.13803L18.0519 5.19022C18.0953 5.20676 18.1355 5.23085 18.1705 5.26138C18.199 5.29459 18.2037 5.3278 18.2227 5.34678C18.2477 5.37287 18.27 5.40149 18.2891 5.43218C18.6887 6.08439 19.255 6.61817 19.9297 6.97845C20.6044 7.33873 21.363 7.51246 22.1272 7.4817H22.1699C22.2068 7.49621 22.2449 7.50733 22.2838 7.51491C22.3209 7.51977 22.3566 7.53273 22.3882 7.55286C22.4183 7.56743 22.4469 7.58491 22.4736 7.60505C22.4981 7.63184 22.527 7.65429 22.559 7.67147L22.6206 7.77584L22.6681 7.88021C22.6721 7.89092 22.6721 7.90271 22.6681 7.91342C22.891 8.74367 23.0286 9.294 23.1425 9.65456C23.4323 9.59753 23.7316 9.61054 24.0154 9.69252C24.0728 9.7045 24.1275 9.72702 24.1767 9.75894C24.2449 9.3559 24.2829 8.94835 24.2906 8.53966C24.2906 4.00416 21.1214 1.19556 16.0166 1.19556C10.9118 1.19556 7.73315 3.98043 7.73315 8.53966C7.73789 8.94931 7.76959 9.3582 7.82804 9.76368L7.94665 9.71624C8.23182 9.62646 8.53418 9.60532 8.82908 9.65456Z" fill="#09ABB6"/>
<path d="M24.3616 12.5344C24.4375 11.5855 24.096 10.9119 23.7307 10.8075C23.6231 10.7811 23.5114 10.7768 23.4021 10.7947C23.2929 10.8126 23.1884 10.8525 23.0949 10.9119C23.0329 10.9379 22.9727 10.968 22.9146 11.002C22.8266 11.0277 22.7339 11.0326 22.6437 11.0164C22.5535 11.0002 22.4682 10.9633 22.3947 10.9085C22.3211 10.8538 22.2612 10.7828 22.2198 10.7011C22.1783 10.6193 22.1563 10.5291 22.1556 10.4374C22.1556 10.3331 21.9231 9.48858 21.6811 8.62513C20.9119 8.58443 20.1599 8.38215 19.4741 8.03148C18.7883 7.6808 18.1841 7.18959 17.7007 6.58984C15.6559 8.39741 12.9232 8.72476 11.258 8.72476C10.8642 8.72476 10.5321 8.72476 10.2759 8.69155C10.053 9.53603 9.85371 10.3473 9.82999 10.4849C9.82973 10.5729 9.80798 10.6595 9.76664 10.7373C9.7253 10.815 9.66562 10.8814 9.59278 10.9308C9.51716 10.9801 9.43158 11.012 9.34218 11.0243C9.25278 11.0366 9.16176 11.029 9.07565 11.002L8.89537 10.9119C8.80181 10.8527 8.69732 10.813 8.58811 10.7951C8.4789 10.7772 8.36719 10.7814 8.25964 10.8075C7.88959 10.9119 7.55275 11.6045 7.63814 12.5344C7.6492 13.0793 7.86028 13.6011 8.23117 14.0004C8.25864 14.0316 8.29213 14.0569 8.32963 14.0749C8.36713 14.0928 8.40788 14.103 8.44941 14.1047C8.44941 14.1047 8.48262 14.1047 8.5016 14.1047C8.57494 14.0669 8.65627 14.0471 8.73881 14.0471C8.82135 14.0471 8.90268 14.0669 8.97602 14.1047C9.05308 14.1408 9.12115 14.1936 9.17531 14.2593C9.22946 14.3249 9.26835 14.4018 9.28914 14.4843C9.75797 16.5561 10.9319 18.4008 12.6101 19.703C13.5879 20.4326 14.7752 20.8268 15.9951 20.8268C17.2151 20.8268 18.4024 20.4326 19.3802 19.703C21.0593 18.4016 22.2334 16.5566 22.7012 14.4843C22.7205 14.4004 22.7593 14.3223 22.8146 14.2564C22.8698 14.1904 22.9399 14.1385 23.019 14.1047C23.0911 14.0631 23.173 14.0412 23.2562 14.0412C23.3395 14.0412 23.4213 14.0631 23.4934 14.1047C23.5031 14.1001 23.5136 14.0977 23.5243 14.0977C23.535 14.0977 23.5455 14.1001 23.5551 14.1047C23.6348 14.0955 23.7087 14.0586 23.7639 14.0004C24.1328 13.5994 24.345 13.079 24.3616 12.5344Z" fill="#09ABB6"/>
<path d="M28.7929 25.1446C27.6094 24.5423 26.378 24.0393 25.1114 23.6406C24.4899 23.4509 23.9633 23.2801 23.4841 23.1662C22.8223 22.9732 22.1509 22.8148 21.4725 22.6918C20.8852 22.0517 20.4777 21.2677 20.2912 20.4193C21.9197 19.0806 23.0973 17.2736 23.6644 15.2433C23.9735 15.2131 24.2654 15.087 24.4994 14.8827C25.1163 14.289 25.48 13.4799 25.5147 12.6245C25.5858 11.9756 25.4792 11.3197 25.2063 10.7268C25.3684 10.0089 25.4527 9.27561 25.4577 8.53966C25.4577 3.3447 21.7477 0 16.0167 0C10.2856 0 6.57084 3.3447 6.57084 8.53966C6.56997 9.27072 6.65113 9.99957 6.8128 10.7125C6.51766 11.3173 6.40082 11.9937 6.47596 12.6624C6.51062 13.5179 6.87435 14.3269 7.49123 14.9207C7.72617 15.1234 8.01758 15.2492 8.32621 15.2812C8.88792 17.3141 10.0665 19.1225 11.6994 20.4572C11.5035 21.3318 11.0663 22.1339 10.4374 22.7724C9.26558 22.9764 8.53971 23.152 8.53971 23.152C8.03207 23.2895 7.50546 23.4414 6.88396 23.6264C5.61812 24.0289 4.38823 24.5367 3.20716 25.1446C2.23971 25.6296 1.42689 26.3751 0.860266 27.2971C0.293639 28.2191 -0.004286 29.281 4.65902e-05 30.3632V31.9478C0.00161073 32.5502 0.141185 33.1442 0.408053 33.6842C0.765564 34.4316 1.35452 35.0439 2.08752 35.4301C4.60197 36.7585 9.05209 38.3241 16.0024 38.3241C22.9528 38.3241 27.3886 36.7585 29.9126 35.4301C30.545 35.0952 31.0738 34.5938 31.4418 33.98C31.8097 33.3662 32.0028 32.6634 32 31.9478V30.3632C32 29.2819 31.7003 28.2218 31.1342 27.3006C30.568 26.3793 29.7576 25.633 28.7929 25.1446ZM30.8092 29.8888C30.8287 30.0462 30.8382 30.2046 30.8377 30.3632V31.9478C30.84 32.4514 30.7041 32.9459 30.4448 33.3776C30.1855 33.8092 29.8127 34.1614 29.367 34.3959C27.4693 35.4111 23.2896 37.0669 16.5812 37.1712V28.4987C17.7436 27.7776 20.908 25.6522 21.6149 23.911C22.138 24.0059 22.6558 24.1278 23.1662 24.2764C23.6407 24.395 24.1483 24.5515 24.7556 24.7508C25.8649 25.105 26.9464 25.5411 27.9912 26.0554L28.2379 26.1741C28.9431 26.5286 29.5481 27.0544 29.9974 27.7035C30.4466 28.3525 30.7258 29.1039 30.8092 29.8888ZM20.5759 23.4461C20.277 24.395 18.1136 26.1741 16.0024 27.4977C13.8865 26.1741 11.7326 24.3807 11.4242 23.4461C12.0334 22.782 12.4814 21.9866 12.7336 21.1214C13.7276 21.6871 14.8516 21.9845 15.9953 21.9845C17.139 21.9845 18.263 21.6871 19.257 21.1214C19.5127 21.9871 19.964 22.7825 20.5759 23.4461ZM3.73378 26.1883C4.85911 25.6134 6.03217 25.1372 7.23978 24.765C7.75887 24.5731 8.28974 24.4146 8.82911 24.2906C8.82911 24.2906 9.43163 24.1388 10.3947 23.9632C11.1538 25.7044 14.266 27.7586 15.4236 28.4987V37.1712C8.70575 37.0669 4.53555 35.4111 2.61413 34.3959C2.169 34.1612 1.79686 33.8088 1.53835 33.3771C1.27983 32.9454 1.14485 32.451 1.14816 31.9478V30.3632C1.14981 29.4961 1.39248 28.6464 1.84906 27.9092C2.30565 27.1719 2.95817 26.5761 3.73378 26.1883ZM23.5505 14.1047C23.5409 14.1 23.5304 14.0976 23.5197 14.0976C23.509 14.0976 23.4985 14.1 23.4889 14.1047C23.4167 14.063 23.3349 14.0411 23.2516 14.0411C23.1684 14.0411 23.0865 14.063 23.0144 14.1047C22.9353 14.1384 22.8652 14.1904 22.81 14.2563C22.7547 14.3223 22.7159 14.4004 22.6966 14.4842C22.2288 16.5565 21.0547 18.4015 19.3756 19.7029C18.3978 20.4325 17.2105 20.8267 15.9906 20.8267C14.7706 20.8267 13.5833 20.4325 12.6055 19.7029C10.9361 18.3969 9.7709 16.5527 9.30828 14.4842C9.28748 14.4017 9.24859 14.3248 9.19444 14.2592C9.14029 14.1936 9.07221 14.1408 8.99515 14.1047C8.92181 14.0668 8.84048 14.0471 8.75794 14.0471C8.67541 14.0471 8.59407 14.0668 8.52073 14.1047C8.52073 14.1047 8.47329 14.1047 8.46854 14.1047C8.42701 14.1029 8.38627 14.0927 8.34876 14.0748C8.31126 14.0568 8.27777 14.0315 8.25031 14.0003C7.87941 13.601 7.66833 13.0792 7.65727 12.5343C7.57188 11.5855 7.90872 10.9118 8.27877 10.8074C8.38632 10.7813 8.49803 10.7771 8.60724 10.795C8.71645 10.813 8.82094 10.8527 8.9145 10.9118L9.09478 11.0019C9.17944 11.0233 9.26769 11.0263 9.35361 11.0108C9.43953 10.9952 9.52113 10.9615 9.59293 10.9118C9.66578 10.8624 9.72546 10.7959 9.7668 10.7182C9.80814 10.6405 9.82988 10.5539 9.83014 10.4658C9.85386 10.3282 10.0531 9.51698 10.2761 8.6725C10.5323 8.6725 10.8644 8.70571 11.2582 8.70571C12.9234 8.70571 15.6466 8.37836 17.7056 6.56605C18.1889 7.1658 18.7932 7.65701 19.479 8.00768C20.1648 8.35836 20.9168 8.56063 21.686 8.60133C21.9233 9.46479 22.1367 10.3093 22.1605 10.4136C22.1605 10.5057 22.1819 10.5965 22.2231 10.6789C22.2642 10.7612 22.324 10.8328 22.3977 10.8881C22.4713 10.9433 22.5568 10.9806 22.6474 10.9971C22.738 11.0136 22.8312 11.0087 22.9195 10.983C22.9776 10.9489 23.0378 10.9188 23.0998 10.8928C23.2875 10.7832 23.511 10.7525 23.7213 10.8074C24.0866 10.9118 24.4282 11.6044 24.3523 12.5343C24.3343 13.0795 24.1204 13.6 23.7498 14.0003C23.6971 14.0566 23.6268 14.0934 23.5505 14.1047ZM7.73318 8.53966C7.73318 3.98043 10.9118 1.17183 16.0167 1.17183C21.1215 1.17183 24.2906 3.98043 24.2906 8.53966C24.2904 8.95579 24.2587 9.37131 24.1957 9.78265C24.1465 9.75074 24.0919 9.72821 24.0344 9.71623C23.7506 9.63426 23.4514 9.62124 23.1615 9.67828C23.0666 9.31772 22.929 8.76738 22.6871 7.93714C22.6911 7.92643 22.6911 7.91464 22.6871 7.90393L22.6396 7.79956L22.578 7.69518C22.546 7.67801 22.5171 7.65555 22.4926 7.62876C22.4659 7.60862 22.4373 7.59114 22.4072 7.57658C22.3756 7.55644 22.3399 7.54349 22.3028 7.53862C22.2639 7.53104 22.2258 7.51993 22.1889 7.50541H22.1462C21.382 7.53617 20.6234 7.36245 19.9487 7.00217C19.274 6.64189 18.7077 6.1081 18.3081 5.45589C18.289 5.4252 18.2667 5.39658 18.2417 5.3705C18.2417 5.3705 18.218 5.31831 18.1895 5.2851C18.1545 5.25457 18.1143 5.23047 18.0709 5.21394L17.9903 5.16175C17.9558 5.16841 17.9204 5.16841 17.8859 5.16175H17.7673C17.7424 5.15488 17.7162 5.15488 17.6914 5.16175C17.644 5.16491 17.5974 5.17614 17.5538 5.19496C17.5158 5.19496 17.5016 5.24715 17.4684 5.26612C17.4402 5.28133 17.4132 5.29878 17.3877 5.31831C14.7072 8.17435 9.96298 7.50067 9.92977 7.48169C9.89656 7.46271 9.87759 7.48169 9.84438 7.48169C9.81117 7.48169 9.76847 7.48169 9.73051 7.48169C9.69502 7.48409 9.66072 7.49552 9.63088 7.5149C9.59293 7.5149 9.55972 7.5149 9.52651 7.54811C9.4933 7.58132 9.47432 7.6003 9.44111 7.63825C9.4079 7.67621 9.39842 7.69044 9.36995 7.70467C9.34149 7.7189 9.33674 7.79007 9.31776 7.80904C9.30876 7.83827 9.29766 7.86681 9.28455 7.89444C9.06157 8.72468 8.9145 9.27502 8.81013 9.63558C8.51709 9.57865 8.21476 9.59166 7.9277 9.67354L7.80909 9.72098C7.75883 9.32921 7.73347 8.93464 7.73318 8.53966Z" fill="white"/>
</g>
<defs>
<clipPath id="clip0_115_2529">
<rect width="32" height="38.3241" fill="white"/>
</clipPath>
</defs>
</svg>
