<svg width="32" height="39" viewBox="0 0 32 39" fill="none" xmlns="http://www.w3.org/2000/svg">
<g clip-path="url(#clip0_113_268)">
<path d="M28.7929 25.1446C27.6094 24.5423 26.378 24.0393 25.1114 23.6406C24.4899 23.4509 23.9633 23.2801 23.4841 23.1662C22.8223 22.9732 22.1509 22.8148 21.4725 22.6918C20.8852 22.0517 20.4777 21.2677 20.2912 20.4193C21.9197 19.0806 23.0973 17.2736 23.6644 15.2433C23.9735 15.2131 24.2654 15.087 24.4994 14.8827C25.1163 14.289 25.48 13.4799 25.5147 12.6245C25.5858 11.9756 25.4792 11.3197 25.2063 10.7268C25.3684 10.0089 25.4527 9.27561 25.4577 8.53966C25.4577 3.3447 21.7477 0 16.0167 0C10.2856 0 6.57084 3.3447 6.57084 8.53966C6.56997 9.27072 6.65113 9.99957 6.8128 10.7125C6.51766 11.3173 6.40082 11.9937 6.47596 12.6624C6.51062 13.5179 6.87435 14.3269 7.49123 14.9207C7.72617 15.1234 8.01758 15.2492 8.32621 15.2812C8.88792 17.3141 10.0665 19.1225 11.6994 20.4572C11.5035 21.3318 11.0663 22.1339 10.4374 22.7724C9.26558 22.9764 8.53971 23.152 8.53971 23.152C8.03207 23.2895 7.50546 23.4414 6.88396 23.6264C5.61812 24.0289 4.38823 24.5367 3.20716 25.1446C2.23971 25.6296 1.42689 26.3751 0.860266 27.2971C0.293639 28.2191 -0.004286 29.281 4.65902e-05 30.3632V31.9478C-0.00266565 32.6634 0.190396 33.3662 0.558336 33.98C0.926276 34.5938 1.45508 35.0952 2.08752 35.4301C4.60197 36.7585 9.05209 38.3241 16.0024 38.3241C22.9528 38.3241 27.3886 36.7585 29.9126 35.4301C30.545 35.0952 31.0738 34.5938 31.4418 33.98C31.8097 33.3662 32.0028 32.6634 32 31.9478V30.3632C32 29.2819 31.7003 28.2218 31.1342 27.3006C30.568 26.3793 29.7576 25.633 28.7929 25.1446ZM16.0167 1.17183C21.1215 1.17183 24.2906 3.98043 24.2906 8.53966C24.2904 8.95579 24.2587 9.37131 24.1957 9.78265C24.1465 9.75074 24.0919 9.72821 24.0344 9.71623C23.7506 9.63426 23.4514 9.62124 23.1615 9.67828C23.0666 9.31772 22.929 8.76738 22.6871 7.93714C22.6911 7.92643 22.6911 7.91464 22.6871 7.90393L22.6396 7.79956L22.578 7.69518C22.546 7.67801 22.5171 7.65555 22.4926 7.62876C22.4659 7.60862 22.4373 7.59114 22.4072 7.57658C22.3756 7.55644 22.3399 7.54349 22.3028 7.53862C22.2639 7.53104 22.2258 7.51993 22.1889 7.50541H22.1462C21.382 7.53617 20.6234 7.36245 19.9487 7.00217C19.274 6.64189 18.7077 6.1081 18.3081 5.45589C18.289 5.4252 18.2667 5.39658 18.2417 5.3705C18.2417 5.3705 18.218 5.31831 18.1895 5.2851C18.1545 5.25457 18.1143 5.23047 18.0709 5.21394L17.9903 5.16175C17.9558 5.16841 17.9204 5.16841 17.8859 5.16175H17.7673C17.7424 5.15488 17.7162 5.15488 17.6914 5.16175C17.644 5.16491 17.5974 5.17614 17.5538 5.19496C17.5158 5.19496 17.5016 5.24715 17.4684 5.26612C17.4402 5.28133 17.4132 5.29878 17.3877 5.31831C14.7072 8.17435 9.96298 7.50067 9.92977 7.48169C9.89656 7.46271 9.87759 7.48169 9.84438 7.48169C9.81117 7.48169 9.76847 7.48169 9.73051 7.48169C9.69502 7.48409 9.66072 7.49552 9.63088 7.5149C9.59293 7.5149 9.55972 7.5149 9.52651 7.54811C9.4933 7.58132 9.47432 7.6003 9.44111 7.63825C9.4079 7.67621 9.39842 7.69044 9.36995 7.70467C9.34149 7.7189 9.33674 7.79007 9.31776 7.80904C9.30876 7.83827 9.29766 7.86681 9.28455 7.89444C9.06157 8.72468 8.9145 9.27502 8.81013 9.63558C8.51709 9.57865 8.21476 9.59166 7.9277 9.67354L7.80909 9.72098C7.75883 9.32921 7.73347 8.93464 7.73318 8.53966C7.73318 3.98043 10.9118 1.17183 16.0167 1.17183ZM9.31302 14.4557C9.29222 14.3732 9.25334 14.2964 9.19918 14.2307C9.14503 14.1651 9.07696 14.1123 8.9999 14.0762C8.92656 14.0383 8.84522 14.0186 8.76268 14.0186C8.68015 14.0186 8.59881 14.0383 8.52547 14.0762C8.52547 14.0762 8.47803 14.0762 8.47329 14.0762C8.43175 14.0744 8.39101 14.0642 8.35351 14.0463C8.316 14.0284 8.28251 14.003 8.25505 13.9718C7.88415 13.5725 7.67308 13.0507 7.66202 12.5059C7.57662 11.557 7.91346 10.8833 8.28351 10.7789C8.39107 10.7528 8.50277 10.7486 8.61198 10.7666C8.7212 10.7845 8.82569 10.8242 8.91925 10.8833L9.09953 10.9735C9.18151 10.9983 9.26778 11.0056 9.35278 10.995C9.43777 10.9844 9.51958 10.956 9.59293 10.9118C9.66578 10.8624 9.72546 10.7959 9.7668 10.7182C9.80814 10.6405 9.82988 10.5539 9.83014 10.4658C9.85386 10.3282 10.0531 9.51698 10.2761 8.6725C10.5323 8.6725 10.8644 8.70571 11.2582 8.70571C12.9234 8.70571 15.6466 8.37836 17.7056 6.56605C18.1889 7.1658 18.7932 7.65701 19.479 8.00768C20.1648 8.35836 20.9168 8.56063 21.686 8.60133C21.9233 9.46479 22.1367 10.3093 22.1605 10.4136C22.1605 10.5057 22.1819 10.5965 22.2231 10.6789C22.2642 10.7612 22.324 10.8328 22.3977 10.8881C22.4713 10.9433 22.5568 10.9806 22.6474 10.9971C22.738 11.0136 22.8312 11.0087 22.9195 10.983C22.9776 10.9489 23.0378 10.9188 23.0998 10.8928C23.2875 10.7832 23.511 10.7525 23.7213 10.8074C24.0866 10.9118 24.4282 11.6044 24.3523 12.5343C24.3343 13.0795 24.1204 13.6 23.7498 14.0003C23.6946 14.0585 23.6207 14.0955 23.541 14.1047C23.5314 14.1 23.5209 14.0976 23.5102 14.0976C23.4995 14.0976 23.489 14.1 23.4794 14.1047C23.4072 14.063 23.3254 14.0411 23.2422 14.0411C23.1589 14.0411 23.0771 14.063 23.0049 14.1047C22.9258 14.1384 22.8557 14.1904 22.8005 14.2563C22.7452 14.3223 22.7064 14.4004 22.6871 14.4842C22.2194 16.5565 21.0453 18.4015 19.3661 19.7029C18.3884 20.4325 17.201 20.8267 15.9811 20.8267C14.7611 20.8267 13.5738 20.4325 12.596 19.7029C10.9282 18.3898 9.76787 16.5386 9.31302 14.4652V14.4557ZM12.7336 21.0977C13.7276 21.6634 14.8516 21.9608 15.9953 21.9608C17.139 21.9608 18.263 21.6634 19.257 21.0977C19.5127 21.9634 19.964 22.7587 20.5759 23.4224C20.277 24.3712 18.1136 26.1503 16.0024 27.474C13.8865 26.1503 11.7326 24.357 11.4242 23.4224C12.0302 22.7651 12.4781 21.9781 12.7336 21.1214V21.0977ZM1.16239 31.9478V30.3632C1.16272 29.4976 1.40326 28.6489 1.85724 27.9119C2.31122 27.1748 2.96083 26.5781 3.73378 26.1883C4.85911 25.6134 6.03217 25.1372 7.23978 24.765C7.75887 24.5731 8.28974 24.4146 8.82911 24.2906C8.82911 24.2906 9.43163 24.1388 10.3947 23.9632C11.1538 25.7044 14.266 27.7586 15.4236 28.4987V37.1712C8.70575 37.0669 4.53555 35.4111 2.61413 34.3959C2.17165 34.1593 1.80241 33.8061 1.54649 33.3745C1.29056 32.943 1.15772 32.4495 1.16239 31.9478ZM30.8425 31.9478C30.8448 32.4514 30.7089 32.9459 30.4495 33.3776C30.1902 33.8092 29.8174 34.1614 29.3717 34.3959C27.474 35.4111 23.2943 37.0669 16.586 37.1712V28.4987C17.7483 27.7776 20.9127 25.6522 21.6196 23.911C22.1427 24.0059 22.6605 24.1278 23.171 24.2764C23.6454 24.395 24.153 24.5515 24.7603 24.7508C25.9617 25.1317 27.1309 25.6076 28.2568 26.1741C29.0289 26.5696 29.6778 27.1693 30.1328 27.9079C30.5878 28.6465 30.8316 29.4957 30.8377 30.3632L30.8425 31.9478Z" fill="#595A5B"/>
</g>
<defs>
<clipPath id="clip0_113_268">
<rect width="32" height="38.3241" fill="white"/>
</clipPath>
</defs>
</svg>
