<svg width="32" height="31" viewBox="0 0 32 31" fill="none" xmlns="http://www.w3.org/2000/svg">
<g clip-path="url(#clip0_115_1451)">
<path d="M13.0103 7.75507H15.5317V5.23369C15.5281 4.74012 15.3788 4.25861 15.1023 3.84971C14.8259 3.4408 14.4347 3.12274 13.978 2.9355C13.5214 2.74826 13.0195 2.7002 12.5356 2.79737C12.0517 2.89454 11.6073 3.13259 11.2582 3.48161C10.9092 3.83062 10.6712 4.27502 10.574 4.75894C10.4768 5.24287 10.5249 5.74472 10.7121 6.20141C10.8994 6.65809 11.2174 7.04924 11.6263 7.32568C12.0353 7.60212 12.5168 7.75151 13.0103 7.75507V7.75507Z" fill="#09ABB6"/>
<path d="M17.819 29.1004H29.086C29.1504 29.1009 29.2143 29.0885 29.274 29.0641C29.3336 29.0396 29.3878 29.0036 29.4334 28.958C29.479 28.9124 29.5151 28.8582 29.5395 28.7986C29.564 28.7389 29.5763 28.675 29.5758 28.6105V13.5831H17.819V29.1004Z" fill="#09ABB6"/>
<path d="M22.6241 7.75507V7.73346L22.5989 7.75507H22.6241Z" fill="#09ABB6"/>
<path d="M14.1846 13.5831H2.42413V28.6105C2.42317 28.6745 2.43495 28.7381 2.45878 28.7975C2.48261 28.8569 2.51801 28.9109 2.56292 28.9565C2.60784 29.0021 2.66137 29.0383 2.7204 29.063C2.77944 29.0877 2.8428 29.1004 2.90679 29.1004H14.1846V13.5831Z" fill="#09ABB6"/>
<path d="M19.8758 0.979752C18.9765 0.980707 18.1144 1.33861 17.4789 1.97483C16.8433 2.61105 16.4863 3.47354 16.4863 4.37282V7.75508H19.8758C20.33 7.76989 20.7825 7.69323 21.2064 7.52965C21.6304 7.36607 22.0171 7.11891 22.3436 6.80288C22.6701 6.48684 22.9297 6.10837 23.1071 5.68999C23.2844 5.2716 23.3757 4.82183 23.3757 4.36742C23.3757 3.91301 23.2844 3.46323 23.1071 3.04485C22.9297 2.62646 22.6701 2.24799 22.3436 1.93196C22.0171 1.61592 21.6304 1.36876 21.2064 1.20518C20.7825 1.0416 20.33 0.964941 19.8758 0.979752V0.979752Z" fill="#09ABB6"/>
<path d="M1.4408 12.6069H14.1846V8.73481H1.4408C1.31088 8.73481 1.18628 8.78642 1.09441 8.87829C1.00254 8.97016 0.950928 9.09476 0.950928 9.22468V12.1063L1.15624 12.5205C1.23984 12.5781 1.33928 12.6083 1.4408 12.6069Z" fill="#09ABB6"/>
<path d="M16.8464 13.5831H15.1499V29.0968H16.8464V13.5831Z" fill="#09ABB6"/>
<path d="M16.8464 8.73481H15.9964H15.1499V12.6069H16.8464V8.73481Z" fill="#09ABB6"/>
<path d="M30.5484 12.6069C30.6121 12.6065 30.675 12.5934 30.7336 12.5685C30.7923 12.5436 30.8454 12.5073 30.8899 12.4618C30.9344 12.4162 30.9695 12.3623 30.9931 12.3032C31.0167 12.244 31.0284 12.1808 31.0274 12.1171V9.23549C31.0284 9.1718 31.0167 9.10856 30.9931 9.0494C30.9695 8.99024 30.9344 8.93634 30.8899 8.8908C30.8454 8.84527 30.7923 8.80899 30.7336 8.78408C30.675 8.75916 30.6121 8.74609 30.5484 8.74562H17.819V12.6069H30.5484Z" fill="#09ABB6"/>
<path d="M30.5484 7.75507H22.6241L22.6493 7.73346C23.1741 7.30121 23.5906 6.75227 23.8656 6.13044C24.1405 5.50862 24.2663 4.83112 24.2329 4.15204C24.1995 3.47296 24.0078 2.81109 23.6731 2.21927C23.3384 1.62744 22.87 1.12204 22.3053 0.743414C21.7406 0.364785 21.0952 0.123408 20.4206 0.038549C19.746 -0.0463098 19.0609 0.0276993 18.42 0.254669C17.7791 0.481639 17.2001 0.855285 16.7293 1.34578C16.2585 1.83628 15.9088 2.43005 15.7083 3.0797C15.4103 2.71144 15.04 2.40811 14.6203 2.18844C14.2005 1.96877 13.7403 1.8374 13.2678 1.80243C12.7954 1.76746 12.3208 1.82964 11.8733 1.98513C11.4258 2.14062 11.0149 2.38612 10.6659 2.7065C10.317 3.02688 10.0373 3.41535 9.84425 3.84795C9.65118 4.28056 9.54876 4.74812 9.54332 5.22182C9.53787 5.69553 9.62952 6.16532 9.81261 6.60225C9.99569 7.03917 10.2663 7.43396 10.6079 7.76228H1.44081C1.05546 7.76797 0.687941 7.92554 0.418141 8.20073C0.148342 8.47593 -0.00192192 8.8465 1.85632e-05 9.23189V12.1135C-0.0019122 12.4985 0.148466 12.8687 0.418365 13.1433C0.688264 13.418 1.05579 13.5747 1.44081 13.5795V28.6105C1.44081 28.9927 1.59261 29.3591 1.86281 29.6293C2.13301 29.8995 2.49948 30.0513 2.8816 30.0513H29.086C29.277 30.0542 29.4667 30.0191 29.644 29.9479C29.8213 29.8768 29.9827 29.7711 30.1188 29.6371C30.2549 29.503 30.363 29.3432 30.4367 29.167C30.5105 28.9907 30.5484 28.8016 30.5484 28.6105V13.5831C30.9328 13.5765 31.2993 13.4191 31.5688 13.1449C31.8383 12.8707 31.9893 12.5016 31.9892 12.1171V9.23549C31.9931 8.84852 31.8438 8.47572 31.5739 8.19839C31.304 7.92107 30.9353 7.76171 30.5484 7.75507V7.75507ZM29.5759 28.6105C29.5764 28.675 29.564 28.7389 29.5396 28.7986C29.5151 28.8582 29.4791 28.9124 29.4335 28.958C29.3879 29.0036 29.3337 29.0397 29.274 29.0641C29.2144 29.0886 29.1505 29.1009 29.086 29.1004H17.819V13.5831H29.5759V28.6105ZM2.42415 28.6105V13.5831H14.1846V29.1004H2.90682C2.84282 29.1004 2.77946 29.0877 2.72043 29.063C2.6614 29.0383 2.60786 29.0021 2.56295 28.9565C2.51803 28.9109 2.48263 28.8569 2.4588 28.7975C2.43498 28.7381 2.4232 28.6745 2.42415 28.6105V28.6105ZM10.507 5.2517C10.507 4.58776 10.7707 3.95101 11.2402 3.48154C11.7097 3.01207 12.3464 2.74832 13.0104 2.74832C13.6743 2.74832 14.3111 3.01207 14.7805 3.48154C15.25 3.95101 15.5138 4.58776 15.5138 5.2517V7.77308H12.9924C12.3299 7.76362 11.6978 7.4938 11.2327 7.02197C10.7676 6.55014 10.5069 5.91421 10.507 5.2517V5.2517ZM15.15 12.6069V8.73481H16.8465V12.6069H15.15ZM16.8465 13.5831V29.1004H15.15V13.5831H16.8465ZM17.819 12.6069V8.73481H30.5484C30.6121 8.73528 30.6751 8.74835 30.7337 8.77327C30.7923 8.79819 30.8454 8.83446 30.89 8.88C30.9345 8.92553 30.9696 8.97943 30.9932 9.03859C31.0168 9.09775 31.0284 9.161 31.0275 9.22468V12.1063C31.0299 12.1708 31.0193 12.2353 30.9964 12.2957C30.9734 12.3561 30.9386 12.4113 30.8939 12.458C30.8492 12.5047 30.7956 12.5419 30.7363 12.5675C30.6769 12.5931 30.613 12.6065 30.5484 12.6069H17.819ZM19.8757 7.75507H16.4863V4.37281C16.4841 3.70112 16.6814 3.0439 17.0531 2.48442C17.4248 1.92493 17.9542 1.48835 18.5742 1.22999C19.1942 0.971623 19.877 0.903095 20.536 1.03309C21.195 1.16308 21.8006 1.48574 22.276 1.9602C22.7515 2.43465 23.0755 3.03956 23.2069 3.69828C23.3382 4.357 23.2712 5.0399 23.0141 5.66047C22.7571 6.28104 22.3216 6.81135 21.7629 7.18423C21.2042 7.55711 20.5474 7.75578 19.8757 7.75507V7.75507ZM0.965349 12.1171V9.23549C0.962441 9.10616 1.0108 8.98094 1.09988 8.88714C1.18895 8.79334 1.31151 8.73858 1.44081 8.73481H14.1846V12.6069H1.44081C1.33851 12.6062 1.239 12.5735 1.15625 12.5133C1.09532 12.4671 1.04624 12.4071 1.01305 12.3382C0.979859 12.2693 0.96351 12.1935 0.965349 12.1171V12.1171Z" fill="white"/>
</g>
<defs>
<clipPath id="clip0_115_1451">
<rect width="32" height="30.0621" fill="white"/>
</clipPath>
</defs>
</svg>
