<svg width="32" height="31" viewBox="0 0 32 31" fill="red" xmlns="http://www.w3.org/2000/svg">
<g clip-path="url(#clip0_113_222)">
<path d="M30.5476 7.7546H22.6252C23.1654 7.32763 23.5974 6.77926 23.886 6.15401C24.1746 5.52877 24.3117 4.84427 24.2861 4.15612C24.2605 3.46796 24.073 2.79554 23.7387 2.19345C23.4045 1.59137 22.933 1.0766 22.3625 0.690937C21.792 0.305278 21.1385 0.0596038 20.4553 -0.0261358C19.772 -0.111875 19.0781 -0.0352632 18.43 0.19748C17.7819 0.430222 17.1978 0.812534 16.7252 1.31337C16.2526 1.81421 15.9047 2.41945 15.7099 3.07995C15.2589 2.51928 14.6448 2.11267 13.9525 1.91638C13.2602 1.72009 12.5241 1.74383 11.8459 1.98432C11.1677 2.22481 10.5811 2.67015 10.1671 3.2587C9.7532 3.84726 9.53244 4.54994 9.53541 5.26948C9.53319 5.73799 9.62728 6.20196 9.81184 6.63259C9.9964 7.06322 10.2675 7.45134 10.6083 7.77284H1.45969C1.07255 7.77284 0.701277 7.92663 0.427533 8.20038C0.153788 8.47412 0 8.8454 0 9.23253L0 12.1154C0 12.5025 0.153788 12.8738 0.427533 13.1476C0.701277 13.4213 1.07255 13.5751 1.45969 13.5751V28.6099C1.45969 28.997 1.61348 29.3683 1.88722 29.642C2.16096 29.9158 2.53224 30.0696 2.91937 30.0696H29.0879C29.4751 30.0696 29.8463 29.9158 30.1201 29.642C30.3938 29.3683 30.5476 28.997 30.5476 28.6099V13.586C30.9347 13.586 31.306 13.4323 31.5798 13.1585C31.8535 12.8848 32.0073 12.5135 32.0073 12.1264V9.22523C32.0087 9.03262 31.9721 8.84163 31.8993 8.66327C31.8266 8.48491 31.7193 8.3227 31.5837 8.18599C31.448 8.04929 31.2866 7.94079 31.1087 7.86675C30.9309 7.79271 30.7402 7.75459 30.5476 7.7546ZM16.4872 4.37907C16.4843 3.70708 16.681 3.04935 17.0523 2.48925C17.4236 1.92915 17.9528 1.49189 18.5729 1.23289C19.193 0.973894 19.876 0.904813 20.5354 1.03441C21.1948 1.164 21.8008 1.48643 22.2768 1.96084C22.7527 2.43524 23.0771 3.04027 23.2088 3.69923C23.3406 4.3582 23.2737 5.04143 23.0167 5.66235C22.7597 6.28327 22.3242 6.81392 21.7653 7.18704C21.2064 7.56016 20.5493 7.75896 19.8773 7.75825H16.4872V4.37907ZM16.8521 12.6117H15.1479V8.73624H16.8448L16.8521 12.6117ZM10.5061 5.25123C10.5308 4.60336 10.8056 3.99026 11.2727 3.54064C11.7398 3.09102 12.3629 2.83985 13.0113 2.83985C13.6596 2.83985 14.2828 3.09102 14.7499 3.54064C15.217 3.99026 15.4917 4.60336 15.5165 5.25123V7.7546H13.0095C12.3455 7.7546 11.7088 7.49085 11.2393 7.02138C10.7698 6.55191 10.5061 5.91517 10.5061 5.25123ZM0.967043 12.1154V9.22523C0.967041 9.16071 0.979809 9.09682 1.00461 9.03725C1.02941 8.97769 1.06576 8.92362 1.11155 8.87816C1.15735 8.83271 1.21169 8.79677 1.27144 8.77241C1.33119 8.74805 1.39517 8.73575 1.45969 8.73624H14.1845V12.6081H1.45969C1.39486 12.6085 1.33058 12.5961 1.27059 12.5715C1.2106 12.547 1.1561 12.5107 1.11025 12.4648C1.06441 12.419 1.02814 12.3645 1.00355 12.3045C0.978968 12.2445 0.966557 12.1802 0.967043 12.1154ZM2.42673 28.6099V13.586H14.1845V29.0989H2.91937C2.85458 29.1004 2.79016 29.0887 2.72996 29.0647C2.66976 29.0407 2.61502 29.0048 2.56903 28.9592C2.52303 28.9135 2.48672 28.8591 2.46227 28.799C2.43782 28.739 2.42573 28.6747 2.42673 28.6099ZM15.1479 29.0989V13.586H16.8448V29.0989H15.1479ZM29.5769 28.6099C29.5774 28.6742 29.5651 28.738 29.5407 28.7976C29.5163 28.8571 29.4803 28.9112 29.4348 28.9567C29.3893 29.0022 29.3352 29.0382 29.2756 29.0626C29.2161 29.087 29.1523 29.0994 29.0879 29.0989H17.8191V13.586H29.5769V28.6099ZM31.0366 12.1154C31.0376 12.1795 31.0258 12.2431 31.0021 12.3025C30.9784 12.362 30.9431 12.4162 30.8983 12.462C30.8536 12.5078 30.8002 12.5443 30.7412 12.5694C30.6823 12.5944 30.619 12.6076 30.5549 12.6081H17.8191V8.73624H30.5476C30.6747 8.73911 30.7956 8.79213 30.8837 8.88373C30.9719 8.97534 31.0203 9.09809 31.0184 9.22523L31.0366 12.1154Z" fill="#595A5B"/>
</g>
<defs>
<clipPath id="clip0_113_222">
<rect width="32" height="30.0659" fill="white"/>
</clipPath>
</defs>
</svg>
