<svg width="18" height="18" viewBox="0 0 18 18" fill="none" xmlns="http://www.w3.org/2000/svg">
<path d="M1.50293 7.53809C2.04785 7.53809 2.45215 7.14258 2.45215 6.58887V5.95605L2.25879 3.19629L4.31543 5.3584L6.84668 7.90723C7.03125 8.10059 7.26855 8.18848 7.52344 8.18848C8.1123 8.18848 8.53418 7.79297 8.53418 7.2041C8.53418 6.93164 8.42871 6.69434 8.24414 6.50977L5.7041 3.96973L3.5332 1.91309L6.31934 2.09766H6.99609C7.54102 2.09766 7.9541 1.70215 7.9541 1.14844C7.9541 0.594727 7.5498 0.19043 6.99609 0.19043H2.11816C1.11621 0.19043 0.536133 0.770508 0.536133 1.78125V6.58887C0.536133 7.13379 0.949219 7.53809 1.50293 7.53809ZM10.9951 17.127H15.8643C16.875 17.127 17.4551 16.5469 17.4551 15.5361V10.7285C17.4551 10.1836 17.042 9.7793 16.4883 9.7793C15.9434 9.7793 15.5391 10.1748 15.5391 10.7285V11.3613L15.7236 14.1211L13.667 11.959L11.1357 9.41016C10.96 9.2168 10.7227 9.12891 10.4678 9.12891C9.87891 9.12891 9.45703 9.52441 9.45703 10.1133C9.45703 10.3857 9.55371 10.623 9.73828 10.8076L12.2871 13.3477L14.4492 15.4043L11.6719 15.2197H10.9951C10.4502 15.2197 10.0371 15.6152 10.0371 16.1689C10.0371 16.7227 10.4414 17.127 10.9951 17.127Z" fill="#1D1D1B"/>
</svg>
