<svg width="32" height="42" viewBox="0 0 32 42" fill="none" xmlns="http://www.w3.org/2000/svg">
<g clip-path="url(#clip0_113_239)">
<path d="M29.5038 16.4357H29.3023V13.3133C29.3344 11.5455 29.0139 9.78905 28.3596 8.14651C27.7053 6.50398 26.7302 5.00829 25.4914 3.74679C24.2526 2.4853 22.7748 1.48328 21.1444 0.799272C19.514 0.115263 17.7637 -0.23703 15.9956 -0.23703C14.2276 -0.23703 12.4772 0.115263 10.8468 0.799272C9.21643 1.48328 7.73867 2.4853 6.49985 3.74679C5.26103 5.00829 4.28599 6.50398 3.63167 8.14651C2.97734 9.78905 2.65686 11.5455 2.68893 13.3133V16.4357H2.4831C1.82409 16.4392 1.1932 16.7031 0.728022 17.17C0.262849 17.6368 0.00114704 18.2686 0 18.9276L0 25.0587C0.0152804 29.2577 1.67369 33.2839 4.62026 36.2755C7.56683 39.2671 11.5674 40.9863 15.7657 41.0653H15.9759C20.1361 41.0551 24.1223 39.3951 27.0601 36.4494C28.6141 34.9127 29.8503 33.0848 30.6979 31.0703C31.5455 29.0557 31.9879 26.8939 32 24.7084V18.9276C31.9977 18.2667 31.7338 17.6335 31.266 17.1666C30.7983 16.6997 30.1647 16.4369 29.5038 16.4357ZM3.94143 13.3133C4.00163 10.1538 5.299 7.14401 7.55469 4.93089C9.81038 2.71777 12.8443 1.47797 16.0044 1.47797C19.1644 1.47797 22.1984 2.71777 24.4541 4.93089C26.7098 7.14401 28.0071 10.1538 28.0673 13.3133V16.4357H25.2514V13.3133C25.1988 10.8945 24.201 8.59252 22.4717 6.9005C20.7425 5.20847 18.4193 4.26097 16 4.26097C13.5807 4.26097 11.2575 5.20847 9.52828 6.9005C7.79904 8.59252 6.80123 10.8945 6.7486 13.3133V16.4357H3.94143V13.3133ZM8.00109 16.4357V13.3133C8.00109 12.262 8.20816 11.221 8.61047 10.2497C9.01279 9.27843 9.60247 8.39592 10.3458 7.65254C11.0892 6.90916 11.9717 6.31948 12.943 5.91717C13.9143 5.51486 14.9553 5.30779 16.0066 5.30779C17.0579 5.30779 18.0989 5.51486 19.0701 5.91717C20.0414 6.31948 20.9239 6.90916 21.6673 7.65254C22.4107 8.39592 23.0003 9.27843 23.4027 10.2497C23.805 11.221 24.012 12.262 24.012 13.3133V16.4357H8.00109ZM30.7738 24.7084C30.763 26.7313 30.352 28.7321 29.5642 30.5954C28.7765 32.4587 27.6278 34.1476 26.1842 35.5648C24.8283 36.9363 23.2091 38.0195 21.424 38.7495C19.639 39.4795 17.7247 39.8412 15.7964 39.8128C11.9238 39.7441 8.2322 38.1612 5.51275 35.4033C2.79331 32.6453 1.2624 28.9319 1.24812 25.0587V18.9276C1.24812 18.5997 1.37809 18.2851 1.60957 18.0528C1.84105 17.8205 2.15516 17.6894 2.4831 17.6882H29.5038C29.6673 17.6871 29.8294 17.7183 29.9807 17.7801C30.1321 17.8418 30.2698 17.9329 30.3858 18.0481C30.5018 18.1633 30.5939 18.3004 30.6567 18.4513C30.7195 18.6022 30.7519 18.7641 30.7519 18.9276L30.7738 24.7084Z" fill="#595A5B"/>
<path d="M15.9978 22.234C15.3809 22.232 14.7774 22.4138 14.2642 22.7562C13.751 23.0986 13.3515 23.5861 13.1165 24.1565C12.8816 24.727 12.8219 25.3545 12.9451 25.959C13.0683 26.5635 13.3687 27.1176 13.8082 27.5506L12.8973 32.6481C12.881 32.7383 12.8848 32.8309 12.9083 32.9194C12.9317 33.0079 12.9743 33.0902 13.033 33.1605C13.0924 33.2282 13.165 33.2829 13.2463 33.3213C13.3277 33.3597 13.4161 33.381 13.506 33.3839H18.4809C18.5723 33.382 18.6623 33.3611 18.7452 33.3227C18.8281 33.2842 18.9022 33.229 18.9627 33.1605C19.0211 33.09 19.0639 33.0078 19.0881 32.9195C19.1122 32.8311 19.1173 32.7386 19.1028 32.6481L18.1875 27.5506C18.6269 27.1176 18.9274 26.5635 19.0506 25.959C19.1738 25.3545 19.1141 24.727 18.8791 24.1565C18.6442 23.5861 18.2447 23.0986 17.7315 22.7562C17.2183 22.4138 16.6148 22.232 15.9978 22.234ZM16.8737 27.4192L17.7233 32.1489H14.2198L15.0607 27.4192C15.0819 27.3094 15.0713 27.1959 15.0302 27.0919C14.9891 26.988 14.9191 26.8979 14.8286 26.8324C14.6034 26.6563 14.4208 26.4318 14.2942 26.1756C14.1676 25.9194 14.1003 25.6379 14.0972 25.3521C14.0959 25.0341 14.1759 24.7211 14.3296 24.4427C14.4833 24.1643 14.7057 23.9298 14.9755 23.7616C15.2453 23.5933 15.5537 23.4967 15.8713 23.4811C16.1889 23.4655 16.5052 23.5314 16.7903 23.6724C17.0753 23.8135 17.3195 24.025 17.4997 24.287C17.68 24.549 17.7903 24.8527 17.8202 25.1693C17.85 25.4859 17.7985 25.8049 17.6704 26.0959C17.5423 26.387 17.3419 26.6405 17.0883 26.8324C17.0075 26.9046 16.9471 26.9969 16.9133 27.0999C16.8795 27.203 16.8734 27.3131 16.8956 27.4192H16.8737Z" fill="#595A5B"/>
</g>
<defs>
<clipPath id="clip0_113_239">
<rect width="32" height="41.0653" fill="white"/>
</clipPath>
</defs>
</svg>
