<svg width="17" height="18" viewBox="0 0 17 18" fill="none" xmlns="http://www.w3.org/2000/svg">
<path d="M0.490234 8.94922C0.490234 9.1901 0.57487 9.39518 0.744141 9.56445C0.919922 9.73372 1.125 9.81836 1.35938 9.81836H7.67773V16.1367C7.67773 16.3711 7.76237 16.5729 7.93164 16.7422C8.10091 16.918 8.30599 17.0059 8.54688 17.0059C8.78776 17.0059 8.99284 16.918 9.16211 16.7422C9.33789 16.5729 9.42578 16.3711 9.42578 16.1367V9.81836H15.7344C15.9688 9.81836 16.1706 9.73372 16.3398 9.56445C16.5156 9.39518 16.6035 9.1901 16.6035 8.94922C16.6035 8.70833 16.5156 8.50326 16.3398 8.33398C16.1706 8.1582 15.9688 8.07031 15.7344 8.07031H9.42578V1.76172C9.42578 1.52734 9.33789 1.32552 9.16211 1.15625C8.99284 0.980469 8.78776 0.892578 8.54688 0.892578C8.30599 0.892578 8.10091 0.980469 7.93164 1.15625C7.76237 1.32552 7.67773 1.52734 7.67773 1.76172V8.07031H1.35938C1.125 8.07031 0.919922 8.1582 0.744141 8.33398C0.57487 8.50326 0.490234 8.70833 0.490234 8.94922Z" fill="#F1F5FE"/>
</svg>
