<svg width="27" height="28" viewBox="0 0 27 28" fill="none" xmlns="http://www.w3.org/2000/svg">
<path d="M0.144531 11.5586C0.144531 13.0625 0.427083 14.4753 0.992188 15.7969C1.55729 17.1094 2.34115 18.2669 3.34375 19.2695C4.34635 20.2721 5.50391 21.056 6.81641 21.6211C8.13802 22.1862 9.55078 22.4688 11.0547 22.4688C12.2396 22.4688 13.3698 22.2865 14.4453 21.9219C15.5208 21.5573 16.5052 21.056 17.3984 20.418L24.125 27.1582C24.2891 27.3132 24.4668 27.4271 24.6582 27.5C24.8587 27.582 25.0684 27.623 25.2871 27.623C25.597 27.623 25.8704 27.5501 26.1074 27.4043C26.3444 27.2676 26.5267 27.0762 26.6543 26.8301C26.791 26.584 26.8594 26.3105 26.8594 26.0098C26.8594 25.791 26.8184 25.5859 26.7363 25.3945C26.6634 25.2031 26.554 25.0345 26.4082 24.8887L19.7227 18.1621C20.4245 17.2507 20.9714 16.2344 21.3633 15.1133C21.7643 13.9922 21.9648 12.8073 21.9648 11.5586C21.9648 10.0547 21.6823 8.64648 21.1172 7.33398C20.5521 6.01237 19.7682 4.85026 18.7656 3.84766C17.763 2.84505 16.6009 2.0612 15.2793 1.49609C13.9668 0.93099 12.5586 0.648438 11.0547 0.648438C9.55078 0.648438 8.13802 0.93099 6.81641 1.49609C5.50391 2.0612 4.34635 2.84505 3.34375 3.84766C2.34115 4.85026 1.55729 6.01237 0.992188 7.33398C0.427083 8.64648 0.144531 10.0547 0.144531 11.5586ZM2.48242 11.5586C2.48242 10.3737 2.70117 9.26628 3.13867 8.23633C3.58529 7.19727 4.20052 6.28581 4.98438 5.50195C5.77734 4.70898 6.6888 4.09375 7.71875 3.65625C8.75781 3.20964 9.86979 2.98633 11.0547 2.98633C12.2396 2.98633 13.347 3.20964 14.377 3.65625C15.416 4.09375 16.3275 4.70898 17.1113 5.50195C17.8952 6.28581 18.5104 7.19727 18.957 8.23633C19.4036 9.26628 19.627 10.3737 19.627 11.5586C19.627 12.7435 19.4036 13.8555 18.957 14.8945C18.5104 15.9245 17.8952 16.8314 17.1113 17.6152C16.3275 18.3991 15.416 19.0143 14.377 19.4609C13.347 19.9076 12.2396 20.1309 11.0547 20.1309C9.86979 20.1309 8.75781 19.9076 7.71875 19.4609C6.6888 19.0143 5.77734 18.3991 4.98438 17.6152C4.20052 16.8314 3.58529 15.9245 3.13867 14.8945C2.70117 13.8555 2.48242 12.7435 2.48242 11.5586Z" fill="#595A5B"/>
</svg>
