<svg width="32" height="33" viewBox="0 0 32 33" fill="none" xmlns="http://www.w3.org/2000/svg">
<g clip-path="url(#clip0_113_249)">
<path d="M23.4793 18.2028C23.1953 17.9331 22.8186 17.7828 22.427 17.7828C22.0354 17.7828 21.6587 17.9331 21.3747 18.2028L21.0204 18.5614L19.5647 17.1099L24.999 11.667C25.9443 11.8558 26.9217 11.8076 27.8438 11.5268C28.766 11.246 29.6043 10.7412 30.284 10.0576C31.0713 9.26538 31.6179 8.26617 31.8605 7.17588C32.103 6.08558 32.0315 4.94887 31.6543 3.89755C31.6275 3.81955 31.5813 3.74964 31.5201 3.69438C31.4589 3.63912 31.3846 3.60033 31.3042 3.58165C31.2204 3.56478 31.1337 3.56881 31.0518 3.59338C30.9699 3.61795 30.8954 3.6623 30.8347 3.72253L26.9926 7.56458C26.3919 7.37363 25.8458 7.04136 25.4001 6.59568C24.9545 6.14999 24.6222 5.60389 24.4312 5.00321L28.2733 1.16116C28.3306 1.1014 28.3726 1.02862 28.3957 0.949061C28.4187 0.869506 28.4221 0.785549 28.4056 0.704386C28.388 0.624004 28.3512 0.54906 28.2985 0.485898C28.2457 0.422735 28.1785 0.373214 28.1025 0.341526C27.0521 -0.0348435 25.9166 -0.10629 24.8273 0.135444C23.738 0.377178 22.7393 0.922223 21.9467 1.70759C21.2635 2.38659 20.7589 3.22417 20.4781 4.14559C20.1973 5.06701 20.1489 6.04361 20.3373 6.98827L14.8944 12.4312L8.63616 6.16863L8.80692 5.99787C8.89004 5.91667 8.94167 5.80862 8.95261 5.69293C8.96356 5.57724 8.93311 5.46142 8.86668 5.36607L5.54971 0.631814C5.50662 0.571519 5.45044 0.521762 5.38538 0.486274C5.32032 0.450787 5.24807 0.430489 5.17404 0.426904C5.10203 0.421799 5.02975 0.432104 4.96202 0.457132C4.8943 0.48216 4.83269 0.521336 4.7813 0.572048L0.563586 4.77696C0.511255 4.82897 0.471099 4.89193 0.446002 4.96132C0.420906 5.0307 0.411494 5.10478 0.418442 5.17824C0.42317 5.25012 0.444525 5.31993 0.480824 5.38215C0.517123 5.44438 0.567374 5.49733 0.62762 5.53683L5.36188 8.86234C5.44497 8.9187 5.54323 8.94848 5.64363 8.94771C5.70855 8.94972 5.77317 8.93823 5.83343 8.91398C5.89368 8.88974 5.94825 8.85325 5.99368 8.80684L6.17725 8.63181L12.4355 14.9072L7.00542 20.333C5.98441 20.1349 4.92916 20.2107 3.94692 20.5526C2.96468 20.8945 2.09047 21.4904 1.41311 22.2796C0.735763 23.0688 0.279423 24.0233 0.0904713 25.046C-0.0984805 26.0688 -0.0133083 27.1233 0.337332 28.1025C0.368563 28.18 0.417728 28.2491 0.4808 28.304C0.543872 28.3589 0.619056 28.3981 0.700192 28.4184C0.781682 28.4354 0.866075 28.4327 0.946294 28.4104C1.02651 28.3881 1.10022 28.3469 1.16124 28.2903L5.00329 24.4482C5.60197 24.6429 6.1461 24.9765 6.59126 25.4216C7.03641 25.8668 7.36996 26.4109 7.56465 27.0096L3.7226 30.8517C3.66288 30.9108 3.61905 30.9841 3.59517 31.0647C3.57129 31.1453 3.56813 31.2306 3.586 31.3127C3.60375 31.3944 3.64208 31.4703 3.69737 31.533C3.75266 31.5958 3.82306 31.6434 3.9019 31.6713C4.95282 32.0483 6.08933 32.1184 7.17863 31.8735C8.26793 31.6286 9.26504 31.0787 10.0534 30.2882C10.7367 29.6126 11.2417 28.7782 11.5233 27.8596C11.8049 26.941 11.8543 25.9669 11.6671 25.0246L17.1057 19.5688L18.5615 21.0246L18.2071 21.3703C18.0679 21.5088 17.9573 21.6734 17.8819 21.8547C17.8065 22.0361 17.7677 22.2305 17.7677 22.4269C17.7677 22.6233 17.8065 22.8177 17.8819 22.9991C17.9573 23.1804 18.0679 23.345 18.2071 23.4835L25.221 30.4931C25.9196 31.1928 26.8675 31.5863 27.8562 31.5871C28.8449 31.5879 29.7935 31.1959 30.4931 30.4973C31.1928 29.7988 31.5864 28.8509 31.5872 27.8622C31.588 26.8734 31.196 25.9249 30.4974 25.2252L23.4793 18.2028ZM5.5924 7.81218L1.70766 5.06298L5.08867 1.68197L7.82933 5.57952L7.5988 5.82712L5.84427 7.58165L5.5924 7.81218ZM6.87308 7.92744L7.93178 6.87728L14.1986 13.1355L13.1399 14.2028L6.87308 7.92744ZM10.6468 24.952C10.849 25.7697 10.8374 26.6257 10.6131 27.4376C10.3888 28.2495 9.95941 28.9901 9.36615 29.5881C8.80434 30.1377 8.12037 30.5464 7.37022 30.7809C6.62007 31.0154 5.82505 31.0689 5.05025 30.937L8.49528 27.4835C8.55526 27.4255 8.59873 27.3527 8.62124 27.2724C8.64375 27.1922 8.64448 27.1073 8.62335 27.0267C8.40915 26.1495 7.95898 25.3476 7.32161 24.708C6.68424 24.0684 5.88399 23.6154 5.00756 23.3981C4.92366 23.3752 4.83518 23.375 4.75117 23.3975C4.66717 23.42 4.59064 23.4644 4.52943 23.5262L1.06732 26.9669C0.923206 26.1644 0.98178 25.3386 1.23773 24.5644C1.49368 23.7903 1.9389 23.0923 2.53298 22.5338C3.12706 21.9754 3.85121 21.5741 4.63968 21.3664C5.42816 21.1588 6.25601 21.1513 7.04811 21.3447C7.12954 21.3728 7.21756 21.3756 7.3006 21.3528C7.38365 21.3299 7.45784 21.2825 7.51343 21.2167L21.2295 7.50908C21.2889 7.44971 21.3326 7.37643 21.3564 7.29591C21.3803 7.21539 21.3836 7.13018 21.3661 7.04804C21.1603 6.23319 21.1701 5.37879 21.3947 4.56891C21.6192 3.75902 22.0508 3.02154 22.6468 2.42904C23.2059 1.87267 23.8908 1.45921 24.6436 1.22365C25.3963 0.988085 26.1948 0.937367 26.9713 1.07578L23.5305 4.51655C23.4676 4.57621 23.4217 4.65159 23.3977 4.73489C23.3737 4.8182 23.3724 4.90641 23.3939 4.9904C23.6125 5.86437 24.0649 6.6623 24.7027 7.29857C25.3405 7.93484 26.1395 8.38541 27.014 8.60193C27.0972 8.62494 27.185 8.6252 27.2684 8.60267C27.3517 8.58014 27.4275 8.53566 27.4878 8.47386L30.9371 5.03309C31.0805 5.83475 31.0214 6.65951 30.7653 7.43258C30.5093 8.20564 30.0643 8.90255 29.4707 9.4601C28.8771 10.0176 28.1537 10.4182 27.3661 10.6254C26.5786 10.8326 25.7517 10.84 24.9606 10.6468C24.878 10.6246 24.791 10.6247 24.7085 10.6472C24.626 10.6697 24.5509 10.7138 24.491 10.7748L10.7749 24.4909C10.7138 24.549 10.6696 24.6225 10.6471 24.7037C10.6245 24.7849 10.6244 24.8707 10.6468 24.952ZM17.8058 18.8645L18.8603 17.8143L20.316 19.2529L20.1068 19.4707L19.7909 19.7866L19.2573 20.3159L17.8058 18.8645ZM25.9168 29.7887L18.9115 22.7791C18.8214 22.6839 18.7712 22.5579 18.7712 22.4269C18.7712 22.2959 18.8214 22.1699 18.9115 22.0747L19.6201 21.3703L20.0641 20.9178L20.1282 20.8581L29.3918 30.1131C28.8657 30.4709 28.2315 30.6342 27.5981 30.575C26.9647 30.5158 26.3717 30.2378 25.9211 29.7887H25.9168ZM30.1047 29.413L20.8411 20.1452L22.0705 18.9072C22.1668 18.817 22.2929 18.7653 22.4248 18.762C22.5556 18.7647 22.6806 18.8165 22.7749 18.9072L29.793 25.9296C30.0486 26.1813 30.251 26.4818 30.3881 26.8133C30.5253 27.1448 30.5944 27.5004 30.5913 27.8591C30.5924 28.4141 30.4241 28.9562 30.1089 29.413H30.1047Z" fill="#595A5B"/>
</g>
<defs>
<clipPath id="clip0_113_249">
<rect width="32" height="32.0043" fill="white"/>
</clipPath>
</defs>
</svg>
