<svg width="32" height="33" viewBox="0 0 32 33" fill="none" xmlns="http://www.w3.org/2000/svg">
<g clip-path="url(#clip0_115_1491)">
<path d="M14.1984 13.1356L7.93162 6.87729L6.87292 7.92745L13.1397 14.2028L14.1984 13.1356Z" fill="#09ABB6"/>
<path d="M24.9563 10.6468C25.7474 10.84 26.5742 10.8326 27.3618 10.6254C28.1494 10.4182 28.8727 10.0176 29.4663 9.4601C30.0599 8.90255 30.5049 8.20565 30.761 7.43258C31.0171 6.65952 31.0761 5.83476 30.9328 5.0331L27.4835 8.47387C27.4232 8.53566 27.3474 8.58015 27.2641 8.60267C27.1807 8.6252 27.0928 8.62495 27.0096 8.60193C26.1351 8.38541 25.3361 7.93484 24.6984 7.29857C24.0606 6.66231 23.6081 5.86437 23.3896 4.99041C23.3681 4.90642 23.3694 4.8182 23.3934 4.7349C23.4174 4.65159 23.4632 4.57621 23.5262 4.51656L26.9669 1.07579C26.1924 0.93952 25.3965 0.991316 24.6461 1.22682C23.8958 1.46232 23.213 1.87463 22.6553 2.42904C22.0592 3.02155 21.6277 3.75902 21.4032 4.56891C21.1786 5.3788 21.1688 6.23319 21.3746 7.04804C21.3921 7.13018 21.3887 7.21539 21.3649 7.29591C21.341 7.37644 21.2974 7.44971 21.238 7.50908L7.51336 21.2252C7.45777 21.291 7.38358 21.3384 7.30053 21.3613C7.21749 21.3842 7.12947 21.3814 7.04804 21.3533C6.25705 21.1612 5.43065 21.1694 4.64361 21.377C3.85656 21.5847 3.1337 21.9852 2.5404 22.5425C1.9471 23.0998 1.50209 23.7962 1.24562 24.5687C0.989153 25.3412 0.929315 26.1655 1.07152 26.9669L4.51656 23.5262C4.57777 23.4644 4.65429 23.42 4.7383 23.3975C4.8223 23.375 4.91078 23.3752 4.99468 23.3981C5.87111 23.6154 6.67137 24.0684 7.30873 24.708C7.9461 25.3476 8.39627 26.1495 8.61047 27.0267C8.6316 27.1073 8.63087 27.1922 8.60836 27.2724C8.58585 27.3527 8.54238 27.4256 8.48241 27.4835L5.03737 30.937C5.81151 31.0682 6.60569 31.0143 7.35504 30.7799C8.10439 30.5454 8.78765 30.137 9.349 29.5881C9.94227 28.9901 10.3717 28.2495 10.596 27.4376C10.8203 26.6257 10.8319 25.7697 10.6297 24.952C10.6073 24.8707 10.6074 24.7849 10.6299 24.7037C10.6525 24.6225 10.6967 24.549 10.7578 24.4909L24.4867 10.7748C24.5466 10.7138 24.6216 10.6697 24.7041 10.6472C24.7866 10.6247 24.8737 10.6246 24.9563 10.6468Z" fill="#09ABB6"/>
<path d="M7.80782 5.57952L5.06716 1.68198L1.68616 5.06298L5.59224 7.81218L5.82276 7.58166L7.5773 5.82712L7.80782 5.57952Z" fill="#09ABB6"/>
<path d="M20.064 20.9178L19.5987 21.3789L18.89 22.0832C18.8 22.1784 18.7498 22.3044 18.7498 22.4354C18.7498 22.5664 18.8 22.6925 18.89 22.7876L25.921 29.7887C26.3734 30.2397 26.9694 30.5182 27.6056 30.5759C28.2419 30.6336 28.8782 30.4668 29.4044 30.1046L20.1408 20.8495L20.064 20.9178Z" fill="#09ABB6"/>
<path d="M22.7748 18.9072C22.6805 18.8165 22.5555 18.7647 22.4247 18.762C22.2928 18.7653 22.1667 18.817 22.0704 18.9072L20.8409 20.1452L30.1088 29.413C30.4239 28.9562 30.5922 28.4141 30.5912 27.8591C30.5942 27.5004 30.5251 27.1448 30.388 26.8133C30.2509 26.4818 30.0485 26.1813 29.7929 25.9296L22.7748 18.9072Z" fill="#09ABB6"/>
<path d="M20.1067 19.4707L20.3159 19.2529L18.8645 17.8143L17.9467 18.7236L19.4024 20.175L19.7908 19.7866L20.1067 19.4707Z" fill="#09ABB6"/>
<path d="M23.4792 18.2028C23.1952 17.9331 22.8185 17.7828 22.4269 17.7828C22.0352 17.7828 21.6586 17.9331 21.3746 18.2028L21.0202 18.5614L19.5645 17.1099L24.9989 11.667C25.9442 11.8558 26.9216 11.8076 27.8437 11.5268C28.7659 11.246 29.6042 10.7412 30.2838 10.0576C31.0712 9.26538 31.6178 8.26617 31.8604 7.17588C32.1029 6.08558 32.0314 4.94887 31.6542 3.89755C31.6274 3.81955 31.5812 3.74964 31.52 3.69438C31.4587 3.63912 31.3845 3.60033 31.3041 3.58165C31.2203 3.56478 31.1336 3.56881 31.0517 3.59338C30.9698 3.61795 30.8952 3.6623 30.8345 3.72253L26.9925 7.56458C26.3918 7.37363 25.8457 7.04136 25.4 6.59568C24.9543 6.14999 24.6221 5.60389 24.4311 5.00321L28.2732 1.16116C28.3305 1.1014 28.3725 1.02862 28.3956 0.949061C28.4186 0.869506 28.422 0.785549 28.4055 0.704386C28.3879 0.624004 28.3511 0.54906 28.2983 0.485898C28.2456 0.422735 28.1784 0.373214 28.1024 0.341526C27.052 -0.0348435 25.9165 -0.10629 24.8272 0.135444C23.7379 0.377178 22.7392 0.922223 21.9466 1.70759C21.2634 2.38659 20.7588 3.22417 20.478 4.14559C20.1972 5.06701 20.1488 6.04361 20.3372 6.98827L14.8986 12.4312L8.63604 6.16863L8.80679 5.99787C8.88992 5.91667 8.94155 5.80862 8.95249 5.69293C8.96343 5.57724 8.93298 5.46142 8.86656 5.36607L5.54959 0.631814C5.5065 0.571519 5.45032 0.521762 5.38526 0.486274C5.3202 0.450787 5.24795 0.430489 5.17392 0.426904C5.1019 0.421799 5.02962 0.432104 4.9619 0.457132C4.89418 0.48216 4.83257 0.521336 4.78118 0.572048L0.563464 4.77696C0.511133 4.82897 0.470977 4.89193 0.44588 4.96132C0.420784 5.0307 0.411372 5.10478 0.41832 5.17824C0.423991 5.24989 0.445744 5.31934 0.481959 5.38142C0.518174 5.4435 0.567921 5.49662 0.627498 5.53683L5.36176 8.86234C5.44485 8.9187 5.54311 8.94848 5.64351 8.94771C5.70843 8.94972 5.77305 8.93823 5.83331 8.91398C5.89356 8.88974 5.94813 8.85325 5.99356 8.80684L6.17712 8.63181L12.4354 14.9072L7.0053 20.333C5.98429 20.1349 4.92904 20.2107 3.9468 20.5526C2.96456 20.8945 2.09034 21.4904 1.41299 22.2796C0.735641 23.0688 0.279301 24.0233 0.0903492 25.046C-0.0986025 26.0688 -0.0134304 27.1233 0.33721 28.1025C0.368441 28.18 0.417606 28.2491 0.480678 28.304C0.54375 28.3589 0.618934 28.3981 0.70007 28.4184C0.78156 28.4354 0.865952 28.4327 0.946172 28.4104C1.02639 28.3881 1.1001 28.3469 1.16112 28.2903L5.00317 24.4482C5.60185 24.6429 6.14598 24.9765 6.59114 25.4216C7.03629 25.8668 7.36984 26.4109 7.56453 27.0096L3.72248 30.8517C3.66276 30.9108 3.61892 30.9841 3.59504 31.0647C3.57117 31.1453 3.56801 31.2306 3.58588 31.3127C3.60363 31.3944 3.64196 31.4703 3.69725 31.533C3.75253 31.5958 3.82294 31.6434 3.90178 31.6713C4.9527 32.0483 6.08921 32.1184 7.17851 31.8735C8.26781 31.6286 9.26491 31.0787 10.0533 30.2882C10.7365 29.6126 11.2416 28.7782 11.5232 27.8596C11.8048 26.941 11.8542 25.9669 11.667 25.0246L17.1056 19.5688L18.5613 21.0246L18.207 21.3703C18.0677 21.5088 17.9572 21.6734 17.8818 21.8547C17.8064 22.0361 17.7676 22.2305 17.7676 22.4269C17.7676 22.6233 17.8064 22.8177 17.8818 22.9991C17.9572 23.1804 18.0677 23.345 18.207 23.4835L25.2209 30.4931C25.9194 31.1928 26.8673 31.5863 27.8561 31.5871C28.8448 31.5879 29.7933 31.1959 30.493 30.4973C31.1927 29.7988 31.5863 28.8509 31.5871 27.8622C31.5879 26.8734 31.1959 25.9249 30.4973 25.2252L23.4792 18.2028ZM20.8111 19.0566L20.5635 19.3127L20.1835 19.6926L19.5432 20.3287L19.4023 20.1878L17.9295 18.7236L17.7887 18.5784L19.0693 17.2978L20.8111 19.0566ZM5.8228 7.58165L5.59228 7.81218L1.70754 5.06298L5.08854 1.68197L7.82921 5.57952L7.59868 5.82712L5.8228 7.58165ZM6.87296 7.92744L7.93166 6.87728L14.1985 13.1355L13.1398 14.2028L6.87296 7.92744ZM10.7748 24.4909C10.7137 24.549 10.6695 24.6225 10.6469 24.7037C10.6244 24.7849 10.6243 24.8707 10.6467 24.952C10.8489 25.7697 10.8373 26.6257 10.613 27.4376C10.3887 28.2495 9.95929 28.9901 9.36602 29.5881C8.80422 30.1377 8.12025 30.5464 7.3701 30.7809C6.61994 31.0154 5.82493 31.0689 5.05012 30.937L8.49516 27.4835C8.55513 27.4255 8.59861 27.3527 8.62112 27.2724C8.64362 27.1922 8.64435 27.1073 8.62323 27.0267C8.40903 26.1495 7.95885 25.3476 7.32149 24.708C6.68412 24.0684 5.88387 23.6154 5.00743 23.3981C4.92354 23.3752 4.83506 23.375 4.75105 23.3975C4.66704 23.42 4.59052 23.4644 4.52931 23.5262L1.0672 26.9669C0.923084 26.1644 0.981658 25.3386 1.23761 24.5644C1.49355 23.7903 1.93877 23.0923 2.53286 22.5338C3.12694 21.9754 3.85108 21.5741 4.63956 21.3664C5.42804 21.1588 6.25589 21.1513 7.04799 21.3447C7.12942 21.3728 7.21743 21.3756 7.30048 21.3528C7.38353 21.3299 7.45772 21.2825 7.5133 21.2167L21.2294 7.50908C21.2888 7.44971 21.3324 7.37643 21.3563 7.29591C21.3801 7.21539 21.3835 7.13018 21.366 7.04804C21.1602 6.23319 21.17 5.37879 21.3946 4.56891C21.6191 3.75902 22.0507 3.02154 22.6467 2.42904C23.2058 1.87267 23.8907 1.45921 24.6435 1.22365C25.3962 0.988085 26.1946 0.937367 26.9711 1.07578L23.5304 4.51655C23.4675 4.57621 23.4216 4.65159 23.3976 4.73489C23.3736 4.8182 23.3723 4.90641 23.3938 4.9904C23.6124 5.86437 24.0648 6.6623 24.7026 7.29857C25.3404 7.93484 26.1394 8.38541 27.0138 8.60193C27.0971 8.62494 27.1849 8.6252 27.2683 8.60267C27.3516 8.58014 27.4274 8.53566 27.4877 8.47386L30.937 5.03309C31.0803 5.83475 31.0213 6.65951 30.7652 7.43258C30.5091 8.20564 30.0641 8.90255 29.4705 9.4601C28.877 10.0176 28.1536 10.4182 27.366 10.6254C26.5784 10.8326 25.7516 10.84 24.9605 10.6468C24.8779 10.6246 24.7909 10.6247 24.7083 10.6472C24.6258 10.6697 24.5508 10.7138 24.4909 10.7748L10.7748 24.4909ZM25.921 29.7887L18.9114 22.7791C18.8213 22.6839 18.7711 22.5579 18.7711 22.4269C18.7711 22.2959 18.8213 22.1699 18.9114 22.0747L19.62 21.3703L20.064 20.9178L20.128 20.8581L29.3916 30.1131C28.8656 30.4709 28.2314 30.6342 27.598 30.575C26.9646 30.5158 26.3716 30.2378 25.921 29.7887ZM30.1088 29.413L20.8409 20.1452L22.0704 18.9072C22.1667 18.817 22.2928 18.7653 22.4247 18.762C22.5555 18.7647 22.6805 18.8165 22.7748 18.9072L29.7929 25.9296C30.0485 26.1813 30.2509 26.4818 30.388 26.8133C30.5251 27.1448 30.5942 27.5004 30.5912 27.8591C30.5922 28.4141 30.4239 28.9562 30.1088 29.413Z" fill="white"/>
</g>
<defs>
<clipPath id="clip0_115_1491">
<rect width="32" height="32.0043" fill="white"/>
</clipPath>
</defs>
</svg>
