<svg width="32" height="32" viewBox="0 0 32 32" fill="none" xmlns="http://www.w3.org/2000/svg">
<g clip-path="url(#clip0_115_1478)">
<path d="M0.467327 0.601978V0.689107C0.49505 0.661384 0.514852 0.629701 0.542575 0.601978H0.467327Z" fill="#09ABB6"/>
<path d="M31.0297 1.94059C31.0276 1.68247 30.9245 1.43545 30.7423 1.25255C30.5602 1.06966 30.3136 0.965477 30.0554 0.962376H1.93663C1.67852 0.965477 1.43192 1.06966 1.24976 1.25255C1.06761 1.43545 0.96443 1.68247 0.962376 1.94059V17.6436C0.96259 17.776 0.990136 17.907 1.04329 18.0283C1.09644 18.1496 1.17406 18.2586 1.27129 18.3485H8.08317L10.8 15.6277C10.8917 15.5385 11.0146 15.4885 11.1426 15.4885C11.2705 15.4885 11.3935 15.5385 11.4851 15.6277C11.531 15.673 11.5674 15.727 11.5923 15.7865C11.6171 15.846 11.6299 15.9098 11.6299 15.9743C11.6299 16.0387 11.6171 16.1026 11.5923 16.162C11.5674 16.2215 11.531 16.2755 11.4851 16.3208L9.45346 18.3485H13.0178L15.7347 15.6277C15.771 15.5956 15.8108 15.5677 15.8535 15.5446C15.9374 15.5005 16.0322 15.4812 16.1267 15.4891C16.176 15.4948 16.2241 15.5082 16.2693 15.5287C16.3116 15.5477 16.3515 15.5717 16.3881 15.6C16.4464 15.6475 16.4926 15.7082 16.5229 15.777C16.5532 15.8459 16.5667 15.9209 16.5624 15.996V18.3723H30.7248C30.8207 18.2816 30.8972 18.1723 30.9496 18.0511C31.0021 17.9299 31.0293 17.7994 31.0297 17.6673V1.94059ZM29.596 16.6653C29.7023 16.7344 29.7772 16.8423 29.8046 16.9661C29.832 17.0898 29.8098 17.2193 29.7426 17.3267C29.6986 17.3919 29.6397 17.4456 29.5709 17.4835C29.502 17.5214 29.4251 17.5423 29.3465 17.5446C29.2535 17.5486 29.1618 17.5222 29.0851 17.4693L18.6139 10.7525L16.2772 12.404C16.1973 12.4676 16.0982 12.5022 15.996 12.5022C15.8939 12.5022 15.7948 12.4676 15.7149 12.404L13.3861 10.7525L2.92673 17.4851C2.87362 17.5204 2.81402 17.5446 2.75141 17.5565C2.68881 17.5684 2.62446 17.5677 2.56214 17.5544C2.49982 17.5411 2.44077 17.5156 2.38844 17.4792C2.33612 17.4428 2.29158 17.3964 2.25743 17.3426C2.22258 17.2898 2.1987 17.2306 2.18721 17.1685C2.17571 17.1063 2.17683 17.0425 2.1905 16.9808C2.20417 16.9191 2.23012 16.8608 2.26679 16.8093C2.30346 16.7578 2.35011 16.7143 2.40396 16.6812L12.5347 10.1465L2.37624 2.92277C2.2732 2.84668 2.20366 2.73361 2.18225 2.60732C2.16083 2.48103 2.1892 2.35136 2.26139 2.24554C2.29809 2.19326 2.3448 2.14878 2.39881 2.11467C2.45282 2.08056 2.51306 2.05749 2.57604 2.04681C2.63902 2.03613 2.70349 2.03805 2.76572 2.05244C2.82796 2.06684 2.88672 2.09344 2.93861 2.13069L13.6752 9.77426L15.9921 11.4139L18.3168 9.77426L29.0495 2.13069C29.1547 2.06746 29.28 2.0463 29.4001 2.07143C29.5203 2.09656 29.6265 2.16613 29.6976 2.26623C29.7687 2.36633 29.7993 2.48957 29.7834 2.6113C29.7675 2.73303 29.7063 2.84427 29.6119 2.92277L19.4653 10.1465L29.596 16.6653Z" fill="#09ABB6"/>
<path d="M15.5723 17.1406L14.3644 18.3485H15.5723V17.1406Z" fill="#09ABB6"/>
<path d="M24.8039 18.6139C24.6758 18.6139 24.5529 18.6648 24.4623 18.7554C24.3716 18.846 24.3207 18.9689 24.3207 19.097C24.3207 19.2252 24.3716 19.3481 24.4623 19.4387C24.5529 19.5293 24.6758 19.5802 24.8039 19.5802H30.0554C30.3109 19.5807 30.564 19.5308 30.8002 19.4332C31.0363 19.3357 31.2509 19.1925 31.4316 19.0118C31.6122 18.8311 31.7555 18.6166 31.853 18.3804C31.9505 18.1443 32.0005 17.8912 31.9999 17.6356V1.94059C31.9979 1.42587 31.7922 0.932892 31.4279 0.569299C31.0635 0.205706 30.5701 0.00104194 30.0554 0L1.93658 0C1.6755 0.000330237 1.41723 0.0538818 1.17754 0.157384C0.937849 0.260885 0.721777 0.412165 0.542519 0.60198C0.514797 0.629703 0.494995 0.661386 0.467272 0.689109C0.169191 1.03835 0.00372349 1.48146 -5.50038e-05 1.94059V17.6436C-0.00162403 17.8987 0.0473393 18.1516 0.144011 18.3877C0.240682 18.6239 0.383147 18.8385 0.563189 19.0193C0.743231 19.2 0.957285 19.3434 1.193 19.441C1.42872 19.5387 1.68144 19.5886 1.93658 19.5881H4.43955C4.56769 19.5881 4.69059 19.5372 4.7812 19.4466C4.87181 19.356 4.92272 19.2331 4.92272 19.105C4.92272 18.9768 4.87181 18.8539 4.7812 18.7633C4.69059 18.6727 4.56769 18.6218 4.43955 18.6218H1.93658C1.6791 18.6167 1.43366 18.5119 1.25193 18.3294C1.0702 18.1469 0.966375 17.9011 0.962321 17.6436V1.94059C0.964376 1.68247 1.06756 1.43545 1.24971 1.25255C1.43186 1.06966 1.67847 0.965478 1.93658 0.962376H30.0554C30.3135 0.965478 30.5601 1.06966 30.7423 1.25255C30.9244 1.43545 31.0276 1.68247 31.0296 1.94059V17.6436C31.0255 17.9003 30.9215 18.1453 30.7395 18.3265C30.5576 18.5077 30.3121 18.6108 30.0554 18.6139H24.8039Z" fill="white"/>
<path d="M29.7267 2.24555C29.69 2.19327 29.6433 2.14878 29.5893 2.11467C29.5353 2.08056 29.4751 2.0575 29.4121 2.04681C29.3491 2.03613 29.2846 2.03805 29.2224 2.05245C29.1602 2.06684 29.1014 2.09344 29.0495 2.13069L18.3208 9.77426L15.996 11.4139L13.6792 9.77426L2.94257 2.13069C2.89068 2.09344 2.83192 2.06684 2.76968 2.05245C2.70745 2.03805 2.64298 2.03613 2.58 2.04681C2.51702 2.0575 2.45678 2.08056 2.40277 2.11467C2.34876 2.14878 2.30205 2.19327 2.26535 2.24555C2.19274 2.35088 2.16373 2.48024 2.18441 2.60649C2.20508 2.73275 2.27383 2.84609 2.37624 2.92277L12.5347 10.1465L2.40396 16.6653C2.35011 16.6984 2.30346 16.742 2.26679 16.7935C2.23012 16.8449 2.20417 16.9033 2.1905 16.965C2.17683 17.0267 2.17571 17.0905 2.18721 17.1527C2.1987 17.2148 2.22258 17.274 2.25743 17.3267C2.29158 17.3805 2.33612 17.427 2.38844 17.4633C2.44077 17.4997 2.49982 17.5253 2.56214 17.5386C2.62446 17.5518 2.68881 17.5526 2.75141 17.5407C2.81402 17.5288 2.87362 17.5045 2.92673 17.4693L13.3861 10.7366L15.7149 12.3881C15.7948 12.4517 15.8939 12.4864 15.996 12.4864C16.0982 12.4864 16.1973 12.4517 16.2772 12.3881L18.6139 10.7525L29.0733 17.4851C29.1499 17.538 29.2417 17.5644 29.3347 17.5604C29.4132 17.5581 29.4901 17.5372 29.559 17.4993C29.6279 17.4614 29.6867 17.4077 29.7307 17.3426C29.7979 17.2351 29.8202 17.1056 29.7927 16.9819C29.7653 16.8582 29.6904 16.7502 29.5842 16.6812L19.4653 10.1465L29.6119 2.92277C29.6642 2.88607 29.7086 2.83936 29.7428 2.78535C29.7769 2.73134 29.7999 2.6711 29.8106 2.60812C29.8213 2.54514 29.8194 2.48067 29.805 2.41843C29.7906 2.3562 29.764 2.29744 29.7267 2.24555Z" fill="white"/>
<path d="M10.8 15.6277L8.08317 18.3485L4.62178 21.8178C4.57736 21.8626 4.54117 21.9149 4.51485 21.9723C4.49044 22.0286 4.477 22.0891 4.47525 22.1505C4.47576 22.2171 4.48921 22.283 4.51485 22.3446C4.5422 22.4001 4.57831 22.4509 4.62178 22.495L10.8 28.6851C10.8946 28.7716 11.0165 28.8221 11.1446 28.8277C11.2073 28.8264 11.2691 28.8129 11.3267 28.7881C11.3833 28.7599 11.4364 28.7253 11.4851 28.6851C11.531 28.6398 11.5674 28.5859 11.5923 28.5264C11.6171 28.4669 11.6299 28.4031 11.6299 28.3386C11.6299 28.2741 11.6171 28.2103 11.5923 28.1508C11.5674 28.0913 11.531 28.0374 11.4851 27.9921L5.64752 22.1505L8.88713 18.9148H7.52475L10.8 15.6277Z" fill="#09ABB6"/>
<path d="M15.5723 19.4059C15.5764 19.5358 15.6303 19.6592 15.7228 19.7505C15.7682 19.7931 15.8222 19.8256 15.8812 19.8455C15.9407 19.8679 16.0038 19.8786 16.0673 19.8772C17.7066 19.8974 19.3343 20.1562 20.899 20.6455C21.4792 20.8238 22.049 21.034 22.6059 21.2752C23.002 21.4416 23.398 21.6317 23.7941 21.8416C26.8672 23.4835 29.2203 26.2092 30.396 29.4891C30.1307 29.2396 29.8297 28.9703 29.4931 28.697C28.0148 27.4963 26.3596 26.5318 24.5861 25.8376C23.9579 25.5894 23.3167 25.3753 22.6653 25.196C22.3248 25.101 21.9762 25.0139 21.6158 24.9347C20.8649 24.7597 20.1046 24.6274 19.3386 24.5386C18.5007 24.4481 17.6586 24.4031 16.8158 24.404H16.0475C15.9211 24.409 15.8013 24.4623 15.7129 24.5529C15.6245 24.6435 15.5742 24.7645 15.5723 24.8911V27.1525L10.5624 22.1505L13.798 18.9149H12.4356L9.53663 21.8178C9.49122 21.8607 9.45486 21.9122 9.42969 21.9693C9.40453 22.0265 9.39106 22.0881 9.3901 22.1505C9.38819 22.2151 9.40031 22.2794 9.4256 22.3388C9.4509 22.3983 9.48878 22.4516 9.53663 22.495L15.7149 28.6851C15.749 28.7199 15.7893 28.7481 15.8337 28.7683C15.918 28.811 16.0128 28.8289 16.1069 28.8198C16.1553 28.8117 16.203 28.7997 16.2495 28.7842C16.2918 28.7651 16.3317 28.7412 16.3683 28.7129C16.4264 28.6651 16.4724 28.6044 16.5027 28.5356C16.533 28.4668 16.5466 28.3919 16.5426 28.3168V25.3861H16.796C26.5188 25.3861 31.0733 31.6475 31.1168 31.7228C31.1378 31.7563 31.1646 31.7859 31.196 31.8099C31.2858 31.8852 31.3996 31.926 31.5168 31.9248C31.5863 31.9232 31.6549 31.9084 31.7188 31.8812C31.7955 31.845 31.8614 31.7894 31.91 31.72C31.9586 31.6505 31.9883 31.5696 31.996 31.4851C32.0059 31.4288 32.0059 31.3712 31.996 31.3148C31.8315 30.6443 31.6306 29.9833 31.3941 29.3347C31.1738 28.7373 30.92 28.1528 30.6337 27.5842C30.1177 26.5504 29.4852 25.5791 28.7485 24.6891C28.5743 24.4792 28.396 24.2931 28.2178 24.0832C27.8604 23.7062 27.4836 23.3479 27.0891 23.0099C26.899 22.8436 26.6931 22.6851 26.5109 22.5307C26.1201 22.2244 25.7241 21.9432 25.3228 21.6871C24.7429 21.3148 24.1397 20.9801 23.5168 20.6851C22.94 20.4123 22.3491 20.1703 21.7465 19.9604C20.0686 19.3748 18.3169 19.0269 16.5426 18.9267V18.9267H15.5723V19.4059Z" fill="#09ABB6"/>
<path d="M11.4851 15.6277C11.3935 15.5385 11.2705 15.4885 11.1426 15.4885C11.0146 15.4885 10.8917 15.5385 10.8 15.6277L7.52475 18.9149H8.89109L9.45743 18.3485L11.4851 16.3208C11.531 16.2755 11.5674 16.2215 11.5923 16.162C11.6171 16.1026 11.6299 16.0387 11.6299 15.9743C11.6299 15.9098 11.6171 15.846 11.5923 15.7865C11.5674 15.727 11.531 15.673 11.4851 15.6277V15.6277Z" fill="white"/>
<path d="M16.3683 15.6C16.3316 15.5717 16.2918 15.5477 16.2495 15.5287C16.2043 15.5082 16.1562 15.4948 16.1069 15.4891C16.0124 15.4812 15.9176 15.5005 15.8337 15.5446C15.791 15.5677 15.7512 15.5956 15.7149 15.6277L12.998 18.3485L12.4356 18.9148H13.798L14.3644 18.3485L15.5525 17.1604V18.9347H16.5228V15.9762C16.5265 15.906 16.5145 15.8358 16.4878 15.7708C16.4611 15.7057 16.4203 15.6474 16.3683 15.6V15.6Z" fill="white"/>
</g>
<defs>
<clipPath id="clip0_115_1478">
<rect width="32" height="31.9208" fill="white"/>
</clipPath>
</defs>
</svg>
