<svg width="32" height="32" viewBox="0 0 32 32" fill="none" xmlns="http://www.w3.org/2000/svg">
<g clip-path="url(#clip0_113_253)">
<path d="M30.0555 0H1.93667C1.42268 0.00104896 0.930098 0.205967 0.567023 0.569785C0.203947 0.933604 3.54786e-05 1.4266 3.65489e-05 1.94059V17.6436C-0.00153247 17.8987 0.0474309 18.1516 0.144102 18.3877C0.240773 18.6238 0.383239 18.8385 0.563281 19.0193C0.743323 19.2 0.957377 19.3434 1.1931 19.441C1.42881 19.5387 1.68153 19.5886 1.93667 19.5881H4.43964C4.56779 19.5881 4.69068 19.5372 4.78129 19.4466C4.8719 19.356 4.92281 19.2331 4.92281 19.105C4.92281 18.9768 4.8719 18.8539 4.78129 18.7633C4.69068 18.6727 4.56779 18.6218 4.43964 18.6218H1.93667C1.67824 18.6197 1.43104 18.5158 1.24867 18.3327C1.0663 18.1496 0.963447 17.902 0.962413 17.6436V1.94059C0.964468 1.68247 1.06765 1.43545 1.2498 1.25255C1.43196 1.06966 1.67856 0.965478 1.93667 0.962376H30.0555C30.3136 0.965478 30.5602 1.06966 30.7424 1.25255C30.9245 1.43545 31.0277 1.68247 31.0297 1.94059V17.6436C31.0266 17.9006 30.9229 18.1462 30.7407 18.3276C30.5586 18.509 30.3126 18.6118 30.0555 18.6139H24.804C24.6759 18.6139 24.553 18.6648 24.4623 18.7554C24.3717 18.846 24.3208 18.9689 24.3208 19.097C24.3208 19.2252 24.3717 19.3481 24.4623 19.4387C24.553 19.5293 24.6759 19.5802 24.804 19.5802H30.0555C30.311 19.5807 30.5641 19.5308 30.8002 19.4332C31.0364 19.3357 31.251 19.1925 31.4317 19.0118C31.6123 18.8311 31.7555 18.6166 31.8531 18.3804C31.9506 18.1443 32.0006 17.8912 32 17.6356V1.94059C31.9979 1.42587 31.7923 0.932892 31.4279 0.569299C31.0636 0.205706 30.5702 0.00104194 30.0555 0V0Z" fill="#595A5B"/>
<path d="M2.25751 17.3267C2.29166 17.3805 2.3362 17.427 2.38852 17.4633C2.44085 17.4997 2.4999 17.5253 2.56222 17.5386C2.62454 17.5518 2.68889 17.5526 2.75149 17.5407C2.8141 17.5288 2.8737 17.5045 2.92681 17.4693L13.3862 10.7366L15.7149 12.3881C15.7948 12.4517 15.894 12.4864 15.9961 12.4864C16.0983 12.4864 16.1974 12.4517 16.2773 12.3881L18.6139 10.7525L29.0734 17.4851C29.15 17.538 29.2417 17.5644 29.3347 17.5604C29.4133 17.5581 29.4902 17.5372 29.5591 17.4993C29.6279 17.4614 29.6868 17.4077 29.7308 17.3426C29.798 17.2351 29.8202 17.1056 29.7928 16.9819C29.7654 16.8582 29.6905 16.7502 29.5842 16.6812L19.4654 10.1465L29.612 2.92277C29.7064 2.84428 29.7676 2.73303 29.7835 2.6113C29.7994 2.48957 29.7688 2.36633 29.6977 2.26623C29.6266 2.16613 29.5204 2.09656 29.4002 2.07143C29.28 2.0463 29.1548 2.06747 29.0496 2.13069L18.3209 9.77426L15.9961 11.4139L13.6793 9.77426L2.94265 2.13069C2.89076 2.09344 2.832 2.06684 2.76976 2.05245C2.70753 2.03805 2.64306 2.03613 2.58008 2.04681C2.5171 2.0575 2.45686 2.08056 2.40285 2.11467C2.34884 2.14878 2.30213 2.19327 2.26543 2.24555C2.19282 2.35088 2.16381 2.48024 2.18449 2.60649C2.20516 2.73275 2.27391 2.84609 2.37632 2.92277L12.5347 10.1465L2.40404 16.6653C2.35019 16.6984 2.30354 16.742 2.26687 16.7935C2.2302 16.8449 2.20425 16.9033 2.19058 16.965C2.17691 17.0267 2.17579 17.0905 2.18729 17.1527C2.19878 17.2148 2.22266 17.274 2.25751 17.3267Z" fill="#595A5B"/>
<path d="M5.64762 22.1505L11.4852 16.3208C11.5771 16.2299 11.6292 16.1063 11.6299 15.9771C11.6307 15.8478 11.5801 15.7236 11.4892 15.6317C11.3983 15.5398 11.2747 15.4877 11.1455 15.487C11.0162 15.4862 10.892 15.5369 10.8001 15.6277L4.62188 21.8178C4.53327 21.9066 4.481 22.0252 4.47534 22.1505C4.47539 22.2148 4.48839 22.2785 4.51357 22.3377C4.53874 22.3969 4.57558 22.4504 4.62188 22.495L10.8001 28.6851C10.8947 28.7716 11.0166 28.8221 11.1446 28.8277C11.2715 28.8222 11.3922 28.7716 11.4852 28.6851C11.5311 28.6398 11.5675 28.5859 11.5924 28.5264C11.6172 28.4669 11.63 28.4031 11.63 28.3386C11.63 28.2741 11.6172 28.2103 11.5924 28.1508C11.5675 28.0913 11.5311 28.0374 11.4852 27.9921L5.64762 22.1505Z" fill="#595A5B"/>
<path d="M16.5426 18.9267V15.9762C16.5433 15.8795 16.5146 15.7848 16.4601 15.7048C16.4056 15.6248 16.328 15.5634 16.2376 15.5287C16.1486 15.4907 16.0504 15.4799 15.9553 15.4975C15.8602 15.5151 15.7724 15.5604 15.703 15.6277L9.53662 21.8178C9.49121 21.8607 9.45485 21.9122 9.42968 21.9693C9.40451 22.0265 9.39105 22.0881 9.39009 22.1505C9.38818 22.2151 9.40029 22.2794 9.42559 22.3388C9.45089 22.3983 9.48876 22.4516 9.53662 22.495L15.7148 28.6851C15.7843 28.7525 15.8721 28.7978 15.9672 28.8154C16.0623 28.833 16.1605 28.8221 16.2495 28.7842C16.3376 28.7476 16.4127 28.6854 16.465 28.6055C16.5172 28.5257 16.5443 28.432 16.5426 28.3366V25.3861H16.796C26.5188 25.3861 31.0733 31.6475 31.1168 31.7228C31.1618 31.7857 31.2213 31.8369 31.2902 31.872C31.3591 31.9072 31.4355 31.9252 31.5129 31.9247C31.5823 31.9232 31.6509 31.9084 31.7148 31.8812C31.8164 31.8326 31.8981 31.7506 31.9464 31.649C31.9947 31.5473 32.0066 31.4322 31.9802 31.3228C29.2079 20.198 18.9346 19.0416 16.5426 18.9267ZM16.8158 24.4238H16.0475C15.921 24.4288 15.8013 24.4821 15.7129 24.5727C15.6245 24.6633 15.5742 24.7843 15.5723 24.9109V27.1723L10.5624 22.1505L15.5723 17.1406V19.4059C15.5764 19.5358 15.6303 19.6592 15.7228 19.7505C15.8171 19.8353 15.9405 19.8807 16.0673 19.8772C16.5386 19.8772 26.7129 19.7624 30.396 29.4931C28.2812 27.4891 23.8693 24.4238 16.8158 24.4238Z" fill="#595A5B"/>
</g>
<defs>
<clipPath id="clip0_113_253">
<rect width="32" height="31.9208" fill="white"/>
</clipPath>
</defs>
</svg>
